<?xml version="1.0" standalone="no"?>
<!DOCTYPE svg PUBLIC "-//W3C//DTD SVG 1.1//EN" "http://www.w3.org/Graphics/SVG/1.1/DTD/svg11.dtd" >
<svg>
<metadata>
Created by FontForge 20090914 at Tue Apr 16 17:10:54 2013
 By www-data
Copyright (c) 2006 Parachute&#194;&#168;, www.parachute.gr.  All rights reserved.
</metadata>
<defs>
<font id="PFAgoraSlabPro-UltraBlack" horiz-adv-x="1818" >
  <font-face 
    font-family="PF Agora Slab Pro UltraBlack"
    font-weight="1000"
    font-stretch="normal"
    units-per-em="1000"
    panose-1="2 0 5 7 0 0 0 2 0 3"
    ascent="750"
    descent="-250"
    x-height="494"
    cap-height="693"
    bbox="-494 -351.006 1760 1033"
    underline-thickness="20"
    underline-position="-123"
    unicode-range="U+0020-U+FB05"
  />
<missing-glyph horiz-adv-x="460" 
d="M0 690h458v-690h-458v690zM322 94l-93 164l-92 -164h185zM322 596h-187l94 -162zM95 196l82 150l-82 151v-301zM363 196v300l-82 -152z" />
    <glyph glyph-name="fj" unicode="fj" horiz-adv-x="786" 
d="M53 143l55.998 -0.000976562v210h-74v125l75 23v31c0 22 2.33301 46 7 72s15.834 50.5 33.501 73.5s43.667 42.167 78 57.5s81.5 23 141.5 23c10.667 0 25 -0.333008 43 -1s38.167 -2.33398 60.5 -5.00098s46.333 -6.16699 72 -10.5s51.834 -10.5 78.501 -18.5l-29 -160
c-39.333 6 -71 10.167 -95 12.5s-46.667 3.5 -68 3.5c-29.333 0 -52 -4.66699 -68 -14s-24 -27 -24 -53v-17h376v-385c0 -54.667 -6 -102 -18 -142s-30.667 -74 -56 -102s-57.5 -50.5 -96.5 -67.5s-85.5 -29.833 -139.5 -38.5l-54 139
c28.667 16.667 51.334 31.167 68.001 43.5s29.167 25.833 37.5 40.5s13.666 31.834 15.999 51.501s3.5 44.834 3.5 75.501v243h-137v-210h59v-143h-346v143z" />
    <glyph glyph-name="ffj" unicode="ffj" horiz-adv-x="1158" 
d="M53 143l55.998 -0.000976562v210h-74v125l75 23v27c0 22 2.66699 45 8 69s17 46.167 35 66.5s44.167 37.166 78.5 50.499s80.5 20 138.5 20c19.333 0 43.833 -1.16699 73.5 -3.5s62.834 -9.16602 99.501 -20.499c19.333 17.333 44.833 31.333 76.5 42s72.5 16 122.5 16
c10.667 0 25 -0.333008 43 -1s38.167 -2.33398 60.5 -5.00098s46.333 -6.16699 72 -10.5s51.834 -10.5 78.501 -18.5l-29 -160c-39.333 6 -71 10.167 -95 12.5s-46.667 3.5 -68 3.5c-29.333 0 -52 -4.66699 -68 -14s-24 -27 -24 -53v-27h376v-385
c0 -54.667 -6 -102 -18 -142s-30.667 -74 -56 -102s-57.5 -50.5 -96.5 -67.5s-85.5 -29.833 -139.5 -38.5l-54 139c28.667 16.667 51.334 31.167 68.001 43.5s29.167 25.833 37.5 40.5s13.666 31.834 15.999 51.501s3.5 44.834 3.5 75.501v243h-137v-210h59v-143h-336v143
h46v210h-141v-210h49v-143h-336v143zM409.998 561.999c-23.333 0 -40.834 -3.5 -52.501 -10.5s-17.5 -20.5 -17.5 -40.5v-17h63v1h79v60c-12 2 -24.167 3.66699 -36.5 5s-24.166 2 -35.499 2z" />
    <glyph glyph-name="ff" unicode="ff" horiz-adv-x="913" 
d="M437 143l43.001 0.00292969v210h-140v-210h39v-143h-326v143h56v210h-74v125l75 23v27c0 22 2.66699 45 8 69s17 46.167 35 66.5s44.167 37.166 78.5 50.499s80.5 20 138.5 20c19.333 0 43 -1 71 -3s60 -8.33301 96 -19c17.333 13.333 39.833 24.166 67.5 32.499
s63.167 12.5 106.5 12.5c10.667 0 23.5 -0.5 38.5 -1.5s30.833 -2.5 47.5 -4.5s33.667 -4.66699 51 -8s34 -7.33301 50 -12l-32 -155c-16.667 3.33301 -33.834 6 -51.501 8s-32.5 3 -44.5 3c-18 0 -32.333 -2.83301 -43 -8.5s-16 -15.834 -16 -30.501v-54h139v-141h-139
v-210h69v-143h-343v143zM410.001 562.003c-23.333 0 -40.833 -3.5 -52.5 -10.5s-17.5 -20.5 -17.5 -40.5v-17h141v61c-12 2 -24 3.66699 -36 5s-23.667 2 -35 2z" />
    <glyph glyph-name="fi" unicode="fi" horiz-adv-x="824" 
d="M717 153l66.999 0.000976562v-139c-23.333 -9.33301 -49.5 -16.333 -78.5 -21s-55.167 -7 -78.5 -7c-28.667 0 -52.5 2.83301 -71.5 8.5s-34.333 14 -46 25s-19.834 24.5 -24.501 40.5s-7 34.333 -7 55l-1 238h-137v-210h59v-143h-346v143h56v210h-74v125l75 23v31
c0 22 2.33301 46 7 72s15.834 50.5 33.501 73.5s43.667 42.167 78 57.5s81.5 23 141.5 23c10.667 0 25 -0.333008 43 -1s38.167 -2.33398 60.5 -5.00098s46.333 -6.16699 72 -10.5s51.834 -10.5 78.501 -18.5l-29 -160c-39.333 6 -71 10.167 -95 12.5s-46.667 3.5 -68 3.5
c-29.333 0 -52 -4.66699 -68 -14s-24 -27 -24 -53v-17h376z" />
    <glyph glyph-name="fl" unicode="fl" horiz-adv-x="825" 
d="M726 143l59.001 0.000976562v-143h-345v143h48v433c-10.667 1.33301 -20.334 2.16602 -29.001 2.49902s-17.667 0.5 -27 0.5c-29.333 0 -52 -4.66699 -68 -14s-24 -27 -24 -53v-17h103v-142h-103v-210h49v-143h-336v143h56v210h-74v125l75 23v31c0 22 2.33301 46 7 72
s15.834 50.5 33.501 73.5s43.667 42.167 78 57.5s81.5 23 141.5 23c15.333 0 37.166 -0.833008 65.499 -2.5s60.5 -5.5 96.5 -11.5l194 18v-619z" />
    <glyph glyph-name="ffi" unicode="ffi" horiz-adv-x="1196" 
d="M712 353l-0.000976562 -209.999h59v-143h-338v143h48v210h-141v-210h47v-143h-334v143h56v210h-74v125l75 23v27c0 22 2.66699 45 8 69s17 46.167 35 66.5s44.167 37.166 78.5 50.499s80.5 20 138.5 20c19.333 0 43.833 -1.16699 73.5 -3.5
s62.834 -9.16602 99.501 -20.499c19.333 17.333 44.833 31.333 76.5 42s72.5 16 122.5 16c10.667 0 25 -0.333008 43 -1s38.167 -2.33398 60.5 -5.00098s46.333 -6.16699 72 -10.5s51.834 -10.5 78.501 -18.5l-29 -160c-39.333 6 -71 10.167 -95 12.5s-46.667 3.5 -68 3.5
c-29.333 0 -52 -4.66699 -68 -14s-24 -27 -24 -53v-27h376l1 -342h67v-139c-23.333 -9.33301 -49.5 -16.333 -78.5 -21s-55.167 -7 -78.5 -7c-28.667 0 -52.5 2.83301 -71.5 8.5s-34.333 14 -46 25s-19.834 24.5 -24.501 40.5s-7 34.333 -7 55v238h-138zM409.999 562.001
c-23.333 0 -40.834 -3.5 -52.501 -10.5s-17.5 -20.5 -17.5 -40.5v-17h63v1h79v60c-12 2 -24.167 3.66699 -36.5 5s-24.166 2 -35.499 2z" />
    <glyph glyph-name="ffl" unicode="ffl" horiz-adv-x="1196" 
d="M1098 143l59.001 0.000976562v-143h-345v143h48v443c-10.667 1.33301 -20.334 2.16602 -29.001 2.49902s-17.667 0.5 -27 0.5c-29.333 0 -52 -4.66699 -68 -14s-24 -27 -24 -53v-27h103v-142h-103v-210h49v-143h-331v143h51v210h-141v-210h44v-143h-331v143h56v210h-74
v125l75 23v27c0 22 2.66699 45 8 69s17 46.167 35 66.5s44.167 37.166 78.5 50.499s80.5 20 138.5 20c19.333 0 43.833 -1.16699 73.5 -3.5s62.834 -9.16602 99.501 -20.499c19.333 17.333 44.833 31.333 76.5 42s72.5 16 122.5 16c15.333 0 37.166 -0.833008 65.499 -2.5
s60.5 -5.5 96.5 -11.5l194 18v-629zM410.001 562.001c-23.333 0 -40.834 -3.5 -52.501 -10.5s-17.5 -20.5 -17.5 -40.5v-17l142 1v60c-12 2 -24.167 3.66699 -36.5 5s-24.166 2 -35.499 2z" />
    <glyph glyph-name="ft" unicode="ft" horiz-adv-x="914" 
d="M53 143l56.001 -0.00390625v210h-74v125l75 23v57c0 22 2 44.5 6 67.5s13.833 44 29.5 63s38.667 34.667 69 47s72.166 18.5 125.499 18.5c10.667 0 23.5 -0.5 38.5 -1.5s30.833 -2.5 47.5 -4.5s33.667 -4.66699 51 -8s34 -7.33301 50 -12l-32 -155
c-16.667 3.33301 -33.834 6 -51.501 8s-32.5 3 -44.5 3c-18 0 -32.333 -2.83301 -43 -8.5s-16 -15.834 -16 -30.501v-51h167l52 145l158 12v-156h136v-142h-136v-120c0 -17.333 1.16699 -30.833 3.5 -40.5s6.33301 -17.167 12 -22.5s12.834 -8.66602 21.501 -9.99902
s19.334 -2 32.001 -2c5.33301 0 14.833 0.666992 28.5 2s27.834 3 42.501 5l24 -149c-12.667 -5.33301 -26.334 -9.66602 -41.001 -12.999s-29.334 -6.33301 -44.001 -9s-29 -4.5 -43 -5.5s-26.333 -1.5 -37 -1.5c-54 0 -96.5 6.33301 -127.5 19s-54.333 28.334 -70 47.001
s-25.5 38.834 -29.5 60.501s-6 41.834 -6 60.501v179h-143v-210h69v-143h-356v143z" />
    <glyph glyph-name=".notdef" horiz-adv-x="460" 
d="M0 690h458v-690h-458v690zM322 94l-93 164l-92 -164h185zM322 596h-187l94 -162zM95 196l82 150l-82 151v-301zM363 196v300l-82 -152z" />
    <glyph glyph-name="space" unicode=" " horiz-adv-x="338" 
 />
    <glyph glyph-name="exclam" unicode="!" horiz-adv-x="377" 
d="M296 720v-213l-20 -277h-175l-20 277v213h215zM189 190c34 0 60.833 -10 80.5 -30s29.5 -44.667 29.5 -74c0 -13.333 -2.66699 -26.166 -8 -38.499s-12.833 -23.166 -22.5 -32.499s-21.167 -16.833 -34.5 -22.5s-28.333 -8.5 -45 -8.5
c-17.333 0 -32.833 2.83301 -46.5 8.5s-25.167 13.167 -34.5 22.5s-16.5 20.166 -21.5 32.499s-7.5 25.166 -7.5 38.499c0 14 2.66699 27.333 8 40s12.833 23.667 22.5 33s21.167 16.833 34.5 22.5s28.333 8.5 45 8.5z" />
    <glyph glyph-name="quotedbl" unicode="&#x22;" horiz-adv-x="515" 
d="M87 390l-24 305h183l-26 -305h-133zM300 390l-25 305h183l-26 -305h-132z" />
    <glyph glyph-name="numbersign" unicode="#" horiz-adv-x="675" 
d="M492 370l-19 -69h91l2 -101h-115l-50 -201h-118l48 201h-59l-50 -201h-119l49 201h-74l-1 101h99l20 69h-87l-2 98h113l47 183h117l-45 -183h59l48 183h116l-45 -183h80l2 -98h-107zM296 301h59l19 69h-59z" />
    <glyph glyph-name="dollar" unicode="$" horiz-adv-x="662" 
d="M344 754l50 0.00195312v-74c26 -2.66699 52 -7.16699 78 -13.5s49.667 -14.5 71 -24.5v-178h-117v60c-7.33301 2.66699 -18 5.66699 -32 9v-115c22.667 -6.66699 46 -14.834 70 -24.501s45.833 -22 65.5 -37s35.667 -33.333 48 -55s18.5 -47.834 18.5 -78.501
c0 -57.333 -17.667 -104.333 -53 -141s-85 -60 -149 -70v-90h-50v832zM312 -77.998l-50 0.000976562v88c-30 3.33301 -60.667 8.33301 -92 15s-61 15.667 -89 27v187h120v-65c6 -2.66699 14.5 -5 25.5 -7s22.833 -3.66699 35.5 -5v115
c-25.333 7.33301 -49.833 16.166 -73.5 26.499s-44.5 23 -62.5 38s-32.5 32.667 -43.5 53s-16.5 44.5 -16.5 72.5c0 58.667 17 107 51 145s82.333 61 145 69v73h50v-832zM417 206.003c0 16.667 -7.66699 28.333 -23 35v-70c8.66699 3.33301 14.667 8 18 14s5 13 5 21z
M238 489.002c0 -7.33301 1.66797 -13.668 5.00098 -19.001s9.66602 -9.66602 18.999 -12.999v70c-16 -7.33301 -24 -20 -24 -38z" />
    <glyph glyph-name="percent" unicode="%" horiz-adv-x="1010" 
d="M417 469c0 -30 -3.66699 -57.667 -11 -83s-19.166 -47.166 -35.499 -65.499s-37.333 -32.833 -63 -43.5s-56.834 -16 -93.501 -16s-68 5.33301 -94 16s-47.167 25.167 -63.5 43.5s-28.166 40.166 -35.499 65.499s-11 53 -11 83s3.66699 57.667 11 83
s19.166 47.166 35.499 65.499s37.5 32.666 63.5 42.999s57.333 15.5 94 15.5s67.834 -5.16699 93.501 -15.5s46.667 -24.666 63 -42.999s28.166 -40.166 35.499 -65.499s11 -53 11 -83zM258 469c0 29.333 -3 52.833 -9 70.5s-17.667 26.5 -35 26.5
c-18 0 -29.833 -9.33301 -35.5 -28s-8.5 -41.667 -8.5 -69c0 -30 2.83301 -53.667 8.5 -71s17.5 -26 35.5 -26c17.333 0 29 8.5 35 25.5s9 40.833 9 71.5zM398 -18h-129l351 738h130zM992 201c0 -30 -3.66699 -57.667 -11 -83s-19.166 -47.166 -35.499 -65.499
s-37.333 -32.833 -63 -43.5s-56.834 -16 -93.501 -16s-68 5.33301 -94 16s-47.167 25.167 -63.5 43.5s-28.166 40.166 -35.499 65.499s-11 53 -11 83s3.66699 57.667 11 83s19.166 47.166 35.499 65.499s37.5 32.666 63.5 42.999s57.333 15.5 94 15.5
s67.834 -5.16699 93.501 -15.5s46.667 -24.666 63 -42.999s28.166 -40.166 35.499 -65.499s11 -53 11 -83zM833 201c0 29.333 -3 52.833 -9 70.5s-17.667 26.5 -35 26.5c-18 0 -29.833 -9.33301 -35.5 -28s-8.5 -41.667 -8.5 -69c0 -30 2.83301 -53.667 8.5 -71
s17.5 -26 35.5 -26c17.333 0 29 8.5 35 25.5s9 40.833 9 71.5z" />
    <glyph glyph-name="ampersand" unicode="&#x26;" horiz-adv-x="895" 
d="M347 -20c-39.333 0 -75.666 4.50391 -108.999 13.5039s-62.166 22.5 -86.499 40.5s-43.5 40.167 -57.5 66.5s-21 56.833 -21 91.5c0 18 2.33301 36.5 7 55.5s12.5 37.667 23.5 56s25.667 35.833 44 52.5s41.5 32 69.5 46c-14 18.667 -24.5 39.667 -31.5 63
s-10.5 46 -10.5 68c0 12.667 2.5 28.5 7.5 47.5s14.667 37.167 29 54.5s34.333 32.333 60 45s59.5 19 101.5 19c46 0 82.833 -6.66699 110.5 -20s49 -28.833 64 -46.5s24.833 -35.334 29.5 -53.001s7 -30.5 7 -38.5c0 -21.333 -4.66699 -41 -14 -59
s-20.666 -34.5 -33.999 -49.5s-27.833 -28.167 -43.5 -39.5l-41.5 -29l30.5 -33.5l31.5 -35.5c11.333 -10.667 21.666 -21.334 30.999 -32.001s19.666 -21 30.999 -31c6.66699 7.33301 13.167 16.333 19.5 27s11.5 20 15.5 28h-40v133h277v-133h-54
c-9.33301 -25.333 -21.833 -51.833 -37.5 -79.5s-35.834 -55.167 -60.501 -82.5l32 -23c11.333 -8 23 -15.833 35 -23.5l35.5 -22c11.667 -7 22.167 -12.833 31.5 -17.5l-75 -122c-30.667 13.333 -63 30.166 -97 50.499s-64.667 41.166 -92 62.499
c-59.333 -33.333 -132 -50 -218 -50zM389 192.004l-39.999 43.5c-12.667 13.667 -25.334 28.167 -38.001 43.5c-10 -7.33301 -18.333 -17.333 -25 -30s-10 -26.667 -10 -42c0 -24 9.5 -42.833 28.5 -56.5s44.5 -20.5 76.5 -20.5c20 0 39.667 3 59 9zM347.001 540.004
c0 -7.33301 2.33105 -17.502 6.99805 -30.502s10.667 -25.167 18 -36.5c5.33301 3.33301 11.333 7.33301 18 12s12.834 9.83398 18.501 15.501s10.5 11.834 14.5 18.501s6 13.667 6 21c0 13.333 -4 23 -12 29s-18.333 9 -31 9c-11.333 0 -20.666 -3.66699 -27.999 -11
s-11 -16.333 -11 -27z" />
    <glyph glyph-name="quotesingle" unicode="'" horiz-adv-x="315" 
d="M87 390l-24 305h183l-26 -305h-133z" />
    <glyph glyph-name="parenleft" unicode="(" horiz-adv-x="410" 
d="M66 271c0 37.333 4.33301 75.3291 13 113.996s21.334 76.834 38.001 114.501s37.334 74.5 62.001 110.5s53 70 85 102l104 -65c-10 -14 -21.333 -32 -34 -54s-24.834 -48.167 -36.501 -78.5s-21.334 -65.166 -29.001 -104.499s-11.5 -83 -11.5 -131
c0 -52 3.83301 -98.833 11.5 -140.5s17.167 -78 28.5 -109s23.333 -57.167 36 -78.5s24 -38 34 -50l-100 -66c-66 64.667 -116 134.834 -150 210.501s-51 150.834 -51 225.501z" />
    <glyph glyph-name="parenright" unicode=")" horiz-adv-x="410" 
d="M350 272c0 -74.667 -17.001 -149.83 -51.001 -225.497s-84 -145.834 -150 -210.501l-100 66c10 12 21.167 28.667 33.5 50s24.166 47.5 35.499 78.5s20.833 67.333 28.5 109s11.5 88.5 11.5 140.5c0 48 -3.83301 91.667 -11.5 131s-17.167 74.166 -28.5 104.499
s-23.333 56.5 -36 78.5s-24 40 -34 54l104 65c32 -32 60.333 -66 85 -102s45.334 -72.833 62.001 -110.5s29.334 -75.834 38.001 -114.501s13 -76.667 13 -114z" />
    <glyph glyph-name="asterisk" unicode="*" horiz-adv-x="475" 
d="M319 491l93 -85l-116 -84l-53 115l-54 -115l-117 84l94 87l-128 16l44 140l112 -65l-25 123h147l-26 -122l114 64l44 -140z" />
    <glyph glyph-name="plus" unicode="+" horiz-adv-x="662" 
d="M412 247v-175h-127v175h-165v123h165v172h127v-172h164v-123h-164z" />
    <glyph glyph-name="comma" unicode="," horiz-adv-x="349" 
d="M55 111c0 14 2.66406 27.166 7.99707 39.499s13 23.166 23 32.499s22 16.833 36 22.5s29.667 8.5 47 8.5c20.667 0 38.334 -3.83301 53.001 -11.5s26.334 -17.5 35.001 -29.5s15 -25.667 19 -41s6 -30.666 6 -45.999c0 -25.333 -5 -50.5 -15 -75.5s-23 -48.167 -39 -69.5
s-34.167 -40.666 -54.5 -57.999s-40.833 -31 -61.5 -41l-57 75c20.667 16 37 31.667 49 47s19.667 34.333 23 57c-25.333 3.33301 -43.666 13 -54.999 29s-17 36.333 -17 61z" />
    <glyph glyph-name="hyphen" unicode="-" horiz-adv-x="437" 
d="M68 201v151h301v-151h-301z" />
    <glyph glyph-name="period" unicode="." horiz-adv-x="349" 
d="M287 100c0 -15.333 -3 -29.833 -9 -43.5s-14 -25.5 -24 -35.5s-21.833 -18 -35.5 -24s-28.167 -9 -43.5 -9s-30 3 -44 9s-26.167 14 -36.5 24s-18.5 21.833 -24.5 35.5s-9 28.167 -9 43.5s3 29.833 9 43.5s14.167 25.667 24.5 36s22.5 18.5 36.5 24.5s28.667 9 44 9
s29.833 -3 43.5 -9s25.5 -14.167 35.5 -24.5s18 -22.333 24 -36s9 -28.167 9 -43.5z" />
    <glyph glyph-name="slash" unicode="/" horiz-adv-x="434" 
d="M166 -41h-168l263 756h169z" />
    <glyph glyph-name="zero" unicode="0" horiz-adv-x="662" 
d="M643 336c0 -50 -5.66699 -96 -17 -138s-29.5 -78.5 -54.5 -109.5s-57.333 -55.167 -97 -72.5s-87.5 -26 -143.5 -26c-56.667 0 -104.834 8.66699 -144.501 26s-72 41.5 -97 72.5s-43.167 67.5 -54.5 109.5s-17 88 -17 138s5.66699 96 17 138s29.5 78.167 54.5 108.5
s57.333 54.166 97 71.499s87.834 26 144.501 26c56 0 103.833 -8.66699 143.5 -26s72 -41.166 97 -71.499s43.167 -66.5 54.5 -108.5s17 -88 17 -138zM404 336c0 26.667 -1.16699 51.001 -3.5 73.001s-6.33301 41 -12 57s-13.167 28.5 -22.5 37.5s-21 13.5 -35 13.5
c-14.667 0 -26.667 -4.83301 -36 -14.5s-16.833 -22.834 -22.5 -39.501s-9.66699 -36 -12 -58s-3.5 -45 -3.5 -69c0 -27.333 1.16699 -52.333 3.5 -75s6.33301 -42 12 -58s13.167 -28.5 22.5 -37.5s21.333 -13.5 36 -13.5c14 0 25.667 4.33301 35 13s16.833 21 22.5 37
s9.66699 35.333 12 58s3.5 48 3.5 76z" />
    <glyph glyph-name="one" unicode="1" horiz-adv-x="662" 
d="M80 144h135.998v349c-21.333 -2 -44.166 -3.83301 -68.499 -5.5s-47.166 -3.5 -68.499 -5.5l-21 125l190 65h204v-528h143v-144h-515v144z" />
    <glyph glyph-name="two" unicode="2" horiz-adv-x="662" 
d="M358 143l98 -0.00195312v53h163v-196h-581v129l114 85.5c37.333 28.333 70.833 56 100.5 83s53.5 53.167 71.5 78.5s27 49.333 27 72c0 6.66699 -0.833008 13.334 -2.5 20.001s-5 12.5 -10 17.5s-12.333 9.16699 -22 12.5s-22.5 5 -38.5 5c-18.667 0 -42.5 -4 -71.5 -12
s-59.5 -20.667 -91.5 -38l-66 143c44 27.333 88.833 48 134.5 62s91.5 21 137.5 21c42.667 0 80.667 -5.16699 114 -15.5s61.333 -25.166 84 -44.499s40 -42.5 52 -69.5s18 -56.833 18 -89.5c0 -30.667 -6.83301 -60.167 -20.5 -88.5s-31.5 -55.5 -53.5 -81.5
s-46.833 -51 -74.5 -75s-55.5 -46.333 -83.5 -67z" />
    <glyph glyph-name="three" unicode="3" horiz-adv-x="662" 
d="M584 672l25.0029 -119.999l-147 -138c53.333 -12 92.666 -34.333 117.999 -67s38 -73 38 -121c0 -39.333 -7.66699 -73.833 -23 -103.5s-36.5 -54.334 -63.5 -74.001s-59.333 -34.5 -97 -44.5s-78.834 -15 -123.501 -15c-10 0 -25.333 0.666992 -46 2
s-43.334 4 -68.001 8s-49.834 9.83301 -75.501 17.5s-48.834 17.5 -69.501 29.5l50 145c38.667 -13.333 71.334 -22 98.001 -26s51.667 -6 75 -6c34 0 59.5 6.66699 76.5 20s25.5 29.333 25.5 48c0 8 -1.16699 16 -3.5 24s-7.16602 15.333 -14.499 22
s-18.5 12.167 -33.5 16.5s-34.833 6.5 -59.5 6.5h-17c-6 0 -12.333 -0.333008 -19 -1l-20 102l142 130h-104v-50h-161v195h497z" />
    <glyph glyph-name="four" unicode="4" horiz-adv-x="662" 
d="M543 672v-335h98v-146h-98v-48h57v-143h-338v143h50v48h-285v122l256 359h260zM307 447l-75 -110h81l-1 110h-5z" />
    <glyph glyph-name="five" unicode="5" horiz-adv-x="662" 
d="M279 302c-24.667 0 -54.3271 -6.66895 -88.9941 -20.002l-105 46l33 344h459v-193h-169v48h-109l-8 -77c9.33301 1.33301 18.333 2.33301 27 3s16.334 1 23.001 1c87.333 0 155.166 -19.333 203.499 -58s72.5 -93 72.5 -163c0 -39.333 -7.66699 -74.166 -23 -104.499
s-36.5 -55.666 -63.5 -75.999s-59.333 -35.833 -97 -46.5s-78.834 -16 -123.501 -16c-10 0 -25.333 0.666992 -46 2s-43.334 4 -68.001 8s-49.834 9.83301 -75.501 17.5s-48.834 17.5 -69.501 29.5l54 153c38.667 -13.333 71.167 -22.5 97.5 -27.5s51.166 -7.5 74.499 -7.5
c29.333 0 53.666 6 72.999 18s29 29.333 29 52c0 24.667 -9.33301 42 -28 52s-42.667 15 -72 15z" />
    <glyph glyph-name="six" unicode="6" horiz-adv-x="662" 
d="M276 403c25.333 13.333 49.667 21.665 73 24.998s42.666 5 57.999 5c28 0 54.833 -4.5 80.5 -13.5s48.334 -22.333 68.001 -40s35.334 -39.5 47.001 -65.5s17.5 -56 17.5 -90c0 -39.333 -7 -73.666 -21 -102.999s-33.5 -53.666 -58.5 -72.999s-54.333 -34 -88 -44
s-70.5 -15 -110.5 -15c-53.333 0 -99.166 7.66699 -137.499 23s-69.833 36.5 -94.5 63.5s-42.834 59.333 -54.501 97s-17.5 79.167 -17.5 124.5c0 50 5.5 98 16.5 144s29.833 86.5 56.5 121.5s62.167 63 106.5 84s99.833 31.5 166.5 31.5c34.667 0 65 -2 91 -6
s49 -8.66699 69 -14l-27 -154c-24.667 5.33301 -46.834 8.83301 -66.501 10.5s-35.167 2.5 -46.5 2.5c-42 0 -73.5 -9.83301 -94.5 -29.5s-33.5 -46.5 -37.5 -80.5zM396.001 223.999c0 16 -3.33301 30.333 -10 43s-21.334 19 -44.001 19
c-9.33301 0 -19.666 -2.16699 -30.999 -6.5s-23 -9.83301 -35 -16.5v-15c0 -27.333 4.83301 -49.166 14.5 -65.499s26.167 -24.5 49.5 -24.5c16 0 29.333 5.66699 40 17s16 27.666 16 48.999z" />
    <glyph glyph-name="seven" unicode="7" horiz-adv-x="662" 
d="M85 444v228h508v-135l-251 -537h-227l242 527h-102v-83h-170z" />
    <glyph glyph-name="eight" unicode="8" horiz-adv-x="662" 
d="M283 485c0 -8 2.16797 -14.8311 6.50098 -20.498s10.333 -10.834 18 -15.501s16.667 -9.16699 27 -13.5l32.5 -13.5c12 12 20.167 23.167 24.5 33.5s6.5 19.5 6.5 27.5c0 13.333 -4.83301 24.166 -14.5 32.499s-24.834 12.5 -45.501 12.5
c-17.333 0 -30.833 -4.66699 -40.5 -14s-14.5 -19 -14.5 -29zM332.001 161.002c10.667 0 19.666 1.83398 26.999 5.50098s13.166 8 17.499 13s7.66602 10.167 9.99902 15.5s3.5 9.66602 3.5 12.999c0.666992 6 0.333984 12 -0.999023 18s-5 12 -11 18
s-14.667 12.167 -26 18.5s-26.666 12.833 -45.999 19.5c-14.667 -13.333 -24.5 -25.5 -29.5 -36.5s-7.5 -22.833 -7.5 -35.5s5.33301 -24 16 -34s26.334 -15 47.001 -15zM606 493.003c0 -20 -5.33008 -42.999 -15.9971 -68.999s-30.334 -50.333 -59.001 -73
c32.667 -17.333 57 -38.5 73 -63.5s24 -55.833 24 -92.5c0 -29.333 -7.16699 -56.5 -21.5 -81.5s-34.5 -46.5 -60.5 -64.5s-57.333 -32.167 -94 -42.5s-77.334 -15.5 -122.001 -15.5c-45.333 0 -86.333 4.5 -123 13.5s-67.834 22.167 -93.501 39.5
s-45.334 38.5 -59.001 63.5s-20.5 53.167 -20.5 84.5c0 12.667 1.83301 26.334 5.5 41.001s9.5 29.667 17.5 45s18.667 30.5 32 45.5s29.666 28.833 48.999 41.5c-22 15.333 -38.833 32.666 -50.5 51.999s-17.5 43 -17.5 71c0 28.667 6.66699 55 20 79
s31.833 44.667 55.5 62s51.834 30.666 84.501 39.999s68.334 14 107.001 14c30 0 60.833 -3.33301 92.5 -10s60.667 -17.5 87 -32.5s47.833 -34.667 64.5 -59s25 -53.833 25 -88.5z" />
    <glyph glyph-name="nine" unicode="9" horiz-adv-x="662" 
d="M383 264c-24 -12.667 -48.166 -20.999 -72.499 -24.999s-43.5 -6 -57.5 -6c-30 0 -58.167 4.66699 -84.5 14s-49 23 -68 41s-34 40.167 -45 66.5s-16.5 56.166 -16.5 89.499c0 39.333 7.16699 73.666 21.5 102.999s34 53.833 59 73.5s54.667 34.334 89 44.001
s71.166 14.5 110.499 14.5c52.667 0 98.167 -7.5 136.5 -22.5s69.666 -36.167 93.999 -63.5s42.333 -60 54 -98s17.5 -79.667 17.5 -125c0 -50 -5.5 -98 -16.5 -144s-29.833 -86.667 -56.5 -122s-62.167 -63.5 -106.5 -84.5s-99.833 -31.5 -166.5 -31.5
c-34.667 0 -64.667 2.16699 -90 6.5s-48.333 9.5 -69 15.5l25 152c22.667 -4 44 -7 64 -9s37 -3 51 -3c42 0 73.333 10 94 30s33.334 47 38.001 81zM263.001 444.001c0 -8 0.666992 -15.6641 2 -22.9971s4 -14 8 -20s9.5 -10.833 16.5 -14.5s16.167 -5.5 27.5 -5.5
c9.33301 0 19.833 2.16699 31.5 6.5s23.167 10.166 34.5 17.499c0 1.33301 0.166992 2.66602 0.5 3.99902s0.5 4.66602 0.5 9.99902c0 28 -4.83301 50.333 -14.5 67s-26.5 25 -50.5 25c-16 0 -29.333 -5.83301 -40 -17.5s-16 -28.167 -16 -49.5z" />
    <glyph glyph-name="colon" unicode=":" horiz-adv-x="349" 
d="M287 100c0 -15.333 -3 -29.833 -9 -43.5s-14 -25.5 -24 -35.5s-21.833 -18 -35.5 -24s-28.167 -9 -43.5 -9s-30 3 -44 9s-26.167 14 -36.5 24s-18.5 21.833 -24.5 35.5s-9 28.167 -9 43.5s3 29.833 9 43.5s14.167 25.667 24.5 36s22.5 18.5 36.5 24.5s28.667 9 44 9
s29.833 -3 43.5 -9s25.5 -14.167 35.5 -24.5s18 -22.333 24 -36s9 -28.167 9 -43.5zM287 370c0 -15.333 -3 -29.833 -9 -43.5s-14 -25.5 -24 -35.5s-21.833 -17.833 -35.5 -23.5s-28.167 -8.5 -43.5 -8.5s-30 2.83301 -44 8.5s-26.167 13.5 -36.5 23.5
s-18.5 21.833 -24.5 35.5s-9 28.167 -9 43.5s3 30 9 44s14.167 26.167 24.5 36.5s22.5 18.5 36.5 24.5s28.667 9 44 9s29.833 -3 43.5 -9s25.5 -14.167 35.5 -24.5s18 -22.5 24 -36.5s9 -28.667 9 -44z" />
    <glyph glyph-name="semicolon" unicode=";" horiz-adv-x="349" 
d="M287 370c0 -15.333 -3 -29.833 -9 -43.5s-14 -25.5 -24 -35.5s-21.833 -17.833 -35.5 -23.5s-28.167 -8.5 -43.5 -8.5s-30 2.83301 -44 8.5s-26.167 13.5 -36.5 23.5s-18.5 21.833 -24.5 35.5s-9 28.167 -9 43.5s3 30 9 44s14.167 26.167 24.5 36.5s22.5 18.5 36.5 24.5
s28.667 9 44 9s29.833 -3 43.5 -9s25.5 -14.167 35.5 -24.5s18 -22.5 24 -36.5s9 -28.667 9 -44zM61 111c0 14 2.66504 27.166 7.99805 39.499s12.833 23.166 22.5 32.499s21.5 16.833 35.5 22.5s29.667 8.5 47 8.5c20.667 0 38.334 -3.83301 53.001 -11.5
s26.5 -17.5 35.5 -29.5s15.5 -25.667 19.5 -41s6 -30.666 6 -45.999c0 -25.333 -5 -50.5 -15 -75.5s-23 -48.167 -39 -69.5s-34.167 -40.666 -54.5 -57.999s-40.833 -31 -61.5 -41l-57 75c21.333 16 37.833 31.667 49.5 47s19.167 34.333 22.5 57
c-25.333 3.33301 -43.666 13 -54.999 29s-17 36.333 -17 61z" />
    <glyph glyph-name="less" unicode="&#x3c;" horiz-adv-x="662" 
d="M590 6l-523 242v106l523 245v-153l-331 -144l166 -73l165 -72v-151z" />
    <glyph glyph-name="equal" unicode="=" horiz-adv-x="662" 
d="M101 333v119h460v-119h-460zM101 146v118h460v-118h-460z" />
    <glyph glyph-name="greater" unicode="&#x3e;" horiz-adv-x="662" 
d="M68 157l330 145l-165 71.5l-165 72.5v153l523 -245v-106l-523 -242v151z" />
    <glyph glyph-name="question" unicode="?" horiz-adv-x="587" 
d="M302 718c41.333 0 78 -5 110 -15s58.833 -24 80.5 -42s38 -39.5 49 -64.5s16.5 -52.5 16.5 -82.5c0 -24 -4.5 -45.5 -13.5 -64.5s-20.5 -36.5 -34.5 -52.5s-28.833 -31 -44.5 -45l-44.5 -41c-14 -13.333 -25.5 -27 -34.5 -41s-13.5 -29.333 -13.5 -46v-14h-191v48
c0 34.667 6.5 63 19.5 85s27.5 41.167 43.5 57.5l43.5 45.5c13 14 19.5 30.333 19.5 49c0 16.667 -5.66699 30.167 -17 40.5s-28.333 15.5 -51 15.5c-6.66699 0 -13 -0.166992 -19 -0.5s-12 -0.833008 -18 -1.5l-1 -68h-154v191c50.667 19.333 97.667 31.833 141 37.5
s81 8.5 113 8.5zM287 186c14.667 0 28.667 -2.66504 42 -7.99805s24.833 -12.5 34.5 -21.5s17.334 -19.833 23.001 -32.5s8.5 -26 8.5 -40c0 -13.333 -2.83301 -26 -8.5 -38s-13.334 -22.667 -23.001 -32s-21.167 -16.666 -34.5 -21.999s-27.333 -8 -42 -8
c-15.333 0 -29.5 2.66699 -42.5 8s-24.333 12.666 -34 21.999s-17.334 20 -23.001 32s-8.5 24.667 -8.5 38c0 14 2.83301 27.167 8.5 39.5s13.334 23.166 23.001 32.499s21 16.666 34 21.999s27.167 8 42.5 8z" />
    <glyph glyph-name="at" unicode="@" horiz-adv-x="996" 
d="M515 723c60 0 113.497 -8.16309 160.497 -24.4961s87 -39.5 120 -69.5s58.167 -66.333 75.5 -109s26 -90 26 -142c0 -34 -5.5 -64.667 -16.5 -92s-26.5 -50.5 -46.5 -69.5s-43.833 -33.667 -71.5 -44s-58.5 -15.5 -92.5 -15.5c-12.667 0 -26.167 1.5 -40.5 4.5
s-28 7.5 -41 13.5s-24.5 13.833 -34.5 23.5s-17 21.5 -21 35.5c-17.333 -22 -37.333 -37.167 -60 -45.5s-41.667 -12.5 -57 -12.5c-24 0 -43.333 3.66699 -58 11s-26.167 16.166 -34.5 26.499s-14 21.666 -17 33.999s-4.5 23.5 -4.5 33.5c0 8 0.833008 17 2.5 27
s5.83398 19.667 12.501 29s16.334 17.5 29.001 24.5s29.667 12.167 51 15.5l117 13v6c0 11.333 -2.16699 19.666 -6.5 24.999s-16.833 8 -37.5 8c-16 0 -32.167 -1.16699 -48.5 -3.5s-31.833 -5.16602 -46.5 -8.49902l-20 93c22 8.66699 46 15.334 72 20.001s53 7 81 7
c22 0 42.667 -1.83301 62 -5.5s36.333 -10.167 51 -19.5s26.167 -21.666 34.5 -36.999s12.5 -34.333 12.5 -57v-132c0 -4.66699 2.33301 -9.83398 7 -15.501s14.667 -8.5 30 -8.5c9.33301 0 18.5 1.83301 27.5 5.5s17 9.66699 24 18s12.667 19.166 17 32.499
s6.5 29.666 6.5 48.999c0 36 -5.66699 69.167 -17 99.5s-28.333 56.333 -51 78s-50.5 38.667 -83.5 51s-70.833 18.5 -113.5 18.5c-44 0 -84.667 -7 -122 -21s-69.666 -33.167 -96.999 -57.5s-48.833 -53.166 -64.5 -86.499s-23.5 -69 -23.5 -107
c0 -39.333 7 -75.833 21 -109.5s33.5 -62.667 58.5 -87s54.833 -43.333 89.5 -57s73 -20.5 115 -20.5c18 0 39 1.66699 63 5s53 10.333 87 21l38 -94c-31.333 -17.333 -64 -28.666 -98 -33.999s-64.667 -8 -92 -8c-66 0 -123.833 9.66699 -173.5 29
s-91.167 46.166 -124.5 80.499s-58.5 74.666 -75.5 120.999s-25.5 96.5 -25.5 150.5c0 54.667 10.5 105.5 31.5 152.5s50.333 87.667 88 122s82.5 61.166 134.5 80.499s108.667 29 170 29zM483.997 325.004c-6.66699 -2 -11.166 -5.33301 -13.499 -10s-3.5 -9 -3.5 -13
c0 -8.66699 1.66699 -15.667 5 -21s9 -8 17 -8c9.33301 0 17.666 3 24.999 9v49z" />
    <glyph glyph-name="A" unicode="A" horiz-adv-x="852" 
d="M522 194h-209l-15 -45h56v-149h-334v149h53l213 544h297l195 -544h54v-149h-349v149h53zM386 401l-24 -68h117l-21 66l-32 111h-4z" />
    <glyph glyph-name="B" unicode="B" horiz-adv-x="798" 
d="M660 364c20.667 -9.33301 37.501 -21 50.501 -35s23 -28.5 30 -43.5s11.667 -29.5 14 -43.5s3.5 -26 3.5 -36c0 -31.333 -6 -59.666 -18 -84.999s-29 -47 -51 -65s-48.833 -31.833 -80.5 -41.5s-67.5 -14.5 -107.5 -14.5h-456v149h75v396h-75v148h464
c38.667 0 72.167 -4.66699 100.5 -14s52 -22.5 71 -39.5s33.167 -37.5 42.5 -61.5s14 -50.333 14 -79c0 -7.33301 -1.33301 -16.833 -4 -28.5s-7 -23.834 -13 -36.501s-13.833 -25 -23.5 -37s-21.834 -22 -36.501 -30v-3zM363.001 285v-135.999h71
c21.333 0 37.833 6.16699 49.5 18.5s17.5 28.166 17.5 47.499s-5.33301 35.833 -16 49.5s-27.667 20.5 -51 20.5h-71zM363.001 545.001v-125h64c18 0 32.167 6 42.5 18s15.5 27.667 15.5 47c0 18 -4.83301 32.5 -14.5 43.5s-24.167 16.5 -43.5 16.5h-64z" />
    <glyph glyph-name="C" unicode="C" horiz-adv-x="713" 
d="M307 355c0 -40 4.16406 -71.6709 12.4971 -95.0039s20.166 -41 35.499 -53s33.833 -19.5 55.5 -22.5s45.834 -4.5 72.501 -4.5c7.33301 0 17.333 0.5 30 1.5s26.5 2.33301 41.5 4s30 3.66699 45 6s28.167 4.5 39.5 6.5l34 -168c-36.667 -14 -77.5 -24.5 -122.5 -31.5
s-87.833 -10.5 -128.5 -10.5c-76.667 0 -139.167 10.333 -187.5 31s-86.166 47.834 -113.499 81.501s-46 72 -56 115s-15 86.833 -15 131.5c0 46.667 5.33301 91.834 16 135.501s30.167 82.334 58.5 116.001s67.666 60.667 117.999 81s115.5 30.5 195.5 30.5
c35.333 0 69.333 -2.33301 102 -7s65.334 -11.667 98.001 -21v-250h-165v94c-6 1.33301 -11.333 2.16602 -16 2.49902s-9.66699 0.5 -15 0.5c-26 0 -47.667 -4.16699 -65 -12.5s-31.166 -20.166 -41.499 -35.499s-17.666 -33.666 -21.999 -54.999s-6.5 -45 -6.5 -71z" />
    <glyph glyph-name="D" unicode="D" horiz-adv-x="838" 
d="M45 0v148.999h78v396h-73v148h390c68.667 0 125.5 -9.16699 170.5 -27.5s80.667 -43.166 107 -74.499s44.666 -68 54.999 -110s15.5 -86.333 15.5 -133c0 -45.333 -6 -89 -18 -131s-31.667 -79 -59 -111s-63.166 -57.667 -107.499 -77s-98.833 -29 -163.5 -29h-395z
M366 544.999l-0.000976562 -396.002h50c23.333 0 42.333 5.66699 57 17s26.334 26.333 35.001 45s14.5 39.834 17.5 63.501s4.5 47.834 4.5 72.501c0 25.333 -1.66699 50 -5 74s-9.5 45.167 -18.5 63.5s-21.5 33 -37.5 44s-36.333 16.5 -61 16.5h-42z" />
    <glyph glyph-name="E" unicode="E" horiz-adv-x="776" 
d="M45 0v149h74v396h-74v148h683v-271h-163v123h-203v-123l153 3v-144l-153 3v-135h211v135h163v-284h-691z" />
    <glyph glyph-name="F" unicode="F" horiz-adv-x="770" 
d="M45 0v149h76v396h-76v148h685v-271h-163v123h-204v-123l153 3v-144l-153 3v-135h90v-149h-408z" />
    <glyph glyph-name="G" unicode="G" horiz-adv-x="785" 
d="M446 710c35.333 0 71.999 -2.33203 109.999 -6.99902s73.333 -11.667 106 -21v-242h-166v91c-14 2 -27.667 3 -41 3c-54 0 -92.167 -16.333 -114.5 -49s-33.5 -76 -33.5 -130c0 -36.667 2.83301 -66.834 8.5 -90.501s13.834 -42.5 24.501 -56.5
s23.834 -23.667 39.501 -29s33.167 -8 52.5 -8c7.33301 0 15.166 0.333008 23.499 1s17.166 1.66699 26.499 3v70h-59v131h322v-131h-47v-212c-45.333 -16.667 -92.5 -28.334 -141.5 -35.001s-93.833 -10 -134.5 -10c-76.667 0 -139.167 10.667 -187.5 32
s-86.166 49 -113.499 83s-46 72.333 -56 115s-15 85.667 -15 129c0 44.667 5.33301 88.834 16 132.501s30.5 82.5 59.5 116.5s69.167 61.5 120.5 82.5s118 31.5 200 31.5z" />
    <glyph glyph-name="H" unicode="H" horiz-adv-x="926" 
d="M500 0v149h63v135h-198v-135h63v-149h-383v149h78v396h-78v148h383v-148h-63v-123h198v123h-63v148h381v-148h-76v-396h76v-149h-381z" />
    <glyph glyph-name="I" unicode="I" horiz-adv-x="531" 
d="M70 0v149h76v396h-76v148h391v-148h-73v-396h73v-149h-391z" />
    <glyph glyph-name="J" unicode="J" horiz-adv-x="571" 
d="M87 694l424 0.000976562v-149h-83v-351c0 -111.333 -32.667 -200.833 -98 -268.5s-161 -109.834 -287 -126.501l-53 172c44.667 17.333 80 33.5 106 48.5s45.667 31 59 48s22 36.333 26 58s6 48.167 6 79.5v340l-100 1v148z" />
    <glyph glyph-name="K" unicode="K" horiz-adv-x="852" 
d="M590 423l187 -273h55v-150h-372v150h47l-91 136l-60 -47v-90h60v-149h-371v149h77v396h-77v146h379v-146h-68v-122l151 122h-47v146h353l-1 -146h-68z" />
    <glyph glyph-name="L" unicode="L" horiz-adv-x="744" 
d="M45 0v149h77v396h-77v148h392v-148h-72v-396h195v135h164v-284h-679z" />
    <glyph glyph-name="M" unicode="M" horiz-adv-x="1123" 
d="M568 389l68 168l57 136h385v-148h-65v-396h65v-149h-354v149h54v256h-3l-54 -135l-55 -130h-193l-65 135l-58 130h-3v-256h62v-149h-364v149h78v396h-78v148h383l64 -141l72 -163h4z" />
    <glyph glyph-name="N" unicode="N" horiz-adv-x="946" 
d="M608 322v223h-66v148h359v-148h-68v-545h-239l-150 232l-105 170h-2v-253h67v-149h-359v149h70v396h-70v148h329l117 -184l113 -187h4z" />
    <glyph glyph-name="O" unicode="O" horiz-adv-x="845" 
d="M795 350c0 -52 -7.83301 -100.167 -23.5 -144.5s-39.167 -82.666 -70.5 -114.999s-70.166 -57.5 -116.499 -75.5s-100.5 -27 -162.5 -27s-116.167 9 -162.5 27s-85 43.167 -116 75.5s-54.333 70.666 -70 114.999s-23.5 92.5 -23.5 144.5s7.83301 100 23.5 144
s39 81.833 70 113.5s69.667 56.5 116 74.5s100.5 27 162.5 27s116.167 -9 162.5 -27s85.166 -42.833 116.499 -74.5s54.833 -69.5 70.5 -113.5s23.5 -92 23.5 -144zM536 350c0 28.667 -1.83301 55.0029 -5.5 79.0029s-10 44.667 -19 62s-20.667 30.666 -35 39.999
s-32.5 14 -54.5 14s-40.333 -5.16699 -55 -15.5s-26.5 -24.333 -35.5 -42s-15.333 -38.334 -19 -62.001s-5.5 -48.834 -5.5 -75.501c0 -30 1.83301 -57.333 5.5 -82s10 -45.667 19 -63s20.833 -30.833 35.5 -40.5s33 -14.5 55 -14.5s40.167 4.66699 54.5 14
s26 22.666 35 39.999s15.333 38.333 19 63s5.5 52.334 5.5 83.001z" />
    <glyph glyph-name="P" unicode="P" horiz-adv-x="737" 
d="M712 466c0 -31.333 -5.5 -60.499 -16.5 -87.499s-27.333 -50.833 -49 -71.5s-48.5 -36.834 -80.5 -48.501s-68.667 -17.5 -110 -17.5h-95v-92h93v-149h-409v149h73v396h-73v148h394c52 0 95.5 -6 130.5 -18s63 -28.167 84 -48.5s36 -44.333 45 -72
s13.5 -57.167 13.5 -88.5zM361 545.001v-163h27c25.333 0 43 7.83301 53 23.5s15 34.167 15 55.5c0 56 -24.667 84 -74 84h-21z" />
    <glyph glyph-name="Q" unicode="Q" horiz-adv-x="852" 
d="M795 350c0 -62.667 -11.166 -119.333 -33.499 -170s-55.833 -92 -100.5 -124l154 -38l-67 -172l-412 149c-47.333 8 -88.833 22.333 -124.5 43s-65.5 46.5 -89.5 77.5s-42 66.333 -54 106s-18 82.5 -18 128.5c0 52 7.83301 100 23.5 144s39 81.833 70 113.5
s69.667 56.5 116 74.5s100.5 27 162.5 27s116.167 -9 162.5 -27s85.166 -42.833 116.499 -74.5s54.833 -69.5 70.5 -113.5s23.5 -92 23.5 -144zM536.001 350.001c0 28.667 -1.83301 55.0029 -5.5 79.0029s-10 44.667 -19 62s-20.667 30.666 -35 39.999s-32.5 14 -54.5 14
s-40.333 -5.16699 -55 -15.5s-26.5 -24.333 -35.5 -42s-15.333 -38.334 -19 -62.001s-5.5 -48.834 -5.5 -75.501c0 -30 1.83301 -57.333 5.5 -82s10 -45.667 19 -63s20.833 -30.833 35.5 -40.5s33 -14.5 55 -14.5s40.167 4.66699 54.5 14s26 22.666 35 39.999
s15.333 38.333 19 63s5.5 52.334 5.5 83.001z" />
    <glyph glyph-name="R" unicode="R" horiz-adv-x="808" 
d="M473 478c0 22 -6 38.667 -18 50s-29 17 -51 17h-46v-146h36c24 0 43.167 6 57.5 18s21.5 32.333 21.5 61zM358 259v-109.999h60v-149h-368v149h69v396h-69v148h423c52 0 94.667 -6.5 128 -19.5s59.666 -30 78.999 -51s32.666 -44.667 39.999 -71s11 -52.5 11 -78.5
c0 -15.333 -2 -31.333 -6 -48s-10.167 -32.834 -18.5 -48.501s-19 -30 -32 -43s-28.833 -23.833 -47.5 -32.5l84 -157l82 -13v-129c-12 -4 -25.333 -7.33301 -40 -10s-29 -5 -43 -7s-27.167 -3.33301 -39.5 -4s-22.166 -1 -29.499 -1c-21.333 0 -39.666 2.16699 -54.999 6.5
s-28.833 10.833 -40.5 19.5s-22 19.667 -31 33s-17.5 29 -25.5 47l-75 173h-56z" />
    <glyph glyph-name="S" unicode="S" horiz-adv-x="730" 
d="M378 541c-27.333 0 -47.0029 -4.49512 -59.0029 -13.4951s-18 -20.167 -18 -33.5c0 -9.33301 4.83301 -17.333 14.5 -24s21.5 -12.667 35.5 -18s28.833 -10 44.5 -14s29.5 -7.33301 41.5 -10c33.333 -7.33301 65 -16.333 95 -27s56.333 -24.334 79 -41.001
s40.667 -36.834 54 -60.501s20 -52.167 20 -85.5c0 -35.333 -6.5 -67.166 -19.5 -95.499s-33.167 -52.333 -60.5 -72s-62.5 -34.834 -105.5 -45.501s-94.833 -16 -155.5 -16c-46 0 -94 3.66699 -144 11s-98 19.333 -144 36v205h162v-70
c8 -2.66699 17.333 -4.83398 28 -6.50098s21.334 -3 32.001 -4s20.334 -1.83301 29.001 -2.5s15.667 -1 21 -1c18.667 0 33.667 1.66699 45 5s20 7.16602 26 11.499s9.83301 9 11.5 14s2.5 9.5 2.5 13.5c0 11.333 -3.16699 20.166 -9.5 26.499s-14.833 11.166 -25.5 14.499
c-18.667 5.33301 -41.334 10.833 -68.001 16.5s-54 12.167 -82 19.5c-58.667 15.333 -103.834 39.5 -135.501 72.5s-47.5 74.5 -47.5 124.5c0 34 5.83301 65.333 17.5 94s30.334 53.334 56.001 74.001s58.5 36.667 98.5 48s88.333 17 145 17c20 0 41.667 -1 65 -3
s46.5 -5 69.5 -9s45.667 -9 68 -15s42.5 -13 60.5 -21v-193h-164v64c-13.333 5.33301 -28.166 9 -44.499 11s-29.166 3 -38.499 3z" />
    <glyph glyph-name="T" unicode="T" horiz-adv-x="759" 
d="M176 0v149h83v396h-78v-123h-161v271h719v-271h-161v123h-79v-396h81v-149h-404z" />
    <glyph glyph-name="U" unicode="U" horiz-adv-x="843" 
d="M750 264c0 -89.333 -25.666 -157.5 -76.999 -204.5s-134.666 -70.5 -249.999 -70.5c-61.333 0 -113 6.16699 -155 18.5s-76.333 30.333 -103 54s-45.834 52.5 -57.501 86.5s-17.5 72.667 -17.5 116v281h-55v148h346v-148h-53v-295c0 -36.667 8 -62.5 24 -77.5
s40.333 -22.5 73 -22.5c11.333 0 22.5 1.5 33.5 4.5s20.667 8.16699 29 15.5s15.166 17.5 20.499 30.5s8 29.5 8 49.5v295h-53v148h345v-148h-58v-281z" />
    <glyph glyph-name="V" unicode="V" horiz-adv-x="843" 
d="M488 377l54 167h-62v149h348v-149h-49l-201 -544h-307l-208 544h-48v149h359v-149h-59l54 -164l58 -189h4z" />
    <glyph glyph-name="W" unicode="W" horiz-adv-x="1228" 
d="M605 230l-30 -95l-44 -135h-304l-161 544h-52v149h365v-149h-50l36 -143l48 -204h4l56 200l28 90l-19 57h-52v149h354v-149h-62l49 -138l62 -179h3l43 190l31 127h-55v149h359v-149h-56l-165 -544h-308l-45 135l-30 95h-5z" />
    <glyph glyph-name="X" unicode="X" horiz-adv-x="823" 
d="M501 693h297v-149h-51l-173 -208l158 -186h65v-150h-417v150h38l-76 98l-76 -98h40v-150h-291v150h50l173 224l-134 168h-84v151h423v-151h-40l71 -88l69 90h-42v149z" />
    <glyph glyph-name="Y" unicode="Y" horiz-adv-x="799" 
d="M494 544h-55v149h345v-149h-49l-206 -316v-79h73v-149h-412v149h75v79l-202 316h-48v149h349v-149h-54l91 -161h4z" />
    <glyph glyph-name="Z" unicode="Z" horiz-adv-x="736" 
d="M344 149h200v144h162v-293h-675v147l340 399h-154v-125h-162v272h633v-140z" />
    <glyph glyph-name="bracketleft" unicode="[" horiz-adv-x="399" 
d="M77 -159v862h287v-122h-92v-628h92v-112h-287z" />
    <glyph glyph-name="backslash" unicode="\" horiz-adv-x="434" 
d="M-2 715h169l263 -756h-168z" />
    <glyph glyph-name="bracketright" unicode="]" horiz-adv-x="399" 
d="M48 -159v112h92v628h-92v122h287v-862h-287z" />
    <glyph glyph-name="asciicircum" unicode="^" horiz-adv-x="558" 
d="M382 316l-108 195l-109 -195h-148l206 360h99l208 -360h-148z" />
    <glyph glyph-name="underscore" unicode="_" horiz-adv-x="500" 
d="M0 -167v108h501v-108h-501z" />
    <glyph glyph-name="grave" unicode="`" horiz-adv-x="650" 
d="M145 688l96 120l190 -182l-65 -78z" />
    <glyph glyph-name="a" unicode="a" horiz-adv-x="650" 
d="M355 53c-14 -16 -29 -28.502 -45 -37.502s-31.333 -15.833 -46 -20.5s-28 -7.5 -40 -8.5s-21 -1.5 -27 -1.5c-34 0 -61.833 5 -83.5 15s-38.667 22.5 -51 37.5s-20.833 31 -25.5 48s-7 32.833 -7 47.5c0 10.667 1.33301 23.334 4 38.001s8.83398 28.834 18.501 42.501
s23.667 25.834 42 36.501s43.166 17.667 74.499 21l172 20v9c0 16 -4.5 28 -13.5 36s-26.167 12 -51.5 12c-12 0 -24.833 -0.5 -38.5 -1.5s-27.167 -2.33301 -40.5 -4s-26.166 -3.66699 -38.499 -6s-23.166 -4.83301 -32.499 -7.5l-33 137c15.333 6 32.666 11.667 51.999 17
s39.666 9.66602 60.999 12.999s43.166 6 65.499 8s43.833 3 64.5 3c34.667 0 66.167 -3 94.5 -9s52.333 -16.167 72 -30.5s34.834 -33.166 45.501 -56.499s16 -52 16 -86v-178h49l7 -132c-10 -5.33301 -21.667 -9.83301 -35 -13.5s-27.333 -6.83398 -42 -9.50098
s-29.167 -4.66699 -43.5 -6s-27.5 -2 -39.5 -2c-26 0 -48.833 4.5 -68.5 13.5s-31.167 27.167 -34.5 54.5zM298 195.998c-11.333 -2.66699 -18.5 -7.5 -21.5 -14.5s-4.5 -13.167 -4.5 -18.5c0 -12.667 2.33301 -23 7 -31s13.667 -12 27 -12c12.667 0 23.667 4.66699 33 14
v71z" />
    <glyph glyph-name="b" unicode="b" horiz-adv-x="716" 
d="M391 -12c-9.33301 0 -25.334 0.499023 -48.001 1.49902s-48.5 3.66699 -77.5 8s-59.833 10.666 -92.5 18.999s-63.667 19.833 -93 34.5v531h-55v142h292v-251c23.333 14 47.333 23.5 72 28.5s43.667 7.5 57 7.5c44 0 80.833 -6.5 110.5 -19.5s53.334 -31 71.001 -54
s30.167 -50.333 37.5 -82s11 -66.5 11 -104.5c0 -33.333 -3.83301 -65.666 -11.5 -96.999s-22 -59.166 -43 -83.499s-50 -43.833 -87 -58.5s-84.833 -22 -143.5 -22zM377.999 347.999c-9.33301 0 -18.999 -1.83691 -28.999 -5.50391s-20.333 -8.16699 -31 -13.5v-171
c11.333 -4.66699 22.5 -8 33.5 -10s20.167 -3 27.5 -3c6.66699 0 13.667 0.666992 21 2s14.166 5.33301 20.499 12s11.5 16.834 15.5 30.501s6 32.834 6 57.501s-2.16699 43.834 -6.5 57.501s-9.83301 23.834 -16.5 30.501s-13.667 10.5 -21 11.5s-14 1.5 -20 1.5z" />
    <glyph glyph-name="c" unicode="c" horiz-adv-x="563" 
d="M279 254c0 -22.667 2.33398 -40.6699 7.00098 -54.0029s11.334 -23.666 20.001 -30.999s18.667 -12.166 30 -14.499s24 -3.5 38 -3.5c9.33301 0 19.666 0.666992 30.999 2s22.666 2.83301 33.999 4.5s22 3.5 32 5.5s18.667 3.66699 26 5l36 -142
c-29.333 -13.333 -62.333 -23.166 -99 -29.499s-73 -9.5 -109 -9.5c-58.667 0 -106.5 7.33301 -143.5 22s-66 34.167 -87 58.5s-35.333 52 -43 83s-11.5 62.5 -11.5 94.5c0 33.333 4.16699 65.666 12.5 96.999s23.333 59.333 45 84s51.5 44.334 89.5 59.001
s86.667 22 146 22c28 0 57.167 -1.83301 87.5 -5.5s59.5 -10.167 87.5 -19.5l-1 -181h-148v49c-16 1.33301 -29.167 -0.166992 -39.5 -4.5s-18.5 -10.833 -24.5 -19.5s-10.167 -19.167 -12.5 -31.5s-3.5 -25.833 -3.5 -40.5z" />
    <glyph glyph-name="d" unicode="d" horiz-adv-x="722" 
d="M411 39c-12 -10 -25.1641 -18.167 -39.4971 -24.5s-28.333 -11.5 -42 -15.5s-26.334 -6.66699 -38.001 -8s-20.834 -2 -27.501 -2c-43.333 0 -79.333 6.33301 -108 19s-51.667 30 -69 52s-29.5 48 -36.5 78s-10.5 62.333 -10.5 97c0 39.333 4 75.833 12 109.5
s21 62.667 39 87s41.667 43.333 71 57s65.666 20.5 108.999 20.5c6.66699 0 15.167 -0.5 25.5 -1.5s21.5 -2.5 33.5 -4.5s24.167 -4.5 36.5 -7.5s23.5 -6.5 33.5 -10.5v97h-61v142h298v-580h55v-144h-278v38zM336.003 348c-5.33301 0 -11.3311 -0.664062 -17.998 -1.99707
s-13.334 -5.33301 -20.001 -12s-12.167 -17.334 -16.5 -32.001s-6.5 -35.334 -6.5 -62.001c0 -22.667 2 -40.334 6 -53.001s9.16699 -22 15.5 -28s13.166 -9.5 20.499 -10.5s14.333 -1.5 21 -1.5c7.33301 0 16.5 1.5 27.5 4.5s22.167 7.5 33.5 13.5v167
c-12.667 6 -24 10.167 -34 12.5s-19.667 3.5 -29 3.5z" />
    <glyph glyph-name="e" unicode="e" horiz-adv-x="612" 
d="M323 356c-16 0 -27.334 -6.16699 -34.001 -18.5s-10 -27.5 -10 -45.5h83c0 19.333 -2.66699 34.833 -8 46.5s-15.666 17.5 -30.999 17.5zM319.999 508c48 0 88.167 -6.66797 120.5 -20.001s58.333 -31.5 78 -54.5s33.5 -49.5 41.5 -79.5s12 -61.667 12 -95v-33h-296
c0 -15.333 2 -28 6 -38s10 -17.833 18 -23.5s18 -9.5 30 -11.5s25.667 -3 41 -3c22 0 46.5 2.5 73.5 7.5s51.5 10.833 73.5 17.5l43 -135c-18.667 -10 -38.334 -18.333 -59.001 -25s-41.5 -12 -62.5 -16s-41.5 -6.83301 -61.5 -8.5s-38.667 -2.5 -56 -2.5
c-58 0 -105.167 7.33301 -141.5 22s-65 34 -86 58s-35.333 51.5 -43 82.5s-11.5 62.833 -11.5 95.5c0 36 5 69.833 15 101.5s26.167 59.334 48.5 83.001s51.333 42.5 87 56.5s78.834 21 129.501 21z" />
    <glyph glyph-name="f" unicode="f" horiz-adv-x="542" 
d="M53 143l56.002 0.000976562v210h-74v125l75 23v37c0 22 2 44.5 6 67.5s13.833 44 29.5 63s38.667 34.667 69 47s72.166 18.5 125.499 18.5c10.667 0 23.5 -0.5 38.5 -1.5s30.833 -2.5 47.5 -4.5s33.667 -4.66699 51 -8s34 -7.33301 50 -12l-32 -155
c-16.667 3.33301 -33.834 6 -51.501 8s-32.5 3 -44.5 3c-18 0 -32.333 -2.83301 -43 -8.5s-16 -15.834 -16 -30.501v-31h139v-141h-139v-210h69v-143h-356v143z" />
    <glyph glyph-name="g" unicode="g" horiz-adv-x="685" 
d="M590 394c4.66699 -10 8.49902 -22.6719 11.499 -38.0049s4.5 -27 4.5 -35c0 -30.667 -7.16699 -57 -21.5 -79s-33.5 -40.333 -57.5 -55s-51.667 -25.5 -83 -32.5s-64 -10.833 -98 -11.5l-62 -1c-12 0 -21 -2.66699 -27 -8s-9 -11.333 -9 -18c0 -4 1.5 -7.5 4.5 -10.5
s9.16699 -4.5 18.5 -4.5h163c32 0 61.5 -2 88.5 -6s50.333 -11.333 70 -22s35 -24.834 46 -42.501s16.5 -40.167 16.5 -67.5c0 -20 -4.66699 -41 -14 -63s-27.166 -42 -53.499 -60s-62.833 -32.833 -109.5 -44.5s-107.334 -17.5 -182.001 -17.5
c-51.333 0 -93.833 3.33301 -127.5 10s-60.334 15.334 -80.001 26.001s-33.5 22.834 -41.5 36.501s-12 27.834 -12 42.501c0 49.333 20.667 87 62 113c-15.333 6 -27.333 15.833 -36 29.5s-13 28.834 -13 45.501c0 18.667 6.33301 37.334 19 56.001s33.334 34 62.001 46
c-22.667 9.33301 -40.334 25.333 -53.001 48s-19 50 -19 82c0 34 7.5 63.167 22.5 87.5s35.167 44.333 60.5 60s54.5 27.167 87.5 34.5s67.833 11 104.5 11c24.667 0 47.834 -1.16699 69.501 -3.5s38.834 -5.16602 51.501 -8.49902h200v-95h-57zM284.999 -23.0049
c-7.33301 -4 -12.333 -8.16895 -15 -12.502s-4 -8.16602 -4 -11.499c0 -18.667 21 -28 63 -28c22 0 40.833 2.83301 56.5 8.5s23.5 12.834 23.5 21.501c0 9.33301 -3.33301 15.333 -10 18s-14 4 -22 4h-92zM367.999 322.993c0 27.333 -12.665 41 -37.998 41
c-12.667 0 -21.834 -4.5 -27.501 -13.5s-8.5 -18.833 -8.5 -29.5c0 -25.333 12.667 -38 38 -38c9.33301 0 17.666 3 24.999 9s11 16.333 11 31z" />
    <glyph glyph-name="h" unicode="h" horiz-adv-x="737" 
d="M650 153h57.001v-139c-23.333 -9.33301 -47.833 -16.333 -73.5 -21s-50.167 -7 -73.5 -7c-28.667 0 -52.5 2.83301 -71.5 8.5s-34.167 14 -45.5 25s-19.333 24.5 -24 40.5s-7 34.333 -7 55v159c0 21.333 -4.5 36.333 -13.5 45s-21.167 13 -36.5 13
c-6.66699 0 -14.334 -1.83301 -23.001 -5.5s-16.667 -9.16699 -24 -16.5v-310h-239v582h-56v142h295v-273c48 38 98.667 57 152 57c122 0 183 -61.667 183 -185v-170z" />
    <glyph glyph-name="i" unicode="i" horiz-adv-x="434" 
d="M40 352v143h287v-342h67v-139c-23.333 -9.33301 -49.5 -16.333 -78.5 -21s-55.167 -7 -78.5 -7c-28.667 0 -52.5 2.83301 -71.5 8.5s-34.167 14 -45.5 25s-19.333 24.5 -24 40.5s-7 34.333 -7 55v237h-49zM333 670c0 -18 -3.5 -34.833 -10.5 -50.5
s-16.5 -29.334 -28.5 -41.001s-25.833 -20.834 -41.5 -27.501s-32.167 -10 -49.5 -10c-18 0 -34.833 3.33301 -50.5 10s-29.167 15.834 -40.5 27.501s-20.333 25.334 -27 41.001s-10 32.5 -10 50.5s3.33301 34.833 10 50.5s15.667 29.334 27 41.001
s24.833 20.834 40.5 27.501s32.5 10 50.5 10c17.333 0 33.833 -3.33301 49.5 -10s29.5 -15.834 41.5 -27.501s21.5 -25.334 28.5 -41.001s10.5 -32.5 10.5 -50.5z" />
    <glyph glyph-name="j" unicode="j" horiz-adv-x="412" 
d="M44 495l288 -0.00195312v-385c0 -54.667 -6 -102 -18 -142s-30.667 -74 -56 -102s-57.5 -50.5 -96.5 -67.5s-85.5 -29.833 -139.5 -38.5l-54 139c28.667 16.667 51.334 31.167 68.001 43.5s29.167 25.833 37.5 40.5s13.666 31.834 15.999 51.501s3.5 44.834 3.5 75.501
v242h-49v143zM338 669.998c0 -18 -3.5 -34.833 -10.5 -50.5s-16.5 -29.334 -28.5 -41.001s-25.833 -20.834 -41.5 -27.501s-32.167 -10 -49.5 -10c-18 0 -34.833 3.33301 -50.5 10s-29.167 15.834 -40.5 27.501s-20.333 25.334 -27 41.001s-10 32.5 -10 50.5
s3.33301 34.833 10 50.5s15.667 29.334 27 41.001s24.833 20.834 40.5 27.501s32.5 10 50.5 10c17.333 0 33.833 -3.33301 49.5 -10s29.5 -15.834 41.5 -27.501s21.5 -25.334 28.5 -41.001s10.5 -32.5 10.5 -50.5z" />
    <glyph glyph-name="k" unicode="k" horiz-adv-x="722" 
d="M544 306l90 -162.001l57 -12v-124c-10 -3.33301 -21 -6.16602 -33 -8.49902s-24 -4.33301 -36 -6s-23.333 -3 -34 -4s-19.667 -1.5 -27 -1.5c-17.333 -0.666992 -32.5 -0.166992 -45.5 1.5s-24.5 5 -34.5 10s-18.833 12 -26.5 21s-14.5 20.167 -20.5 33.5l-64 139
l-41 -27v-23h34v-143h-327v143h53v437h-54v142h294v-384l60 44v112h277v-141h-48z" />
    <glyph glyph-name="l" unicode="l" horiz-adv-x="435" 
d="M336 143h59v-143h-355v143h58v439h-58v142h296v-581z" />
    <glyph glyph-name="m" unicode="m" horiz-adv-x="1041" 
d="M716 294c0 15.333 -2.83105 25.501 -8.49805 30.501s-13.167 7.5 -22.5 7.5c-7.33301 0 -15.333 -2.16699 -24 -6.5s-16.334 -9.5 -23.001 -15.5v-310h-234l-1 293c0 11.333 -2.16699 20.666 -6.5 27.999s-12.5 11 -24.5 11c-5.33301 0 -12.333 -1.83301 -21 -5.5
s-17.334 -9.16699 -26.001 -16.5v-310h-239v354h-56v142h286v-50h4c26.667 22 55.334 37.833 86.001 47.5s57 14.5 79 14.5c37.333 0 65.5 -6.33301 84.5 -19s34.5 -31.667 46.5 -57c25.333 25.333 53.666 44.333 84.999 57s59.333 19 84 19
c59.333 0 102.333 -15.5 129 -46.5s40 -77.167 40 -138.5v-170h57v-139c-23.333 -9.33301 -47.833 -16.333 -73.5 -21s-50.167 -7 -73.5 -7c-28.667 0 -52.5 2.83301 -71.5 8.5s-34.167 14 -45.5 25s-19.333 24.5 -24 40.5s-7 34.333 -7 55v179z" />
    <glyph glyph-name="n" unicode="n" horiz-adv-x="747" 
d="M477 508c122 0 183.003 -61.666 183.003 -184.999v-170h57v-139c-23.333 -9.33301 -47.833 -16.333 -73.5 -21s-50.167 -7 -73.5 -7c-28.667 0 -52.5 2.83301 -71.5 8.5s-34.167 14 -45.5 25s-19.333 24.5 -24 40.5s-7 34.333 -7 55v159c0 21.333 -4.5 36.333 -13.5 45
s-21.167 13 -36.5 13c-6.66699 0 -14.334 -1.83301 -23.001 -5.5s-16.667 -9.16699 -24 -16.5v-310h-239v354h-56v142h289v-43l6 -2c23.333 17.333 48.166 31.166 74.499 41.499s52.166 15.5 77.499 15.5z" />
    <glyph glyph-name="o" unicode="o" horiz-adv-x="681" 
d="M641 249c0 -38.667 -6.33301 -73.834 -19 -105.501s-31.667 -59 -57 -82s-56.666 -40.833 -93.999 -53.5s-81 -19 -131 -19s-93.833 6.33301 -131.5 19s-69 30.5 -94 53.5s-43.667 50.333 -56 82s-18.5 66.834 -18.5 105.501c0 38 6.16699 72.833 18.5 104.5
s31 58.667 56 81s56.333 39.833 94 52.5s81.5 19 131.5 19s93.667 -6.33301 131 -19s68.666 -30.167 93.999 -52.5s44.333 -49.333 57 -81s19 -66.5 19 -104.5zM398 249c0 30 -4 54.166 -12 72.499s-23.333 27.5 -46 27.5c-11.333 0 -20.666 -2.66699 -27.999 -8
s-13.333 -12.666 -18 -21.999s-7.83398 -20 -9.50098 -32s-2.5 -24.667 -2.5 -38c0 -31.333 4 -56.833 12 -76.5s23.333 -29.5 46 -29.5s38 9.5 46 28.5s12 44.833 12 77.5z" />
    <glyph glyph-name="p" unicode="p" horiz-adv-x="723" 
d="M30 -71h55.999v422h-55v143h278v-38l3 -1c12 10 25.167 18.167 39.5 24.5s28.333 11.5 42 15.5s26.334 6.66699 38.001 8s20.834 2 27.501 2c43.333 0 79.333 -6.33301 108 -19s51.667 -30 69 -52s29.5 -48 36.5 -78s10.5 -62.333 10.5 -97
c0 -39.333 -4 -75.5 -12 -108.5s-21 -61.333 -39 -85s-41.833 -42.167 -71.5 -55.5s-65.834 -20 -108.501 -20c-6.66699 0 -15.167 0.5 -25.5 1.5s-21.5 2.5 -33.5 4.5s-24.167 4.5 -36.5 7.5s-23.5 6.5 -33.5 10.5v-85h57v-142h-350v142zM386.999 151
c4.66699 0 10.499 0.999023 17.499 2.99902s13.833 6.5 20.5 13.5s12.167 17.333 16.5 31s6.5 32.167 6.5 55.5c0 22.667 -2 40.334 -6 53.001s-9.16699 22 -15.5 28s-13.166 9.5 -20.499 10.5s-14.333 1.5 -21 1.5c-7.33301 0 -16.5 -1.5 -27.5 -4.5
s-22.167 -7.5 -33.5 -13.5v-162c12.667 -6 24 -10.167 34 -12.5s19.667 -3.5 29 -3.5z" />
    <glyph glyph-name="q" unicode="q" horiz-adv-x="706" 
d="M345 -69l53.999 -0.000976562v92c-23.333 -14 -47.333 -23.5 -72 -28.5s-43.667 -7.5 -57 -7.5c-40 0 -74.5 5.5 -103.5 16.5s-52.833 26.667 -71.5 47s-32.5 45 -41.5 74s-13.5 61.167 -13.5 96.5c0 36.667 4.33301 72.167 13 106.5s24.5 64.833 47.5 91.5
s54.5 48.167 94.5 64.5s91.333 24.5 154 24.5c9.33301 0 24.5 -0.5 45.5 -1.5s44.833 -3.33301 71.5 -7s54.834 -9.16699 84.501 -16.5s58.167 -17.666 85.5 -30.999v-521h55v-144h-346v144zM337.999 147.999c17.333 0 37.332 5.66602 59.999 16.999v175l-21 5
c-8.66699 2 -17.667 3 -27 3s-18.5 -1.33301 -27.5 -4s-17.167 -7.66699 -24.5 -15s-13.166 -17.5 -17.499 -30.5s-6.5 -29.5 -6.5 -49.5c0 -25.333 2.16699 -44.666 6.5 -57.999s9.83301 -23.333 16.5 -30s13.667 -10.5 21 -11.5s14 -1.5 20 -1.5z" />
    <glyph glyph-name="r" unicode="r" horiz-adv-x="584" 
d="M331 414c12 10 25.667 20.167 41 30.5s31.5 20 48.5 29s34.5 16.333 52.5 22s35.667 8.5 53 8.5c19.333 0 32.166 -5 38.499 -15s9.5 -26 9.5 -48c0 -12.667 -1.16699 -26.667 -3.5 -42s-6.16602 -31 -11.499 -47s-12.333 -31.5 -21 -46.5s-19 -28.167 -31 -39.5l-179 42
v-165h52v-143h-340v143h52v210h-48v143h281v-79z" />
    <glyph glyph-name="s" unicode="s" horiz-adv-x="604" 
d="M298 509c18 0 36.8291 -0.835938 56.4961 -2.50293s39.334 -4.16699 59.001 -7.5s38.834 -7.66602 57.501 -12.999s36 -11.333 52 -18v-143h-156v39c-13.333 3.33301 -29 5 -47 5c-12.667 0 -23.667 -1.83301 -33 -5.5s-14 -10.167 -14 -19.5
c0 -8.66699 7.33301 -15.5 22 -20.5s32.834 -10 54.501 -15s45.334 -10.833 71.001 -17.5s49.334 -16 71.001 -28s39.834 -27.5 54.501 -46.5s22 -43.167 22 -72.5c0 -24 -4.83301 -45.667 -14.5 -65s-25.5 -35.666 -47.5 -48.999s-50.667 -23.666 -86 -30.999
s-78.333 -11 -129 -11c-37.333 0 -78.333 2.83301 -123 8.5s-88.334 17.167 -131.001 34.5v149h160v-39c5.33301 -3.33301 15.166 -6 29.499 -8s28.833 -3 43.5 -3c14 0 26.167 1.33301 36.5 4s15.5 7.66699 15.5 15c0 8.66699 -3 14.5 -9 17.5s-17 6.5 -33 10.5
c-31.333 8 -61.833 16.5 -91.5 25.5s-56 19.833 -79 32.5s-41.5 27.667 -55.5 45s-21 38.333 -21 63c0 24 4.83301 46.167 14.5 66.5s25.167 37.833 46.5 52.5s48.833 26.167 82.5 34.5s74.167 12.5 121.5 12.5z" />
    <glyph glyph-name="t" unicode="t" horiz-adv-x="509" 
d="M312 651l-0.000976562 -156.005h136v-142h-136v-120c0 -17.333 1.16699 -30.833 3.5 -40.5s6.33301 -17.167 12 -22.5s12.834 -8.66602 21.501 -9.99902s19.334 -2 32.001 -2c5.33301 0 14.833 0.666992 28.5 2s27.834 3 42.501 5l24 -149
c-12.667 -5.33301 -26.334 -9.66602 -41.001 -12.999s-29.334 -6.33301 -44.001 -9s-29 -4.5 -43 -5.5s-26.333 -1.5 -37 -1.5c-54 0 -96.5 6.33301 -127.5 19s-54.333 28.334 -70 47.001s-25.5 38.834 -29.5 60.501s-6 41.834 -6 60.501v179h-67v126l84 25l52 135z" />
    <glyph glyph-name="u" unicode="u" horiz-adv-x="735" 
d="M369 496h279v-343h57v-140c-36 -12 -66.833 -19.5 -92.5 -22.5s-46.167 -4.5 -61.5 -4.5c-43.333 0 -74.166 7.16699 -92.499 21.5s-30.166 32.833 -35.499 55.5c-21.333 -21.333 -45.333 -39.5 -72 -54.5s-58 -22.5 -94 -22.5c-24.667 0 -47.334 3.33301 -68.001 10
s-38.5 17 -53.5 31s-26.833 32 -35.5 54s-13 48.333 -13 79v192h-57v143h295v-276c0 -19.333 3.16699 -32.833 9.5 -40.5s17.166 -11.5 32.499 -11.5c3.33301 0 9.5 1.66699 18.5 5s17.167 9.33301 24.5 18v163h-41v143z" />
    <glyph glyph-name="v" unicode="v" horiz-adv-x="737" 
d="M378 169l34 106l29 77h-24v143h308v-143h-46l-155 -352h-311l-143 328h-60v167h248l77 -217l39 -109h4z" />
    <glyph glyph-name="w" unicode="w" horiz-adv-x="1016" 
d="M696 160l29 96l33 97h-36v142h288v-142h-39l-124 -353h-293l-24 63l-28 81h-3l-26 -82l-23 -62h-283l-114 328h-46v167h223l65 -224l33 -111h6l32 109l22 69l-6 14h-47v143h317v-143h-33l38 -103l34 -89h5z" />
    <glyph glyph-name="x" unicode="x" horiz-adv-x="702" 
d="M44 352h-1v142h327v-142l44 -41l42 41h-26v142h234l1 -142h-32l-120 -126l89 -84h61v-142h-367v142h29l-50 49l-46 -49h26v-142h-225v142h36l115 131l-80 73h-57v6z" />
    <glyph glyph-name="y" unicode="y" horiz-adv-x="705" 
d="M451 -126c-6 -14 -12.832 -27.167 -20.499 -39.5s-17.167 -23 -28.5 -32s-25 -16 -41 -21s-35 -7.5 -57 -7.5c-7.33301 0 -18.5 0.5 -33.5 1.5s-31.5 2.83301 -49.5 5.5s-36.833 6.16699 -56.5 10.5s-37.834 9.5 -54.501 15.5l25 147c14.667 -2 28 -3.66699 40 -5
s22.667 -2 32 -2c20 0 35.833 3.66699 47.5 11s21.167 21.333 28.5 42l9 26h-112l-116 311h-49v158h229l67 -230l32 -119h4l39 128l24 78h-40v143h315v-143h-42z" />
    <glyph glyph-name="z" unicode="z" horiz-adv-x="623" 
d="M328 130h108v68h147v-198h-543v117l239 248h-84v-65h-148v195h521v-113z" />
    <glyph glyph-name="braceleft" unicode="{" horiz-adv-x="426" 
d="M273 -163c-22.667 0 -43.6689 4.00195 -63.002 12.002s-36.166 19.167 -50.499 33.5s-25.666 31.166 -33.999 50.499s-12.5 40.333 -12.5 63v145c0 25.333 -6.16699 43.666 -18.5 54.999s-29.5 17 -51.5 17h-8v120h8c22 0 39.167 5.5 51.5 16.5s18.5 29.167 18.5 54.5
v144c0 22.667 3.5 43.667 10.5 63s17.167 36 30.5 50s30 25 50 33s43 12 69 12h139v-120h-34c-14.667 0 -26.334 -1.83301 -35.001 -5.5s-15.334 -8.5 -20.001 -14.5s-7.83398 -13 -9.50098 -21s-2.5 -16 -2.5 -24v-150c0 -26.667 -8 -47.834 -24 -63.501
s-36.333 -25.5 -61 -29.5v-4c30 -4 51.667 -15.667 65 -35s20 -41.666 20 -66.999v-154c0 -8.66699 0.833008 -17 2.5 -25s4.83398 -15 9.50098 -21s11.334 -10.833 20.001 -14.5s20.334 -5.5 35.001 -5.5h34v-115h-139z" />
    <glyph glyph-name="bar" unicode="|" horiz-adv-x="426" 
d="M136 -158v877h157v-877h-157z" />
    <glyph glyph-name="braceright" unicode="}" horiz-adv-x="426" 
d="M21 -163l-0.00195312 114.998h34c14.667 0 26.334 1.83301 35.001 5.5s15.334 8.5 20.001 14.5s7.83398 13 9.50098 21s2.5 16.333 2.5 25v154c0 25.333 6.66699 47.666 20 66.999s35 31 65 35v4c-24.667 4 -45 13.833 -61 29.5s-24 36.834 -24 63.501v150
c0 8 -0.833008 16 -2.5 24s-4.83398 15 -9.50098 21s-11.334 10.833 -20.001 14.5s-20.334 5.5 -35.001 5.5h-34v120h139c26 0 49 -4 69 -12s36.667 -19 50 -33s23.5 -30.667 30.5 -50s10.5 -40.333 10.5 -63v-144c0 -25.333 6.16699 -43.5 18.5 -54.5
s29.5 -16.5 51.5 -16.5h8v-120h-8c-22 0 -39.167 -5.66699 -51.5 -17s-18.5 -29.666 -18.5 -54.999v-145c0 -22.667 -4.16699 -43.667 -12.5 -63s-19.666 -36.166 -33.999 -50.499s-31.166 -25.5 -50.499 -33.5s-40.333 -12 -63 -12h-139z" />
    <glyph glyph-name="asciitilde" unicode="~" horiz-adv-x="662" 
d="M461 203c-23.333 0 -47.499 2.33203 -72.499 6.99902s-49.167 9.83398 -72.5 15.501l-65.5 15.5c-20.333 4.66699 -37.833 7 -52.5 7l-65 -46l-74 54c10 28 20.833 51.167 32.5 69.5s24 33 37 44s26.667 18.667 41 23s29.166 6.5 44.499 6.5
c20.667 0 42.167 -2.16699 64.5 -6.5s44.5 -9.33301 66.5 -15s43.833 -10.667 65.5 -15s42.5 -6.5 62.5 -6.5l66 48l73 -54c-17.333 -50 -38 -87 -62 -111s-53.667 -36 -89 -36z" />
    <glyph glyph-name="exclamdown" unicode="&#xa1;" horiz-adv-x="377" 
d="M81 -231v213l20 277h175l20 -277v-213h-215zM189 299c-16.667 0 -31.667 2.83301 -45 8.5s-24.833 13.167 -34.5 22.5s-17.167 20.333 -22.5 33s-8 26 -8 40c0 13.333 2.5 26.166 7.5 38.499s12.167 23.166 21.5 32.499s20.833 16.833 34.5 22.5s29.167 8.5 46.5 8.5
c16.667 0 31.667 -2.83301 45 -8.5s24.833 -13.167 34.5 -22.5s17.167 -20.166 22.5 -32.499s8 -25.166 8 -38.499c0 -29.333 -9.83301 -54 -29.5 -74s-46.5 -30 -80.5 -30z" />
    <glyph glyph-name="cent" unicode="&#xa2;" horiz-adv-x="563" 
d="M279 254c0 -22.667 2.33301 -40.6689 7 -54.002s11.334 -23.666 20.001 -30.999s18.667 -12.166 30 -14.499s24 -3.5 38 -3.5c9.33301 0 19.666 0.666992 30.999 2s22.666 2.83301 33.999 4.5s22 3.5 32 5.5s18.667 3.66699 26 5l36 -142
c-18.667 -9.33301 -39.167 -16.5 -61.5 -21.5s-45.166 -9.16699 -68.499 -12.5v-124h-157v125c-42 6.66699 -76.333 18.167 -103 34.5s-47.667 36 -63 59s-25.833 48.167 -31.5 75.5s-8.5 55 -8.5 83c0 28.667 3 56.667 9 84s16.667 52.5 32 75.5s36.333 42.833 63 59.5
s60.667 28.667 102 36v115h157v-112c37.333 -3.33301 72.333 -10.333 105 -21l-1 -181h-148v49c-16 1.33301 -29.167 -0.166992 -39.5 -4.5s-18.5 -10.833 -24.5 -19.5s-10.167 -19.167 -12.5 -31.5s-3.5 -25.833 -3.5 -40.5z" />
    <glyph glyph-name="sterling" unicode="&#xa3;" horiz-adv-x="662" 
d="M120 387l6.00098 68.999c14 158.667 100.667 238 260 238c48 0 88.833 -4.66699 122.5 -14s63.167 -19 88.5 -29v-187h-152v62c-16 4 -30.333 6 -43 6c-18 0 -32.667 -6.16699 -44 -18.5s-18.333 -35.166 -21 -68.499l-5 -58h110v-99h-119l-2 -25
c-2 -25.333 -6.33301 -48 -13 -68s-18 -38.333 -34 -55h318v-140h-546l1 140c12 12 21.667 23.333 29 34s13.333 21.334 18 32.001s8.16699 21.667 10.5 33s4.16602 23.666 5.49902 36.999l1 12h-54v99h63z" />
    <glyph glyph-name="currency" unicode="&#xa4;" horiz-adv-x="606" 
d="M214 305c0 -24 8.5 -44.501 25.5 -61.501s37.5 -25.5 61.5 -25.5c24.667 0 45.667 8.33301 63 25s26 37.334 26 62.001c0 12 -2.16699 23.333 -6.5 34s-10.5 20.167 -18.5 28.5s-17.5 14.833 -28.5 19.5s-22.833 7 -35.5 7c-24 0 -44.5 -8.66699 -61.5 -26
s-25.5 -38.333 -25.5 -63zM42 472.999l91.0039 93.0049l66 -66c15.333 7.33301 32 13.166 50 17.499s35.667 6.5 53 6.5s35.166 -2 53.499 -6s35.5 -10.667 51.5 -20l64 68l92 -93l-66 -66c7.33301 -15.333 13.166 -31.833 17.499 -49.5s6.5 -35.167 6.5 -52.5
c0 -16.667 -2.33301 -34 -7 -52s-10.667 -34.667 -18 -50l67 -64l-92 -93l-66 66c-30.667 -16.667 -65 -25 -103 -25s-72.333 8.33301 -103 25l-66 -66l-91 93l66 65c-8.66699 15.333 -14.834 31.666 -18.501 48.999s-5.5 34.666 -5.5 51.999s2.16699 34.666 6.5 51.999
s10.166 33.666 17.499 48.999z" />
    <glyph glyph-name="yen" unicode="&#xa5;" horiz-adv-x="662" 
d="M58 326v69h56l-57 133h-42v145h304v-145h-45l60 -159h3l58 159h-46v145h300v-145h-42l-58 -133h61v-69h-552zM610 288v-68h-164l-1 -3v-73h64v-144h-359v144h66v73l-2 3h-156v68h552z" />
    <glyph glyph-name="brokenbar" unicode="&#xa6;" horiz-adv-x="426" 
d="M136 365v354h157v-354h-157zM293 232v-390h-157v390h157z" />
    <glyph glyph-name="section" unicode="&#xa7;" horiz-adv-x="614" 
d="M384 594c-14.667 3.33301 -25.6631 5.33594 -32.9961 6.00293s-13.333 1 -18 1c-22 -0.666992 -37.833 -5.16699 -47.5 -13.5s-14.5 -18.5 -14.5 -30.5c0 -6.66699 5 -13.667 15 -21s21.833 -14.333 35.5 -21s27.167 -12.667 40.5 -18s23.333 -9 30 -11
c20.667 -7.33301 40.5 -15.166 59.5 -23.499s35.833 -18.333 50.5 -30s26.5 -25.334 35.5 -41.001s13.5 -34.834 13.5 -57.501c0 -28.667 -5.66699 -53.334 -17 -74.001s-26.666 -38 -45.999 -52c23.333 -16 42.166 -34.5 56.499 -55.5s21.5 -43.167 21.5 -66.5
c0 -24.667 -5.16699 -48 -15.5 -70s-26.833 -41.167 -49.5 -57.5s-51.5 -29.166 -86.5 -38.499s-76.833 -14 -125.5 -14c-38.667 0 -74.834 3.33301 -108.501 10s-63.834 15 -90.501 25v165h141l-1 -62l24.5 -6.5c9 -2.33301 19.5 -3.5 31.5 -3.5
c29.333 0 49.333 3.16699 60 9.5s16 15.5 16 27.5c0 4 -0.666992 7.83301 -2 11.5s-4.83301 7.66699 -10.5 12s-14.167 9.16602 -25.5 14.499s-27 11.333 -47 18c-26 8.66699 -51.333 18 -76 28s-46.334 21.667 -65.001 35s-33.667 28.833 -45 46.5s-17 39.167 -17 64.5
c0 29.333 5.66699 54.333 17 75s27.333 38.667 48 54c-16 11.333 -30.167 26 -42.5 44s-18.5 42 -18.5 72c0 31.333 7 58 21 80s32.833 40 56.5 54s51.167 24.167 82.5 30.5s64.666 9.5 99.999 9.5c18 0 36.167 -1 54.5 -3s36 -4.66699 53 -8s32.5 -7.33301 46.5 -12
s25.667 -9.33398 35 -14.001v-159h-143v70zM365.004 263.003c6 4.66699 10.666 10.498 13.999 17.498s5 14.167 5 21.5c0 9.33301 -9.66699 19.833 -29 31.5s-48.666 24.167 -87.999 37.5c-9.33301 -6 -15.333 -12.667 -18 -20s-4 -14.666 -4 -21.999
c0 -10.667 5.5 -19.167 16.5 -25.5s29.167 -14.166 54.5 -23.499z" />
    <glyph glyph-name="dieresis" unicode="&#xa8;" horiz-adv-x="650" 
d="M529 649c0 -27.333 -9.16699 -50.333 -27.5 -69s-41.166 -28 -68.499 -28c-28 0 -51.333 9.33301 -70 28s-28 41.667 -28 69c0 14 2.5 27 7.5 39s12 22.333 21 31s19.333 15.5 31 20.5s24.5 7.5 38.5 7.5c27.333 0 50.166 -9.33301 68.499 -28s27.5 -42 27.5 -70z
M301 649c0 -13.333 -2.5 -26 -7.5 -38s-12 -22.333 -21 -31s-19.333 -15.5 -31 -20.5s-24.167 -7.5 -37.5 -7.5c-27.333 0 -50.333 9.33301 -69 28s-28 41.667 -28 69c0 14 2.5 27 7.5 39s11.833 22.333 20.5 31s19 15.5 31 20.5s24.667 7.5 38 7.5s25.833 -2.5 37.5 -7.5
s22 -11.833 31 -20.5s16 -19 21 -31s7.5 -25 7.5 -39z" />
    <glyph glyph-name="copyright" unicode="&#xa9;" horiz-adv-x="898" 
d="M847 326c0 -55.333 -10.5 -107.5 -31.5 -156.5s-49.833 -91.667 -86.5 -128s-79.334 -65 -128.001 -86s-100.334 -31.5 -155.001 -31.5c-55.333 0 -107.5 10.5 -156.5 31.5s-91.833 49.667 -128.5 86s-65.667 79 -87 128s-32 101.167 -32 156.5s10.667 107.333 32 156
s50.333 91.167 87 127.5s79.5 65 128.5 86s101.167 31.5 156.5 31.5c54.667 0 106.334 -10.5 155.001 -31.5s91.334 -49.667 128.001 -86s65.5 -78.833 86.5 -127.5s31.5 -100.667 31.5 -156zM761 326c0 43.333 -8.33301 84.166 -25 122.499s-39.167 71.833 -67.5 100.5
s-61.666 51.334 -99.999 68.001s-79.166 25 -122.499 25s-84.333 -8.33301 -123 -25s-72.334 -39.334 -101.001 -68.001s-51.334 -62.167 -68.001 -100.5s-25 -79.166 -25 -122.499s8.33301 -84.166 25 -122.499s39.334 -71.666 68.001 -99.999
s62.334 -50.833 101.001 -67.5s79.667 -25 123 -25s84.166 8.33301 122.499 25s71.666 39.167 99.999 67.5s50.833 61.666 67.5 99.999s25 79.166 25 122.499zM381 324c0 -27.333 3.16602 -48.6699 9.49902 -64.0029s15 -26.833 26 -34.5s23.667 -12.5 38 -14.5
s29.5 -3 45.5 -3c4.66699 0 11.167 0.166992 19.5 0.5s17.166 1 26.499 2s18.833 2.16699 28.5 3.5s17.834 2.66602 24.501 3.99902l21 -105c-24 -9.33301 -51 -16 -81 -20s-58 -6 -84 -6c-49.333 0 -89.666 6.66699 -120.999 20s-55.833 30.833 -73.5 52.5
s-29.834 46.334 -36.501 74.001s-10 55.834 -10 84.501c0 30 4 59.167 12 87.5s21.833 53.5 41.5 75.5s46.334 39.667 80.001 53s76.5 20 128.5 20c23.333 0 45.333 -1.66699 66 -5s41.667 -7.66602 63 -12.999v-156h-100v57c-2.66699 0.666992 -6.66699 1 -12 1h-12
c-36 0 -61.667 -9.66699 -77 -29s-23 -47.666 -23 -84.999z" />
    <glyph glyph-name="ordfeminine" unicode="&#xaa;" horiz-adv-x="448" 
d="M391 373l32.9961 0.00488281l5 -90c-7.33301 -3.33301 -15.666 -6.33301 -24.999 -9s-19.166 -4.83398 -29.499 -6.50098s-20.666 -3 -30.999 -4s-19.5 -1.5 -27.5 -1.5c-17.333 0 -32.833 3 -46.5 9s-22.167 17.333 -25.5 34c-10 -10.667 -20.333 -18.834 -31 -24.501
s-21 -9.83398 -31 -12.501s-19 -4.33398 -27 -5.00098s-14 -1 -18 -1c-24 0 -43.5 3.33301 -58.5 10s-26.833 15 -35.5 25s-14.667 20.667 -18 32s-5 21.666 -5 30.999c0 7.33301 1 16 3 26s6.33301 19.5 13 28.5s16.5 17 29.5 24s30.5 11.5 52.5 13.5l114 13v3
c0 9.33301 -2.83301 16.333 -8.5 21s-16.834 7 -33.501 7c-7.33301 0 -15.666 -0.333008 -24.999 -1s-18.666 -1.66699 -27.999 -3l-27.5 -4c-9 -1.33301 -16.833 -3 -23.5 -5l-25 94c22 8.66699 48.667 15.5 80 20.5s61.666 7.5 90.999 7.5c48.667 0 87.334 -9 116.001 -27
s43 -49.333 43 -94v-111zM206.996 400.005c-8 -1.33301 -12.999 -4.33203 -14.999 -8.99902s-3 -8.33398 -3 -11.001c0 -8 1.33301 -14.5 4 -19.5s8.66699 -7.5 18 -7.5c3.33301 0 7.16602 0.666992 11.499 2s7.83301 3 10.5 5v45z" />
    <glyph glyph-name="guillemotleft" unicode="&#xab;" horiz-adv-x="593" 
d="M30 229l198 212l95 -63l-109 -167l106 -163l-97 -68l-193 212v37zM278 229l198 212l96 -63l-109 -167l105 -163l-96 -68l-194 212v37z" />
    <glyph glyph-name="logicalnot" unicode="&#xac;" horiz-adv-x="662" 
d="M576 72h-127v175h-329v123h456v-298z" />
    <glyph glyph-name="sfthyphen" unicode="&#xad;" horiz-adv-x="437" 
d="M68 201v151h301v-151h-301z" />
    <glyph glyph-name="registered" unicode="&#xae;" horiz-adv-x="654" 
d="M609 457c0 -38.667 -6.83398 -75 -20.501 -109s-33 -63.833 -58 -89.5s-54.667 -45.834 -89 -60.501s-72.166 -22 -113.499 -22c-40.667 0 -78.334 7.33301 -113.001 22s-64.5 34.834 -89.5 60.501s-44.667 55.5 -59 89.5s-21.5 70.333 -21.5 109
c0 39.333 6.83301 76.166 20.5 110.499s33 64.166 58 89.499s54.833 45.333 89.5 60s73 22 115 22s80.167 -7.33301 114.5 -22s63.833 -34.667 88.5 -60s43.834 -55.166 57.501 -89.499s20.5 -71.166 20.5 -110.499zM545.999 457c0 30 -5.33301 58.167 -16 84.5
s-25.5 49.333 -44.5 69s-42 35.334 -69 47.001s-56.5 17.5 -88.5 17.5s-61.5 -5.83301 -88.5 -17.5s-50 -27.334 -69 -47.001s-33.833 -42.667 -44.5 -69s-16 -54.5 -16 -84.5s5 -58.167 15 -84.5s24.5 -49.333 43.5 -69s42 -35.167 69 -46.5s57.167 -17 90.5 -17
c35.333 0 66.5 5.66699 93.5 17s49.833 26.833 68.5 46.5s32.667 42.667 42 69s14 54.5 14 84.5zM364.999 523c0 18.667 -9.66699 28 -29 28h-20v-60h16c10 0 18 2.33301 24 7s9 13 9 25zM315.999 432l0.00195312 -46.001h24v-61h-154v61h31v164h-31v62h177
c21.333 0 39 -2.66699 53 -8s25 -12.333 33 -21s13.5 -18.5 16.5 -29.5s4.5 -21.833 4.5 -32.5c0 -12.667 -3.33301 -26 -10 -40s-17.334 -24.667 -32.001 -32l31 -65l36 -4v-54c-10 -3.33301 -21.667 -5.66602 -35 -6.99902s-23.333 -2 -30 -2
c-17.333 0 -30.333 3.5 -39 10.5s-16.334 18.167 -23.001 33.5l-31 71h-21z" />
    <glyph glyph-name="macron" unicode="&#xaf;" horiz-adv-x="650" 
d="M135 685h400v-136h-400v136z" />
    <glyph glyph-name="degree" unicode="&#xb0;" horiz-adv-x="418" 
d="M377 537c0 -23.333 -4.66699 -45.5 -14 -66.5s-21.833 -39.333 -37.5 -55s-34 -28.167 -55 -37.5s-43.5 -14 -67.5 -14c-23.333 0 -45.5 4.16699 -66.5 12.5s-39.333 20 -55 35s-28.167 33.167 -37.5 54.5s-14 45 -14 71c0 24.667 4.66699 47.5 14 68.5
s21.833 39.167 37.5 54.5s34 27.5 55 36.5s43.167 13.5 66.5 13.5c24 0 46.5 -4.5 67.5 -13.5s39.333 -21.167 55 -36.5s28.167 -33.5 37.5 -54.5s14 -43.833 14 -68.5zM272 537c0 21.333 -6.33301 38.1699 -19 50.5029s-29.334 18.5 -50.001 18.5
c-20 0 -36.333 -6.33301 -49 -19s-19 -29.334 -19 -50.001s6.33301 -37.334 19 -50.001s29 -19 49 -19c20.667 0 37.334 6.16699 50.001 18.5s19 29.166 19 50.499z" />
    <glyph glyph-name="plusminus" unicode="&#xb1;" horiz-adv-x="662" 
d="M412 292v-133h-127v133h-165v123h165v140h127v-140h164v-123h-164zM576 123v-123h-456v123h456z" />
    <glyph glyph-name="twosuperior" unicode="&#xb2;" horiz-adv-x="438" 
d="M384 643c0 -18 -5.33398 -35.834 -16.001 -53.501s-24 -34 -40 -49s-33.167 -28.833 -51.5 -41.5s-35.166 -23 -50.499 -31h61v21h120v-133h-375v99l54 36.5c20.667 13.667 40.5 28 59.5 43s35 30 48 45s19.5 29.5 19.5 43.5c0 6 -2.33301 11.333 -7 16s-12.667 7 -24 7
c-14 0 -30.5 -2.5 -49.5 -7.5s-38.5 -13.167 -58.5 -24.5l-50 103c30.667 19.333 61 33.333 91 42s60 13 90 13c61.333 0 106.5 -11.667 135.5 -35s43.5 -54.666 43.5 -93.999z" />
    <glyph glyph-name="threesuperior" unicode="&#xb3;" horiz-adv-x="438" 
d="M124 591l80.001 65.999h-50v-22h-111v133h335l20 -87l-89 -71c32 -8.66699 55.333 -22.5 70 -41.5s22 -41.833 22 -68.5c0 -24.667 -5.16699 -46.334 -15.5 -65.001s-24.5 -34.167 -42.5 -46.5s-39.5 -21.666 -64.5 -27.999s-52.167 -9.5 -81.5 -9.5
c-6 0 -15.667 0.333008 -29 1s-28.333 2.33398 -45 5.00098s-34.167 6.5 -52.5 11.5s-35.5 12.167 -51.5 21.5l42 109c25.333 -8.66699 49 -14.334 71 -17.001s39.667 -4 53 -4c15.333 0 26.666 2.33301 33.999 7s11 10.667 11 18c0 2.66699 -0.333008 5.5 -1 8.5
s-2.83398 5.83301 -6.50098 8.5s-9.16699 4.83398 -16.5 6.50098s-17.333 2.5 -30 2.5c-6 0 -12.167 -0.166992 -18.5 -0.5s-13.166 -0.833008 -20.499 -1.5z" />
    <glyph glyph-name="acute" unicode="&#xb4;" horiz-adv-x="650" 
d="M316 548l-65 78l189 183l101 -120z" />
    <glyph glyph-name="mu" unicode="&#xb5;" horiz-adv-x="712" 
d="M366 496l277 0.000976562v-343h57v-140c-36 -12 -66.833 -19.5 -92.5 -22.5s-46.167 -4.5 -61.5 -4.5c-43.333 0 -74.166 7.16699 -92.499 21.5s-30.166 32.833 -35.499 55.5c-14 -14 -29 -26.667 -45 -38s-33.333 -20.333 -52 -27l-1 -69h57v-142h-350v142h56
c0 35.333 -0.166992 65.666 -0.5 90.999s-0.5 48.166 -0.5 68.499v56v55v65.5v86h-54v144h292v-289c0 -11.333 2.5 -20.666 7.5 -27.999s15.167 -11 30.5 -11c5.33301 0 12.166 1.5 20.499 4.5s17.166 8.5 26.499 16.5v165h-39v143z" />
    <glyph glyph-name="mu" unicode="&#x3bc;" horiz-adv-x="712" 
d="M366 496l277 0.000976562v-343h57v-140c-36 -12 -66.833 -19.5 -92.5 -22.5s-46.167 -4.5 -61.5 -4.5c-43.333 0 -74.166 7.16699 -92.499 21.5s-30.166 32.833 -35.499 55.5c-14 -14 -29 -26.667 -45 -38s-33.333 -20.333 -52 -27l-1 -69h57v-142h-350v142h56
c0 35.333 -0.166992 65.666 -0.5 90.999s-0.5 48.166 -0.5 68.499v56v55v65.5v86h-54v144h292v-289c0 -11.333 2.5 -20.666 7.5 -27.999s15.167 -11 30.5 -11c5.33301 0 12.166 1.5 20.499 4.5s17.166 8.5 26.499 16.5v165h-39v143z" />
    <glyph glyph-name="paragraph" unicode="&#xb6;" horiz-adv-x="752" 
d="M276 246c-34 0 -65.333 5.33203 -94 15.999s-53.5 26 -74.5 46s-37.333 44.333 -49 73s-17.5 61.334 -17.5 98.001c0 32.667 5.33301 63.667 16 93s26 55 46 77s44.5 39.333 73.5 52s62.167 19 99.5 19h443v-148h-67v-800h-153v800h-50v-800h-251v134h97v340h-19z" />
    <glyph glyph-name="periodcentered" unicode="&#xb7;" horiz-adv-x="349" 
d="M289 274c0 -15.333 -3 -29.833 -9 -43.5s-14.167 -25.5 -24.5 -35.5s-22.333 -18 -36 -24s-28.167 -9 -43.5 -9s-29.833 3 -43.5 9s-25.667 14 -36 24s-18.5 21.833 -24.5 35.5s-9 28.167 -9 43.5s3 29.833 9 43.5s14.167 25.667 24.5 36s22.333 18.5 36 24.5
s28.167 9 43.5 9s29.833 -3 43.5 -9s25.667 -14.167 36 -24.5s18.5 -22.333 24.5 -36s9 -28.167 9 -43.5z" />
    <glyph glyph-name="cedilla" unicode="&#xb8;" horiz-adv-x="563" 
d="M311 -46c34.667 -7.33301 60.668 -19.8311 78.001 -37.498s26 -40.167 26 -67.5c0 -11.333 -3.16699 -23.833 -9.5 -37.5s-17.833 -26.5 -34.5 -38.5s-39 -22 -67 -30s-63.333 -12.333 -106 -13l-4 78c36.667 3.33301 63.834 9.16602 81.501 17.499
s26.5 18.166 26.5 29.499c0 10 -4.83301 16.5 -14.5 19.5s-20.167 4.5 -31.5 4.5c-6.66699 0 -12.834 -0.166992 -18.501 -0.5s-10.834 -0.833008 -15.501 -1.5l-23 35l108 146l56 -32z" />
    <glyph glyph-name="onesuperior" unicode="&#xb9;" horiz-adv-x="438" 
d="M47 468h84v166l-83 -7l-17 97l128 44h141v-300h90v-112h-343v112z" />
    <glyph glyph-name="ordmasculine" unicode="&#xba;" horiz-adv-x="470" 
d="M443 436c0 -51.333 -17.333 -92.666 -52 -123.999s-86.667 -47 -156 -47c-70 0 -122.167 15.667 -156.5 47s-51.5 72.666 -51.5 123.999c0 50 17.167 90.5 51.5 121.5s86.5 46.5 156.5 46.5c69.333 0 121.333 -15.5 156 -46.5s52 -71.5 52 -121.5zM272 436
c0 18 -2.5 32.666 -7.5 43.999s-14.833 17 -29.5 17s-24.5 -6.33301 -29.5 -19s-7.5 -26.667 -7.5 -42c0 -19.333 2.5 -35.166 7.5 -47.499s14.833 -18.5 29.5 -18.5s24.5 6 29.5 18s7.5 28 7.5 48z" />
    <glyph glyph-name="guillemotright" unicode="&#xbb;" horiz-adv-x="593" 
d="M572 192l-194 -212l-96 68l105 163l-109 167l96 63l198 -212v-37zM323 192l-193 -212l-97 68l106 163l-109 167l95 63l198 -212v-37z" />
    <glyph glyph-name="onequarter" unicode="&#xbc;" horiz-adv-x="1010" 
d="M135 378h84v166l-83 -7l-17 97l128 44h141v-300h46l163 342h130l-352 -738h-129l135 284h-246v112zM818 410v-203h64v-90h-64v-24h37v-91h-227v91h33v24h-182v73l180 220h159zM660 266l-50 -59h52v59h-2z" />
    <glyph glyph-name="onehalf" unicode="&#xbd;" horiz-adv-x="1010" 
d="M111 378l83.999 -0.000976562v166l-83 -7l-17 97l128 44h141v-300h40l163 342h130l-170 -357c56.667 34 114.667 51 174 51c61.333 0 106.5 -11.667 135.5 -35s43.5 -54.666 43.5 -93.999c0 -18 -5.33301 -35.833 -16 -53.5s-24 -34 -40 -49s-33.167 -28.833 -51.5 -41.5
s-35.166 -23 -50.499 -31h61v21h120v-133h-375v99l54 36.5c20.667 13.667 40.5 28 59.5 43s35 30 48 45s19.5 29.5 19.5 43.5c0 6 -2.33301 11.333 -7 16s-12.667 7 -24 7c-14 0 -30.5 -2.5 -49.5 -7.5s-38.5 -13.167 -58.5 -24.5l-48 98l-177 -372h-129l135 284h-240v112z
" />
    <glyph glyph-name="threequarters" unicode="&#xbe;" horiz-adv-x="1010" 
d="M378 -18l-128.998 -0.000976562l144 303c-34 -16 -75 -24 -123 -24c-6 0 -15.667 0.333008 -29 1s-28.333 2.33398 -45 5.00098s-34.167 6.5 -52.5 11.5s-35.5 12.167 -51.5 21.5l42 109c25.333 -8.66699 49 -14.334 71 -17.001s39.667 -4 53 -4
c15.333 0 26.666 2.33301 33.999 7s11 10.667 11 18c0 2.66699 -0.333008 5.5 -1 8.5s-2.83398 5.83301 -6.50098 8.5s-9.16699 4.83398 -16.5 6.50098s-17.333 2.5 -30 2.5c-6 0 -12.167 -0.166992 -18.5 -0.5s-13.166 -0.833008 -20.499 -1.5l-13 64l80 66h-50v-22h-111
v133h335l20 -87l-89 -71c24 -6.66699 43.167 -16.5 57.5 -29.5s24.166 -28.167 29.499 -45.5l131 275h130zM845.002 409.999v-203h64v-90h-64v-24h37v-91h-227v91h33v24h-182v73l180 220h159zM687.002 265.999l-50 -59h52v59h-2z" />
    <glyph glyph-name="questiondown" unicode="&#xbf;" horiz-adv-x="587" 
d="M304 -231c-41.333 0 -78 5 -110 15s-58.833 24 -80.5 42s-38 39.5 -49 64.5s-16.5 52.5 -16.5 82.5c0 24 4.5 45.5 13.5 64.5s20.5 36.5 34.5 52.5s28.833 31 44.5 45l44.5 41c14 13.333 25.5 27 34.5 41s13.5 29.333 13.5 46v14h191v-48c0 -34.667 -6.5 -63 -19.5 -85
s-27.5 -41.167 -43.5 -57.5l-43.5 -45.5c-13 -14 -19.5 -30.333 -19.5 -49c0 -16.667 5.66699 -30.167 17 -40.5s28.333 -15.5 51 -15.5c6.66699 0 13 0.166992 19 0.5s12 0.833008 18 1.5l1 68h154v-191c-50.667 -19.333 -97.667 -31.833 -141 -37.5s-81 -8.5 -113 -8.5z
M319 301c-15.333 0 -29.5 2.66504 -42.5 7.99805s-24.333 12.5 -34 21.5s-17.334 19.833 -23.001 32.5s-8.5 26 -8.5 40c0 13.333 2.83301 26 8.5 38s13.334 22.667 23.001 32s21 16.666 34 21.999s27.167 8 42.5 8s29.5 -2.66699 42.5 -8s24.333 -12.666 34 -21.999
s17.334 -20 23.001 -32s8.5 -24.667 8.5 -38c0 -14 -2.83301 -27.167 -8.5 -39.5s-13.334 -23.166 -23.001 -32.499s-21.167 -16.666 -34.5 -21.999s-27.333 -8 -42 -8z" />
    <glyph glyph-name="Agrave" unicode="&#xc0;" horiz-adv-x="852" 
d="M522 194h-209l-15 -45h56v-149h-334v149h53l213 544h297l195 -544h54v-149h-349v149h53zM386 401l-24 -68h117l-21 66l-32 111h-4zM232 886l96 120l190 -182l-65 -78z" />
    <glyph glyph-name="Aacute" unicode="&#xc1;" horiz-adv-x="852" 
d="M522 194h-209l-15 -45h56v-149h-334v149h53l213 544h297l195 -544h54v-149h-349v149h53zM386 401l-24 -68h117l-21 66l-32 111h-4zM430 747l-65 78l189 183l101 -120z" />
    <glyph glyph-name="Acircumflex" unicode="&#xc2;" horiz-adv-x="852" 
d="M522 194h-209l-15 -45h56v-149h-334v149h53l213 544h297l195 -544h54v-149h-349v149h53zM386 401l-24 -68h117l-21 66l-32 111h-4zM602 747l-181 102l-178 -100l-51 60l159 162h142l163 -162z" />
    <glyph glyph-name="Atilde" unicode="&#xc3;" horiz-adv-x="852" 
d="M522 194h-209l-15 -45h56v-149h-334v149h53l213 544h297l195 -544h54v-149h-349v149h53zM386 401l-24 -68h117l-21 66l-32 111h-4zM531 765c-20 0 -40.334 2.00098 -61.001 6.00098s-40.834 8.33301 -60.501 13l-55 13c-17 4 -31.5 6 -43.5 6l-54 -39l-62 45
c16.667 46.667 35.834 78.334 57.501 95.001s45.5 25 71.5 25c18 0 36.333 -1.83301 55 -5.5s37.334 -7.83398 56.001 -12.501s37 -8.83398 55 -12.501s35.333 -5.5 52 -5.5l55 41l60 -45c-14 -42.667 -31 -74 -51 -94s-45 -30 -75 -30z" />
    <glyph glyph-name="Adieresis" unicode="&#xc4;" horiz-adv-x="852" 
d="M522 194h-209l-15 -45h56v-149h-334v149h53l213 544h297l195 -544h54v-149h-349v149h53zM386 401l-24 -68h117l-21 66l-32 111h-4zM632 834c0 -25.333 -8.66699 -46.833 -26 -64.5s-38.666 -26.5 -63.999 -26.5s-46.833 8.83301 -64.5 26.5s-26.5 39.167 -26.5 64.5
c0 26 8.83301 47.667 26.5 65s39.167 26 64.5 26s46.666 -8.66699 63.999 -26s26 -39 26 -65zM419 834c0 -12.667 -2.33398 -24.5 -7.00098 -35.5s-11.167 -20.667 -19.5 -29s-18 -14.833 -29 -19.5s-22.5 -7 -34.5 -7c-25.333 0 -46.833 8.83301 -64.5 26.5
s-26.5 39.167 -26.5 64.5c0 26 8.83301 47.667 26.5 65s39.167 26 64.5 26c24.667 0 45.834 -8.66699 63.501 -26s26.5 -39 26.5 -65z" />
    <glyph glyph-name="Aring" unicode="&#xc5;" horiz-adv-x="852" 
d="M522 194h-209l-15 -45h56v-149h-334v149h53l213 544h297l195 -544h54v-149h-349v149h53zM386 401l-24 -68h117l-21 66l-32 111h-4zM427 744c-21.333 0 -41 3.83203 -59 11.499s-33.833 18 -47.5 31s-24.334 28.167 -32.001 45.5s-11.5 36 -11.5 56
c0 19.333 3.83301 37.833 11.5 55.5s18.334 33.167 32.001 46.5s29.5 23.833 47.5 31.5s37.667 11.5 59 11.5s41 -3.83301 59 -11.5s33.333 -18.167 46 -31.5s22.5 -28.666 29.5 -45.999s10.5 -36 10.5 -56s-3.83301 -38.833 -11.5 -56.5s-18 -33 -31 -46
s-28.333 -23.167 -46 -30.5s-36.5 -11 -56.5 -11zM427 935.999c-14.667 0 -26.834 -5.16699 -36.501 -15.5s-14.5 -22.166 -14.5 -35.499c0 -11.333 4.33301 -22.166 13 -32.499s21.334 -15.5 38.001 -15.5c14.667 0 26 5.16699 34 15.5s12 21.166 12 32.499
c0 13.333 -3.83301 25.166 -11.5 35.499s-19.167 15.5 -34.5 15.5z" />
    <glyph glyph-name="AE" unicode="&#xc6;" horiz-adv-x="1150" 
d="M543 194h-204l-29 -45h44v-149h-332v149h46l245 391h-47v153h836v-271h-163v123h-153v-123h113v-138h-113v-135h161v135h163v-284h-641v149h74v45zM412 333h131v206h-4z" />
    <glyph glyph-name="Ccedilla" unicode="&#xc7;" horiz-adv-x="713" 
d="M307 355c0 -40 4.16602 -71.668 12.499 -95.001s20.166 -41 35.499 -53s33.833 -19.5 55.5 -22.5s45.834 -4.5 72.501 -4.5c7.33301 0 17.333 0.5 30 1.5s26.5 2.33301 41.5 4s30 3.66699 45 6s28.167 4.5 39.5 6.5l34 -168c-34 -13.333 -71.5 -23.333 -112.5 -30
s-80.833 -10.667 -119.5 -12l-37 -51c34.667 -7.33301 60.667 -19.833 78 -37.5s26 -40.167 26 -67.5c0 -11.333 -3.16699 -23.833 -9.5 -37.5s-17.833 -26.5 -34.5 -38.5s-39 -22 -67 -30s-63.333 -12.333 -106 -13l-4 78c36.667 3.33301 63.834 9.16602 81.501 17.499
s26.5 18.166 26.5 29.499c0 10 -4.83301 16.5 -14.5 19.5s-20.167 4.5 -31.5 4.5c-6.66699 0 -12.834 -0.166992 -18.501 -0.5s-10.834 -0.833008 -15.501 -1.5l-23 35l70 96c-64 5.33301 -116.333 19 -157 41s-72.5 49.333 -95.5 82s-38.667 69.167 -47 109.5
s-12.5 81.5 -12.5 123.5c0 46.667 5.33301 91.834 16 135.501s30.167 82.334 58.5 116.001s67.666 60.667 117.999 81s115.5 30.5 195.5 30.5c35.333 0 69.333 -2.33301 102 -7s65.334 -11.667 98.001 -21v-250h-165v94c-6 1.33301 -11.333 2.16602 -16 2.49902
s-9.66699 0.5 -15 0.5c-26 0 -47.667 -4.16699 -65 -12.5s-31.166 -20.166 -41.499 -35.499s-17.666 -33.666 -21.999 -54.999s-6.5 -45 -6.5 -71z" />
    <glyph glyph-name="Egrave" unicode="&#xc8;" horiz-adv-x="776" 
d="M45 0v149h74v396h-74v148h683v-271h-163v123h-203v-123l153 3v-144l-153 3v-135h211v135h163v-284h-691zM232 886l96 120l190 -182l-65 -78z" />
    <glyph glyph-name="Eacute" unicode="&#xc9;" horiz-adv-x="776" 
d="M45 0v149h74v396h-74v148h683v-271h-163v123h-203v-123l153 3v-144l-153 3v-135h211v135h163v-284h-691zM374 747l-65 78l189 183l101 -120z" />
    <glyph glyph-name="Ecircumflex" unicode="&#xca;" horiz-adv-x="776" 
d="M45 0v149h74v396h-74v148h683v-271h-163v123h-203v-123l153 3v-144l-153 3v-135h211v135h163v-284h-691zM580 747l-181 102l-178 -100l-51 60l159 162h142l163 -162z" />
    <glyph glyph-name="Edieresis" unicode="&#xcb;" horiz-adv-x="776" 
d="M45 0v149h74v396h-74v148h683v-271h-163v123h-203v-123l153 3v-144l-153 3v-135h211v135h163v-284h-691zM605 834c0 -25.333 -8.66699 -46.833 -26 -64.5s-38.666 -26.5 -63.999 -26.5s-46.833 8.83301 -64.5 26.5s-26.5 39.167 -26.5 64.5c0 26 8.83301 47.667 26.5 65
s39.167 26 64.5 26s46.666 -8.66699 63.999 -26s26 -39 26 -65zM392 834c0 -12.667 -2.33398 -24.5 -7.00098 -35.5s-11.167 -20.667 -19.5 -29s-18 -14.833 -29 -19.5s-22.5 -7 -34.5 -7c-25.333 0 -46.833 8.83301 -64.5 26.5s-26.5 39.167 -26.5 64.5
c0 26 8.83301 47.667 26.5 65s39.167 26 64.5 26c24.667 0 45.834 -8.66699 63.501 -26s26.5 -39 26.5 -65z" />
    <glyph glyph-name="Igrave" unicode="&#xcc;" horiz-adv-x="531" 
d="M70 0v149h76v396h-76v148h391v-148h-73v-396h73v-149h-391zM54 886l96 120l190 -182l-65 -78z" />
    <glyph glyph-name="Iacute" unicode="&#xcd;" horiz-adv-x="531" 
d="M70 0v149h76v396h-76v148h391v-148h-73v-396h73v-149h-391zM276 747l-65 78l189 183l101 -120z" />
    <glyph glyph-name="Icircumflex" unicode="&#xce;" horiz-adv-x="531" 
d="M70 0v149h76v396h-76v148h391v-148h-73v-396h73v-149h-391zM446 747l-181 102l-178 -100l-51 60l159 162h142l163 -162z" />
    <glyph glyph-name="Idieresis" unicode="&#xcf;" horiz-adv-x="531" 
d="M70 0v149h76v396h-76v148h391v-148h-73v-396h73v-149h-391zM462 834c0 -25.333 -8.66699 -46.833 -26 -64.5s-38.666 -26.5 -63.999 -26.5s-46.833 8.83301 -64.5 26.5s-26.5 39.167 -26.5 64.5c0 26 8.83301 47.667 26.5 65s39.167 26 64.5 26
s46.666 -8.66699 63.999 -26s26 -39 26 -65zM249 834c0 -12.667 -2.33398 -24.5 -7.00098 -35.5s-11.167 -20.667 -19.5 -29s-18 -14.833 -29 -19.5s-22.5 -7 -34.5 -7c-25.333 0 -46.833 8.83301 -64.5 26.5s-26.5 39.167 -26.5 64.5c0 26 8.83301 47.667 26.5 65
s39.167 26 64.5 26c24.667 0 45.834 -8.66699 63.501 -26s26.5 -39 26.5 -65z" />
    <glyph glyph-name="Eth" unicode="&#xd0;" horiz-adv-x="838" 
d="M45 0v148.999h78v159h-72v92h72v145h-73v148h390c68.667 0 125.5 -9.16699 170.5 -27.5s80.667 -43.166 107 -74.499s44.666 -68 54.999 -110s15.5 -86.333 15.5 -133c0 -45.333 -6 -89 -18 -131s-31.667 -79 -59 -111s-63.166 -57.667 -107.499 -77
s-98.833 -29 -163.5 -29h-395zM366 544.999l-0.000976562 -145.002h71v-92h-71v-159h50c23.333 0 42.333 5.66699 57 17s26.334 26.333 35.001 45s14.5 39.834 17.5 63.501s4.5 47.834 4.5 72.501c0 25.333 -1.66699 50 -5 74s-9.5 45.167 -18.5 63.5s-21.5 33 -37.5 44
s-36.333 16.5 -61 16.5h-42z" />
    <glyph glyph-name="Ntilde" unicode="&#xd1;" horiz-adv-x="946" 
d="M608 322v223h-66v148h359v-148h-68v-545h-239l-150 232l-105 170h-2v-253h67v-149h-359v149h70v396h-70v148h329l117 -184l113 -187h4zM563 766c-20 0 -40.334 2.00098 -61.001 6.00098s-40.834 8.33301 -60.501 13l-55 13c-17 4 -31.5 6 -43.5 6l-54 -39l-62 45
c16.667 46.667 35.834 78.334 57.501 95.001s45.5 25 71.5 25c18 0 36.333 -1.83301 55 -5.5s37.334 -7.83398 56.001 -12.501s37 -8.83398 55 -12.501s35.333 -5.5 52 -5.5l55 41l60 -45c-14 -42.667 -31 -74 -51 -94s-45 -30 -75 -30z" />
    <glyph glyph-name="Ograve" unicode="&#xd2;" horiz-adv-x="845" 
d="M795 350c0 -52 -7.83301 -100.167 -23.5 -144.5s-39.167 -82.666 -70.5 -114.999s-70.166 -57.5 -116.499 -75.5s-100.5 -27 -162.5 -27s-116.167 9 -162.5 27s-85 43.167 -116 75.5s-54.333 70.666 -70 114.999s-23.5 92.5 -23.5 144.5s7.83301 100 23.5 144
s39 81.833 70 113.5s69.667 56.5 116 74.5s100.5 27 162.5 27s116.167 -9 162.5 -27s85.166 -42.833 116.499 -74.5s54.833 -69.5 70.5 -113.5s23.5 -92 23.5 -144zM536 350c0 28.667 -1.83301 55.0029 -5.5 79.0029s-10 44.667 -19 62s-20.667 30.666 -35 39.999
s-32.5 14 -54.5 14s-40.333 -5.16699 -55 -15.5s-26.5 -24.333 -35.5 -42s-15.333 -38.334 -19 -62.001s-5.5 -48.834 -5.5 -75.501c0 -30 1.83301 -57.333 5.5 -82s10 -45.667 19 -63s20.833 -30.833 35.5 -40.5s33 -14.5 55 -14.5s40.167 4.66699 54.5 14
s26 22.666 35 39.999s15.333 38.333 19 63s5.5 52.334 5.5 83.001zM242 886.003l96 120l190 -182l-65 -78z" />
    <glyph glyph-name="Oacute" unicode="&#xd3;" horiz-adv-x="845" 
d="M795 350c0 -52 -7.83301 -100.167 -23.5 -144.5s-39.167 -82.666 -70.5 -114.999s-70.166 -57.5 -116.499 -75.5s-100.5 -27 -162.5 -27s-116.167 9 -162.5 27s-85 43.167 -116 75.5s-54.333 70.666 -70 114.999s-23.5 92.5 -23.5 144.5s7.83301 100 23.5 144
s39 81.833 70 113.5s69.667 56.5 116 74.5s100.5 27 162.5 27s116.167 -9 162.5 -27s85.166 -42.833 116.499 -74.5s54.833 -69.5 70.5 -113.5s23.5 -92 23.5 -144zM536 350c0 28.667 -1.83301 55.0029 -5.5 79.0029s-10 44.667 -19 62s-20.667 30.666 -35 39.999
s-32.5 14 -54.5 14s-40.333 -5.16699 -55 -15.5s-26.5 -24.333 -35.5 -42s-15.333 -38.334 -19 -62.001s-5.5 -48.834 -5.5 -75.501c0 -30 1.83301 -57.333 5.5 -82s10 -45.667 19 -63s20.833 -30.833 35.5 -40.5s33 -14.5 55 -14.5s40.167 4.66699 54.5 14
s26 22.666 35 39.999s15.333 38.333 19 63s5.5 52.334 5.5 83.001zM424 747.003l-65 78l189 183l101 -120z" />
    <glyph glyph-name="Ocircumflex" unicode="&#xd4;" horiz-adv-x="845" 
d="M795 350c0 -52 -7.83301 -100.167 -23.5 -144.5s-39.167 -82.666 -70.5 -114.999s-70.166 -57.5 -116.499 -75.5s-100.5 -27 -162.5 -27s-116.167 9 -162.5 27s-85 43.167 -116 75.5s-54.333 70.666 -70 114.999s-23.5 92.5 -23.5 144.5s7.83301 100 23.5 144
s39 81.833 70 113.5s69.667 56.5 116 74.5s100.5 27 162.5 27s116.167 -9 162.5 -27s85.166 -42.833 116.499 -74.5s54.833 -69.5 70.5 -113.5s23.5 -92 23.5 -144zM536 350c0 28.667 -1.83301 55.0029 -5.5 79.0029s-10 44.667 -19 62s-20.667 30.666 -35 39.999
s-32.5 14 -54.5 14s-40.333 -5.16699 -55 -15.5s-26.5 -24.333 -35.5 -42s-15.333 -38.334 -19 -62.001s-5.5 -48.834 -5.5 -75.501c0 -30 1.83301 -57.333 5.5 -82s10 -45.667 19 -63s20.833 -30.833 35.5 -40.5s33 -14.5 55 -14.5s40.167 4.66699 54.5 14
s26 22.666 35 39.999s15.333 38.333 19 63s5.5 52.334 5.5 83.001zM603 747.003l-181 102l-178 -100l-51 60l159 162h142l163 -162z" />
    <glyph glyph-name="Otilde" unicode="&#xd5;" horiz-adv-x="845" 
d="M795 350c0 -52 -7.83301 -100.167 -23.5 -144.5s-39.167 -82.666 -70.5 -114.999s-70.166 -57.5 -116.499 -75.5s-100.5 -27 -162.5 -27s-116.167 9 -162.5 27s-85 43.167 -116 75.5s-54.333 70.666 -70 114.999s-23.5 92.5 -23.5 144.5s7.83301 100 23.5 144
s39 81.833 70 113.5s69.667 56.5 116 74.5s100.5 27 162.5 27s116.167 -9 162.5 -27s85.166 -42.833 116.499 -74.5s54.833 -69.5 70.5 -113.5s23.5 -92 23.5 -144zM536 350c0 28.667 -1.83301 55.0029 -5.5 79.0029s-10 44.667 -19 62s-20.667 30.666 -35 39.999
s-32.5 14 -54.5 14s-40.333 -5.16699 -55 -15.5s-26.5 -24.333 -35.5 -42s-15.333 -38.334 -19 -62.001s-5.5 -48.834 -5.5 -75.501c0 -30 1.83301 -57.333 5.5 -82s10 -45.667 19 -63s20.833 -30.833 35.5 -40.5s33 -14.5 55 -14.5s40.167 4.66699 54.5 14
s26 22.666 35 39.999s15.333 38.333 19 63s5.5 52.334 5.5 83.001zM527 768.003c-20 0 -40.334 2.00098 -61.001 6.00098s-40.834 8.33301 -60.501 13l-55 13c-17 4 -31.5 6 -43.5 6l-54 -39l-62 45c16.667 46.667 35.834 78.334 57.501 95.001s45.5 25 71.5 25
c18 0 36.333 -1.83301 55 -5.5s37.334 -7.83398 56.001 -12.501s37 -8.83398 55 -12.501s35.333 -5.5 52 -5.5l55 41l60 -45c-14 -42.667 -31 -74 -51 -94s-45 -30 -75 -30z" />
    <glyph glyph-name="Odieresis" unicode="&#xd6;" horiz-adv-x="845" 
d="M795 350c0 -52 -7.83301 -100.167 -23.5 -144.5s-39.167 -82.666 -70.5 -114.999s-70.166 -57.5 -116.499 -75.5s-100.5 -27 -162.5 -27s-116.167 9 -162.5 27s-85 43.167 -116 75.5s-54.333 70.666 -70 114.999s-23.5 92.5 -23.5 144.5s7.83301 100 23.5 144
s39 81.833 70 113.5s69.667 56.5 116 74.5s100.5 27 162.5 27s116.167 -9 162.5 -27s85.166 -42.833 116.499 -74.5s54.833 -69.5 70.5 -113.5s23.5 -92 23.5 -144zM536 350c0 28.667 -1.83301 55.0029 -5.5 79.0029s-10 44.667 -19 62s-20.667 30.666 -35 39.999
s-32.5 14 -54.5 14s-40.333 -5.16699 -55 -15.5s-26.5 -24.333 -35.5 -42s-15.333 -38.334 -19 -62.001s-5.5 -48.834 -5.5 -75.501c0 -30 1.83301 -57.333 5.5 -82s10 -45.667 19 -63s20.833 -30.833 35.5 -40.5s33 -14.5 55 -14.5s40.167 4.66699 54.5 14
s26 22.666 35 39.999s15.333 38.333 19 63s5.5 52.334 5.5 83.001zM623 834.003c0 -25.333 -8.66699 -46.833 -26 -64.5s-38.666 -26.5 -63.999 -26.5s-46.833 8.83301 -64.5 26.5s-26.5 39.167 -26.5 64.5c0 26 8.83301 47.667 26.5 65s39.167 26 64.5 26
s46.666 -8.66699 63.999 -26s26 -39 26 -65zM410 834.003c0 -12.667 -2.33398 -24.5 -7.00098 -35.5s-11.167 -20.667 -19.5 -29s-18 -14.833 -29 -19.5s-22.5 -7 -34.5 -7c-25.333 0 -46.833 8.83301 -64.5 26.5s-26.5 39.167 -26.5 64.5c0 26 8.83301 47.667 26.5 65
s39.167 26 64.5 26c24.667 0 45.834 -8.66699 63.501 -26s26.5 -39 26.5 -65z" />
    <glyph glyph-name="multiply" unicode="&#xd7;" horiz-adv-x="662" 
d="M341 219l-124 -123l-90 89l124 124l-124 124l87 87l124 -124l122 122l89 -90l-121 -122l123 -123l-87 -87z" />
    <glyph glyph-name="Oslash" unicode="&#xd8;" horiz-adv-x="845" 
d="M795 350c0 -52 -7.83496 -100.168 -23.502 -144.501s-39.167 -82.666 -70.5 -114.999s-70.166 -57.5 -116.499 -75.5s-100.5 -27 -162.5 -27c-48 0 -91.167 5.5 -129.5 16.5s-72.5 26.5 -102.5 46.5l-57 -61h-83l92 102c-30.667 32 -53.667 70 -69 114s-23 92 -23 144
s7.83301 100 23.5 144s39 81.833 70 113.5s69.667 56.5 116 74.5s100.5 27 162.5 27c46.667 0 88.667 -5 126 -15s71 -24.667 101 -44l53 59h95l-95 -103c30.667 -32 53.834 -69.667 69.501 -113s23.5 -91 23.5 -143zM535.998 349.999c0 13.333 -0.5 25.832 -1.5 37.499
s-2.16699 22.834 -3.5 33.501l-200 -216c9.33301 -17.333 21.333 -30.833 36 -40.5s33 -14.5 55 -14.5s40.167 4.66699 54.5 14s26 22.666 35 39.999s15.333 38.333 19 63s5.5 52.334 5.5 83.001zM306.998 349.998c0 -13.333 0.333008 -25.8311 1 -37.498
s1.66699 -23.167 3 -34.5l198 218c-18.667 32.667 -47.667 49 -87 49c-22 0 -40.333 -5.16699 -55 -15.5s-26.5 -24.333 -35.5 -42s-15.333 -38.334 -19 -62.001s-5.5 -48.834 -5.5 -75.501z" />
    <glyph glyph-name="Ugrave" unicode="&#xd9;" horiz-adv-x="843" 
d="M750 264c0 -89.333 -25.666 -157.5 -76.999 -204.5s-134.666 -70.5 -249.999 -70.5c-61.333 0 -113 6.16699 -155 18.5s-76.333 30.333 -103 54s-45.834 52.5 -57.501 86.5s-17.5 72.667 -17.5 116v281h-55v148h346v-148h-53v-295c0 -36.667 8 -62.5 24 -77.5
s40.333 -22.5 73 -22.5c11.333 0 22.5 1.5 33.5 4.5s20.667 8.16699 29 15.5s15.166 17.5 20.499 30.5s8 29.5 8 49.5v295h-53v148h345v-148h-58v-281zM217.001 886l96 120l190 -182l-65 -78z" />
    <glyph glyph-name="Uacute" unicode="&#xda;" horiz-adv-x="843" 
d="M750 264c0 -89.333 -25.666 -157.5 -76.999 -204.5s-134.666 -70.5 -249.999 -70.5c-61.333 0 -113 6.16699 -155 18.5s-76.333 30.333 -103 54s-45.834 52.5 -57.501 86.5s-17.5 72.667 -17.5 116v281h-55v148h346v-148h-53v-295c0 -36.667 8 -62.5 24 -77.5
s40.333 -22.5 73 -22.5c11.333 0 22.5 1.5 33.5 4.5s20.667 8.16699 29 15.5s15.166 17.5 20.499 30.5s8 29.5 8 49.5v295h-53v148h345v-148h-58v-281zM417.001 747l-65 78l189 183l101 -120z" />
    <glyph glyph-name="Ucircumflex" unicode="&#xdb;" horiz-adv-x="843" 
d="M750 264c0 -89.333 -25.666 -157.5 -76.999 -204.5s-134.666 -70.5 -249.999 -70.5c-61.333 0 -113 6.16699 -155 18.5s-76.333 30.333 -103 54s-45.834 52.5 -57.501 86.5s-17.5 72.667 -17.5 116v281h-55v148h346v-148h-53v-295c0 -36.667 8 -62.5 24 -77.5
s40.333 -22.5 73 -22.5c11.333 0 22.5 1.5 33.5 4.5s20.667 8.16699 29 15.5s15.166 17.5 20.499 30.5s8 29.5 8 49.5v295h-53v148h345v-148h-58v-281zM606.001 747l-188 100l-185 -98l-53 59l166 159h147l169 -159z" />
    <glyph glyph-name="Udieresis" unicode="&#xdc;" horiz-adv-x="843" 
d="M750 264c0 -89.333 -25.666 -157.5 -76.999 -204.5s-134.666 -70.5 -249.999 -70.5c-61.333 0 -113 6.16699 -155 18.5s-76.333 30.333 -103 54s-45.834 52.5 -57.501 86.5s-17.5 72.667 -17.5 116v281h-55v148h346v-148h-53v-295c0 -36.667 8 -62.5 24 -77.5
s40.333 -22.5 73 -22.5c11.333 0 22.5 1.5 33.5 4.5s20.667 8.16699 29 15.5s15.166 17.5 20.499 30.5s8 29.5 8 49.5v295h-53v148h345v-148h-58v-281zM620.001 834c0 -25.333 -8.66699 -46.833 -26 -64.5s-38.666 -26.5 -63.999 -26.5s-46.833 8.83301 -64.5 26.5
s-26.5 39.167 -26.5 64.5c0 26 8.83301 47.667 26.5 65s39.167 26 64.5 26s46.666 -8.66699 63.999 -26s26 -39 26 -65zM407.001 834c0 -12.667 -2.33398 -24.5 -7.00098 -35.5s-11.167 -20.667 -19.5 -29s-18 -14.833 -29 -19.5s-22.5 -7 -34.5 -7
c-25.333 0 -46.833 8.83301 -64.5 26.5s-26.5 39.167 -26.5 64.5c0 26 8.83301 47.667 26.5 65s39.167 26 64.5 26c24.667 0 45.834 -8.66699 63.501 -26s26.5 -39 26.5 -65z" />
    <glyph glyph-name="Yacute" unicode="&#xdd;" horiz-adv-x="799" 
d="M494 544h-55v149h345v-149h-49l-206 -316v-79h73v-149h-412v149h75v79l-202 316h-48v149h349v-149h-54l91 -161h4zM403 746l-65 78l189 183l101 -120z" />
    <glyph glyph-name="Thorn" unicode="&#xde;" horiz-adv-x="737" 
d="M363 525l78 -0.000976562c52.667 0 96.667 -4.5 132 -13.5s63.833 -21.5 85.5 -37.5s37 -35 46 -57s13.5 -46 13.5 -72c0 -28 -5.66699 -53.333 -17 -76s-28 -42 -50 -58s-49.167 -28.167 -81.5 -36.5s-69.5 -12.166 -111.5 -11.499l-95 1v-30h63v-134h-383v134h78v416
h-78v143h383v-143h-63v-25zM363 406.999v-120.999h25c26 0 45.167 5.33301 57.5 16s18.5 24.667 18.5 42c0 23.333 -7.16699 39.666 -21.5 48.999s-34.5 14 -60.5 14h-19z" />
    <glyph glyph-name="germandbls" unicode="&#xdf;" horiz-adv-x="795" 
d="M542 152c0 12 -4.49609 23.9961 -13.4961 35.9961s-20.5 24.167 -34.5 36.5l-44.5 39c-15.667 13.667 -30.5 28.334 -44.5 44.001s-25.5 32.167 -34.5 49.5s-13.5 36.333 -13.5 57c0 23.333 4.5 42.333 13.5 57s19 27.167 30 37.5l30 27.5c9 8 13.5 17 13.5 27
c0 12 -4.33301 21.167 -13 27.5s-20.667 9.5 -36 9.5c-14 0 -25.333 -2 -34 -6s-15.334 -9.5 -20.001 -16.5s-7.83398 -15 -9.50098 -24s-2.5 -18.833 -2.5 -29.5v-523h-299v144h65v222h-61v115h61v71c0 18.667 3.83301 39.834 11.5 63.501s22 45.667 43 66
s50.167 37.5 87.5 51.5s85.333 21 144 21c54 0 98.333 -6 133 -18s62.167 -26.667 82.5 -44s34.333 -35.5 42 -54.5s11.5 -35.833 11.5 -50.5c0 -24.667 -5.33301 -46 -16 -64s-22.5 -33.667 -35.5 -47s-24.833 -24.666 -35.5 -33.999s-16 -17.333 -16 -24
c0 -7.33301 5.5 -15.166 16.5 -23.499s24.833 -17.833 41.5 -28.5l53.5 -35.5c19 -13 36.833 -27.5 53.5 -43.5s30.5 -33.667 41.5 -53s16.5 -40.666 16.5 -63.999c0 -63.333 -22.167 -109.833 -66.5 -139.5s-104.5 -44.5 -180.5 -44.5c-28 0 -54.5 1.66699 -79.5 5
s-51.833 8.66602 -80.5 15.999v172h128v-55c3.33301 -0.666992 6.66602 -1.16699 9.99902 -1.5s6.66602 -0.5 9.99902 -0.5c8 0 15.167 2 21.5 6s9.5 11.667 9.5 23z" />
    <glyph glyph-name="agrave" unicode="&#xe0;" horiz-adv-x="650" 
d="M355 53c-14 -16 -29 -28.502 -45 -37.502s-31.333 -15.833 -46 -20.5s-28 -7.5 -40 -8.5s-21 -1.5 -27 -1.5c-34 0 -61.833 5 -83.5 15s-38.667 22.5 -51 37.5s-20.833 31 -25.5 48s-7 32.833 -7 47.5c0 10.667 1.33301 23.334 4 38.001s8.83398 28.834 18.501 42.501
s23.667 25.834 42 36.501s43.166 17.667 74.499 21l172 20v9c0 16 -4.5 28 -13.5 36s-26.167 12 -51.5 12c-12 0 -24.833 -0.5 -38.5 -1.5s-27.167 -2.33301 -40.5 -4s-26.166 -3.66699 -38.499 -6s-23.166 -4.83301 -32.499 -7.5l-33 137c15.333 6 32.666 11.667 51.999 17
s39.666 9.66602 60.999 12.999s43.166 6 65.499 8s43.833 3 64.5 3c34.667 0 66.167 -3 94.5 -9s52.333 -16.167 72 -30.5s34.834 -33.166 45.501 -56.499s16 -52 16 -86v-178h49l7 -132c-10 -5.33301 -21.667 -9.83301 -35 -13.5s-27.333 -6.83398 -42 -9.50098
s-29.167 -4.66699 -43.5 -6s-27.5 -2 -39.5 -2c-26 0 -48.833 4.5 -68.5 13.5s-31.167 27.167 -34.5 54.5zM298 195.998c-11.333 -2.66699 -18.5 -7.5 -21.5 -14.5s-4.5 -13.167 -4.5 -18.5c0 -12.667 2.33301 -23 7 -31s13.667 -12 27 -12c12.667 0 23.667 4.66699 33 14
v71zM121 687.998l96 120l190 -182l-65 -78z" />
    <glyph glyph-name="aacute" unicode="&#xe1;" horiz-adv-x="650" 
d="M355 53c-14 -16 -29 -28.502 -45 -37.502s-31.333 -15.833 -46 -20.5s-28 -7.5 -40 -8.5s-21 -1.5 -27 -1.5c-34 0 -61.833 5 -83.5 15s-38.667 22.5 -51 37.5s-20.833 31 -25.5 48s-7 32.833 -7 47.5c0 10.667 1.33301 23.334 4 38.001s8.83398 28.834 18.501 42.501
s23.667 25.834 42 36.501s43.166 17.667 74.499 21l172 20v9c0 16 -4.5 28 -13.5 36s-26.167 12 -51.5 12c-12 0 -24.833 -0.5 -38.5 -1.5s-27.167 -2.33301 -40.5 -4s-26.166 -3.66699 -38.499 -6s-23.166 -4.83301 -32.499 -7.5l-33 137c15.333 6 32.666 11.667 51.999 17
s39.666 9.66602 60.999 12.999s43.166 6 65.499 8s43.833 3 64.5 3c34.667 0 66.167 -3 94.5 -9s52.333 -16.167 72 -30.5s34.834 -33.166 45.501 -56.499s16 -52 16 -86v-178h49l7 -132c-10 -5.33301 -21.667 -9.83301 -35 -13.5s-27.333 -6.83398 -42 -9.50098
s-29.167 -4.66699 -43.5 -6s-27.5 -2 -39.5 -2c-26 0 -48.833 4.5 -68.5 13.5s-31.167 27.167 -34.5 54.5zM298 195.998c-11.333 -2.66699 -18.5 -7.5 -21.5 -14.5s-4.5 -13.167 -4.5 -18.5c0 -12.667 2.33301 -23 7 -31s13.667 -12 27 -12c12.667 0 23.667 4.66699 33 14
v71zM309 547.998l-65 78l189 183l101 -120z" />
    <glyph glyph-name="acircumflex" unicode="&#xe2;" horiz-adv-x="650" 
d="M355 53c-14 -16 -29 -28.502 -45 -37.502s-31.333 -15.833 -46 -20.5s-28 -7.5 -40 -8.5s-21 -1.5 -27 -1.5c-34 0 -61.833 5 -83.5 15s-38.667 22.5 -51 37.5s-20.833 31 -25.5 48s-7 32.833 -7 47.5c0 10.667 1.33301 23.334 4 38.001s8.83398 28.834 18.501 42.501
s23.667 25.834 42 36.501s43.166 17.667 74.499 21l172 20v9c0 16 -4.5 28 -13.5 36s-26.167 12 -51.5 12c-12 0 -24.833 -0.5 -38.5 -1.5s-27.167 -2.33301 -40.5 -4s-26.166 -3.66699 -38.499 -6s-23.166 -4.83301 -32.499 -7.5l-33 137c15.333 6 32.666 11.667 51.999 17
s39.666 9.66602 60.999 12.999s43.166 6 65.499 8s43.833 3 64.5 3c34.667 0 66.167 -3 94.5 -9s52.333 -16.167 72 -30.5s34.834 -33.166 45.501 -56.499s16 -52 16 -86v-178h49l7 -132c-10 -5.33301 -21.667 -9.83301 -35 -13.5s-27.333 -6.83398 -42 -9.50098
s-29.167 -4.66699 -43.5 -6s-27.5 -2 -39.5 -2c-26 0 -48.833 4.5 -68.5 13.5s-31.167 27.167 -34.5 54.5zM298 195.998c-11.333 -2.66699 -18.5 -7.5 -21.5 -14.5s-4.5 -13.167 -4.5 -18.5c0 -12.667 2.33301 -23 7 -31s13.667 -12 27 -12c12.667 0 23.667 4.66699 33 14
v71zM502 535.998l-181 102l-178 -100l-51 60l159 162h142l163 -162z" />
    <glyph glyph-name="atilde" unicode="&#xe3;" horiz-adv-x="650" 
d="M355 53c-14 -16 -29 -28.502 -45 -37.502s-31.333 -15.833 -46 -20.5s-28 -7.5 -40 -8.5s-21 -1.5 -27 -1.5c-34 0 -61.833 5 -83.5 15s-38.667 22.5 -51 37.5s-20.833 31 -25.5 48s-7 32.833 -7 47.5c0 10.667 1.33301 23.334 4 38.001s8.83398 28.834 18.501 42.501
s23.667 25.834 42 36.501s43.166 17.667 74.499 21l172 20v9c0 16 -4.5 28 -13.5 36s-26.167 12 -51.5 12c-12 0 -24.833 -0.5 -38.5 -1.5s-27.167 -2.33301 -40.5 -4s-26.166 -3.66699 -38.499 -6s-23.166 -4.83301 -32.499 -7.5l-33 137c15.333 6 32.666 11.667 51.999 17
s39.666 9.66602 60.999 12.999s43.166 6 65.499 8s43.833 3 64.5 3c34.667 0 66.167 -3 94.5 -9s52.333 -16.167 72 -30.5s34.834 -33.166 45.501 -56.499s16 -52 16 -86v-178h49l7 -132c-10 -5.33301 -21.667 -9.83301 -35 -13.5s-27.333 -6.83398 -42 -9.50098
s-29.167 -4.66699 -43.5 -6s-27.5 -2 -39.5 -2c-26 0 -48.833 4.5 -68.5 13.5s-31.167 27.167 -34.5 54.5zM298 195.998c-11.333 -2.66699 -18.5 -7.5 -21.5 -14.5s-4.5 -13.167 -4.5 -18.5c0 -12.667 2.33301 -23 7 -31s13.667 -12 27 -12c12.667 0 23.667 4.66699 33 14
v71zM430 571.998c-20 0 -40.334 2.00098 -61.001 6.00098s-40.834 8.33301 -60.501 13l-55 13c-17 4 -31.5 6 -43.5 6l-54 -39l-62 45c16.667 46.667 35.834 78.334 57.501 95.001s45.5 25 71.5 25c18 0 36.333 -1.83301 55 -5.5s37.334 -7.83398 56.001 -12.501
s37 -8.83398 55 -12.501s35.333 -5.5 52 -5.5l55 41l60 -45c-14 -42.667 -31 -74 -51 -94s-45 -30 -75 -30z" />
    <glyph glyph-name="adieresis" unicode="&#xe4;" horiz-adv-x="650" 
d="M355 53c-14 -16 -29 -28.502 -45 -37.502s-31.333 -15.833 -46 -20.5s-28 -7.5 -40 -8.5s-21 -1.5 -27 -1.5c-34 0 -61.833 5 -83.5 15s-38.667 22.5 -51 37.5s-20.833 31 -25.5 48s-7 32.833 -7 47.5c0 10.667 1.33301 23.334 4 38.001s8.83398 28.834 18.501 42.501
s23.667 25.834 42 36.501s43.166 17.667 74.499 21l172 20v9c0 16 -4.5 28 -13.5 36s-26.167 12 -51.5 12c-12 0 -24.833 -0.5 -38.5 -1.5s-27.167 -2.33301 -40.5 -4s-26.166 -3.66699 -38.499 -6s-23.166 -4.83301 -32.499 -7.5l-33 137c15.333 6 32.666 11.667 51.999 17
s39.666 9.66602 60.999 12.999s43.166 6 65.499 8s43.833 3 64.5 3c34.667 0 66.167 -3 94.5 -9s52.333 -16.167 72 -30.5s34.834 -33.166 45.501 -56.499s16 -52 16 -86v-178h49l7 -132c-10 -5.33301 -21.667 -9.83301 -35 -13.5s-27.333 -6.83398 -42 -9.50098
s-29.167 -4.66699 -43.5 -6s-27.5 -2 -39.5 -2c-26 0 -48.833 4.5 -68.5 13.5s-31.167 27.167 -34.5 54.5zM298 195.998c-11.333 -2.66699 -18.5 -7.5 -21.5 -14.5s-4.5 -13.167 -4.5 -18.5c0 -12.667 2.33301 -23 7 -31s13.667 -12 27 -12c12.667 0 23.667 4.66699 33 14
v71zM529 648.998c0 -27.333 -9.16699 -50.333 -27.5 -69s-41.166 -28 -68.499 -28c-28 0 -51.333 9.33301 -70 28s-28 41.667 -28 69c0 14 2.5 27 7.5 39s12 22.333 21 31s19.333 15.5 31 20.5s24.5 7.5 38.5 7.5c27.333 0 50.166 -9.33301 68.499 -28s27.5 -42 27.5 -70z
M301 648.998c0 -13.333 -2.5 -26 -7.5 -38s-12 -22.333 -21 -31s-19.333 -15.5 -31 -20.5s-24.167 -7.5 -37.5 -7.5c-27.333 0 -50.333 9.33301 -69 28s-28 41.667 -28 69c0 14 2.5 27 7.5 39s11.833 22.333 20.5 31s19 15.5 31 20.5s24.667 7.5 38 7.5
s25.833 -2.5 37.5 -7.5s22 -11.833 31 -20.5s16 -19 21 -31s7.5 -25 7.5 -39z" />
    <glyph glyph-name="aring" unicode="&#xe5;" horiz-adv-x="650" 
d="M355 53c-14 -16 -29 -28.502 -45 -37.502s-31.333 -15.833 -46 -20.5s-28 -7.5 -40 -8.5s-21 -1.5 -27 -1.5c-34 0 -61.833 5 -83.5 15s-38.667 22.5 -51 37.5s-20.833 31 -25.5 48s-7 32.833 -7 47.5c0 10.667 1.33301 23.334 4 38.001s8.83398 28.834 18.501 42.501
s23.667 25.834 42 36.501s43.166 17.667 74.499 21l172 20v9c0 16 -4.5 28 -13.5 36s-26.167 12 -51.5 12c-12 0 -24.833 -0.5 -38.5 -1.5s-27.167 -2.33301 -40.5 -4s-26.166 -3.66699 -38.499 -6s-23.166 -4.83301 -32.499 -7.5l-33 137c15.333 6 32.666 11.667 51.999 17
s39.666 9.66602 60.999 12.999s43.166 6 65.499 8s43.833 3 64.5 3c34.667 0 66.167 -3 94.5 -9s52.333 -16.167 72 -30.5s34.834 -33.166 45.501 -56.499s16 -52 16 -86v-178h49l7 -132c-10 -5.33301 -21.667 -9.83301 -35 -13.5s-27.333 -6.83398 -42 -9.50098
s-29.167 -4.66699 -43.5 -6s-27.5 -2 -39.5 -2c-26 0 -48.833 4.5 -68.5 13.5s-31.167 27.167 -34.5 54.5zM298 195.998c-11.333 -2.66699 -18.5 -7.5 -21.5 -14.5s-4.5 -13.167 -4.5 -18.5c0 -12.667 2.33301 -23 7 -31s13.667 -12 27 -12c12.667 0 23.667 4.66699 33 14
v71zM336 551.998c-21.333 0 -41 3.83203 -59 11.499s-33.833 18 -47.5 31s-24.334 28.167 -32.001 45.5s-11.5 36 -11.5 56c0 19.333 3.83301 37.833 11.5 55.5s18.334 33.167 32.001 46.5s29.5 23.833 47.5 31.5s37.667 11.5 59 11.5s41 -3.83301 59 -11.5
s33.333 -18.167 46 -31.5s22.5 -28.666 29.5 -45.999s10.5 -36 10.5 -56s-3.83301 -38.833 -11.5 -56.5s-18 -33 -31 -46s-28.333 -23.167 -46 -30.5s-36.5 -11 -56.5 -11zM336 743.997c-14.667 0 -26.834 -5.16699 -36.501 -15.5s-14.5 -22.166 -14.5 -35.499
c0 -11.333 4.33301 -22.166 13 -32.499s21.334 -15.5 38.001 -15.5c14.667 0 26 5.16699 34 15.5s12 21.166 12 32.499c0 13.333 -3.83301 25.166 -11.5 35.499s-19.167 15.5 -34.5 15.5z" />
    <glyph glyph-name="ae" unicode="&#xe6;" horiz-adv-x="916" 
d="M631 508c46.667 0 85.834 -6.66602 117.501 -19.999s56.834 -31.5 75.501 -54.5s32 -49.5 40 -79.5s12 -61.667 12 -95v-41h-288c0 -15.333 2 -27.5 6 -36.5s9.83301 -15.833 17.5 -20.5s17.334 -7.66699 29.001 -9s25.167 -2 40.5 -2c21.333 0 45.166 2.5 71.499 7.5
s50.166 10.833 71.499 17.5l41 -135c-18 -10 -37 -18.333 -57 -25s-40.167 -12 -60.5 -16s-40.333 -6.83301 -60 -8.5s-37.834 -2.5 -54.501 -2.5c-29.333 0 -54.833 1.33301 -76.5 4s-40.834 7 -57.501 13s-31.167 13.667 -43.5 23s-23.5 20.333 -33.5 33
c-15.333 -15.333 -31.5 -28 -48.5 -38s-34.333 -17.833 -52 -23.5s-35.667 -9.5 -54 -11.5s-35.833 -3 -52.5 -3c-38 0 -69 5 -93 15s-42.833 22.5 -56.5 37.5s-23 31 -28 48s-7.5 32.833 -7.5 47.5c0 10.667 1.16699 25 3.5 43s9.33301 35.333 21 52s29.667 31.167 54 43.5
s58.5 18.5 102.5 18.5h150v10c0 16 -6.16699 28 -18.5 36s-32.166 12 -59.499 12c-34.667 0 -66.5 -1.83301 -95.5 -5.5s-52.833 -8.16699 -71.5 -13.5l-33 137c15.333 6 32.833 11.667 52.5 17s40.5 9.66602 62.5 12.999s44.333 6 67 8s44.334 3 65.001 3
c11.333 0 24.333 -1 39 -3s29 -5 43 -9s27.167 -9 39.5 -15s22.166 -13.333 29.499 -22c37.333 33.333 87.333 50 150 50zM314 123.001c6.66699 0 15.501 1.66699 26.501 5s20.5 9.66602 28.5 18.999c-3.33301 11.333 -5.83301 22.5 -7.5 33.5s-2.83398 22.5 -3.50098 34.5
h-21c-21.333 0 -37.833 -4.16699 -49.5 -12.5s-17.5 -20.166 -17.5 -35.499c0 -17.333 4.5 -29 13.5 -35s19.167 -9 30.5 -9zM634.001 356.001c-15.333 0 -26.333 -6.16699 -33 -18.5s-10 -27.5 -10 -45.5h81c0 19.333 -2.5 34.833 -7.5 46.5s-15.167 17.5 -30.5 17.5z" />
    <glyph glyph-name="ccedilla" unicode="&#xe7;" horiz-adv-x="563" 
d="M279 254c0 -22.667 2.33691 -40.667 7.00391 -54s11.334 -23.666 20.001 -30.999s18.667 -12.166 30 -14.499s24 -3.5 38 -3.5c9.33301 0 19.666 0.666992 30.999 2s22.666 2.83301 33.999 4.5s22 3.5 32 5.5s18.667 3.66699 26 5l36 -142
c-26.667 -12.667 -56.334 -22 -89.001 -28s-65.334 -9.66699 -98.001 -11l-24 -33c34.667 -7.33301 60.667 -19.833 78 -37.5s26 -40.167 26 -67.5c0 -11.333 -3.16699 -23.833 -9.5 -37.5s-17.833 -26.5 -34.5 -38.5s-39 -22 -67 -30s-63.333 -12.333 -106 -13l-4 78
c36.667 3.33301 63.834 9.16602 81.501 17.499s26.5 18.166 26.5 29.499c0 10 -4.83301 16.5 -14.5 19.5s-20.167 4.5 -31.5 4.5c-6.66699 0 -12.834 -0.166992 -18.501 -0.5s-10.834 -0.833008 -15.501 -1.5l-23 35l57 78c-46.667 4.66699 -84.667 15 -114 31
s-52.333 35.667 -69 59s-28.167 49.333 -34.5 78s-9.5 57.667 -9.5 87c0 33.333 4.16699 65.666 12.5 96.999s23.333 59.333 45 84s51.5 44.334 89.5 59.001s86.667 22 146 22c28 0 57.167 -1.83301 87.5 -5.5s59.5 -10.167 87.5 -19.5l-1 -181h-148v49
c-16 1.33301 -29.167 -0.166992 -39.5 -4.5s-18.5 -10.833 -24.5 -19.5s-10.167 -19.167 -12.5 -31.5s-3.5 -25.833 -3.5 -40.5z" />
    <glyph glyph-name="egrave" unicode="&#xe8;" horiz-adv-x="612" 
d="M323 356c-16 0 -27.334 -6.16699 -34.001 -18.5s-10 -27.5 -10 -45.5h83c0 19.333 -2.66699 34.833 -8 46.5s-15.666 17.5 -30.999 17.5zM319.999 508c48 0 88.167 -6.66797 120.5 -20.001s58.333 -31.5 78 -54.5s33.5 -49.5 41.5 -79.5s12 -61.667 12 -95v-33h-296
c0 -15.333 2 -28 6 -38s10 -17.833 18 -23.5s18 -9.5 30 -11.5s25.667 -3 41 -3c22 0 46.5 2.5 73.5 7.5s51.5 10.833 73.5 17.5l43 -135c-18.667 -10 -38.334 -18.333 -59.001 -25s-41.5 -12 -62.5 -16s-41.5 -6.83301 -61.5 -8.5s-38.667 -2.5 -56 -2.5
c-58 0 -105.167 7.33301 -141.5 22s-65 34 -86 58s-35.333 51.5 -43 82.5s-11.5 62.833 -11.5 95.5c0 36 5 69.833 15 101.5s26.167 59.334 48.5 83.001s51.333 42.5 87 56.5s78.834 21 129.501 21zM120.999 687.999l96 120l190 -182l-65 -78z" />
    <glyph glyph-name="eacute" unicode="&#xe9;" horiz-adv-x="612" 
d="M323 356c-16 0 -27.334 -6.16699 -34.001 -18.5s-10 -27.5 -10 -45.5h83c0 19.333 -2.66699 34.833 -8 46.5s-15.666 17.5 -30.999 17.5zM319.999 508c48 0 88.167 -6.66797 120.5 -20.001s58.333 -31.5 78 -54.5s33.5 -49.5 41.5 -79.5s12 -61.667 12 -95v-33h-296
c0 -15.333 2 -28 6 -38s10 -17.833 18 -23.5s18 -9.5 30 -11.5s25.667 -3 41 -3c22 0 46.5 2.5 73.5 7.5s51.5 10.833 73.5 17.5l43 -135c-18.667 -10 -38.334 -18.333 -59.001 -25s-41.5 -12 -62.5 -16s-41.5 -6.83301 -61.5 -8.5s-38.667 -2.5 -56 -2.5
c-58 0 -105.167 7.33301 -141.5 22s-65 34 -86 58s-35.333 51.5 -43 82.5s-11.5 62.833 -11.5 95.5c0 36 5 69.833 15 101.5s26.167 59.334 48.5 83.001s51.333 42.5 87 56.5s78.834 21 129.501 21zM303.999 547.999l-65 78l189 183l101 -120z" />
    <glyph glyph-name="ecircumflex" unicode="&#xea;" horiz-adv-x="612" 
d="M323 356c-16 0 -27.334 -6.16699 -34.001 -18.5s-10 -27.5 -10 -45.5h83c0 19.333 -2.66699 34.833 -8 46.5s-15.666 17.5 -30.999 17.5zM319.999 508c48 0 88.167 -6.66797 120.5 -20.001s58.333 -31.5 78 -54.5s33.5 -49.5 41.5 -79.5s12 -61.667 12 -95v-33h-296
c0 -15.333 2 -28 6 -38s10 -17.833 18 -23.5s18 -9.5 30 -11.5s25.667 -3 41 -3c22 0 46.5 2.5 73.5 7.5s51.5 10.833 73.5 17.5l43 -135c-18.667 -10 -38.334 -18.333 -59.001 -25s-41.5 -12 -62.5 -16s-41.5 -6.83301 -61.5 -8.5s-38.667 -2.5 -56 -2.5
c-58 0 -105.167 7.33301 -141.5 22s-65 34 -86 58s-35.333 51.5 -43 82.5s-11.5 62.833 -11.5 95.5c0 36 5 69.833 15 101.5s26.167 59.334 48.5 83.001s51.333 42.5 87 56.5s78.834 21 129.501 21zM504.999 535.999l-181 102l-178 -100l-51 60l159 162h142l163 -162z" />
    <glyph glyph-name="edieresis" unicode="&#xeb;" horiz-adv-x="612" 
d="M323 356c-16 0 -27.334 -6.16699 -34.001 -18.5s-10 -27.5 -10 -45.5h83c0 19.333 -2.66699 34.833 -8 46.5s-15.666 17.5 -30.999 17.5zM319.999 508c48 0 88.167 -6.66797 120.5 -20.001s58.333 -31.5 78 -54.5s33.5 -49.5 41.5 -79.5s12 -61.667 12 -95v-33h-296
c0 -15.333 2 -28 6 -38s10 -17.833 18 -23.5s18 -9.5 30 -11.5s25.667 -3 41 -3c22 0 46.5 2.5 73.5 7.5s51.5 10.833 73.5 17.5l43 -135c-18.667 -10 -38.334 -18.333 -59.001 -25s-41.5 -12 -62.5 -16s-41.5 -6.83301 -61.5 -8.5s-38.667 -2.5 -56 -2.5
c-58 0 -105.167 7.33301 -141.5 22s-65 34 -86 58s-35.333 51.5 -43 82.5s-11.5 62.833 -11.5 95.5c0 36 5 69.833 15 101.5s26.167 59.334 48.5 83.001s51.333 42.5 87 56.5s78.834 21 129.501 21zM515.999 648.999c0 -27.333 -9.16699 -50.333 -27.5 -69
s-41.166 -28 -68.499 -28c-28 0 -51.333 9.33301 -70 28s-28 41.667 -28 69c0 14 2.5 27 7.5 39s12 22.333 21 31s19.333 15.5 31 20.5s24.5 7.5 38.5 7.5c27.333 0 50.166 -9.33301 68.499 -28s27.5 -42 27.5 -70zM287.999 648.999c0 -13.333 -2.5 -26 -7.5 -38
s-12 -22.333 -21 -31s-19.333 -15.5 -31 -20.5s-24.167 -7.5 -37.5 -7.5c-27.333 0 -50.333 9.33301 -69 28s-28 41.667 -28 69c0 14 2.5 27 7.5 39s11.833 22.333 20.5 31s19 15.5 31 20.5s24.667 7.5 38 7.5s25.833 -2.5 37.5 -7.5s22 -11.833 31 -20.5s16 -19 21 -31
s7.5 -25 7.5 -39z" />
    <glyph glyph-name="igrave" unicode="&#xec;" horiz-adv-x="434" 
d="M40 352v143h287v-342h67v-139c-23.333 -9.33301 -49.5 -16.333 -78.5 -21s-55.167 -7 -78.5 -7c-28.667 0 -52.5 2.83301 -71.5 8.5s-34.167 14 -45.5 25s-19.333 24.5 -24 40.5s-7 34.333 -7 55v237h-49zM7 688l96 120l190 -182l-65 -78z" />
    <glyph glyph-name="iacute" unicode="&#xed;" horiz-adv-x="434" 
d="M40 352v143h287v-342h67v-139c-23.333 -9.33301 -49.5 -16.333 -78.5 -21s-55.167 -7 -78.5 -7c-28.667 0 -52.5 2.83301 -71.5 8.5s-34.167 14 -45.5 25s-19.333 24.5 -24 40.5s-7 34.333 -7 55v237h-49zM193 548l-65 78l189 183l101 -120z" />
    <glyph glyph-name="icircumflex" unicode="&#xee;" horiz-adv-x="434" 
d="M40 352v143h287v-342h67v-139c-23.333 -9.33301 -49.5 -16.333 -78.5 -21s-55.167 -7 -78.5 -7c-28.667 0 -52.5 2.83301 -71.5 8.5s-34.167 14 -45.5 25s-19.333 24.5 -24 40.5s-7 34.333 -7 55v237h-49zM374 536l-181 102l-178 -100l-51 60l159 162h142l163 -162z" />
    <glyph glyph-name="idieresis" unicode="&#xef;" horiz-adv-x="434" 
d="M40 352v143h287v-342h67v-139c-23.333 -9.33301 -49.5 -16.333 -78.5 -21s-55.167 -7 -78.5 -7c-28.667 0 -52.5 2.83301 -71.5 8.5s-34.167 14 -45.5 25s-19.333 24.5 -24 40.5s-7 34.333 -7 55v237h-49zM398 649c0 -27.333 -9.16699 -50.333 -27.5 -69
s-41.166 -28 -68.499 -28c-28 0 -51.333 9.33301 -70 28s-28 41.667 -28 69c0 14 2.5 27 7.5 39s12 22.333 21 31s19.333 15.5 31 20.5s24.5 7.5 38.5 7.5c27.333 0 50.166 -9.33301 68.499 -28s27.5 -42 27.5 -70zM170 649c0 -13.333 -2.5 -26 -7.5 -38
s-12 -22.333 -21 -31s-19.333 -15.5 -31 -20.5s-24.167 -7.5 -37.5 -7.5c-27.333 0 -50.333 9.33301 -69 28s-28 41.667 -28 69c0 14 2.5 27 7.5 39s11.833 22.333 20.5 31s19 15.5 31 20.5s24.667 7.5 38 7.5s25.833 -2.5 37.5 -7.5s22 -11.833 31 -20.5s16 -19 21 -31
s7.5 -25 7.5 -39z" />
    <glyph glyph-name="eth" unicode="&#xf0;" horiz-adv-x="687" 
d="M500 757l37.998 -52.998l-57 -37c62.667 -45.333 107.334 -100 134.001 -164s36.334 -141.333 29.001 -232c-2.66699 -30.667 -9 -62.667 -19 -96s-26.667 -63.666 -50 -90.999s-54.666 -50 -93.999 -68s-89 -27 -149 -27c-54.667 0 -100.5 7 -137.5 21
s-67 32.5 -90 55.5s-39.5 49.167 -49.5 78.5s-15 59.666 -15 90.999c0 33.333 6.5 64.833 19.5 94.5s31.167 55.667 54.5 78s51.166 40 83.499 53s67.833 19.5 106.5 19.5c10.667 0 24.167 -0.833008 40.5 -2.5s32.5 -6.5 48.5 -14.5c-6 21.333 -14 40.666 -24 57.999
s-21.667 33.666 -35 48.999l-83 -55l-35 54l68 45c-20.667 14.667 -45 29.334 -73 44.001l57 111c28.667 -9.33301 55.667 -19.333 81 -30s49.333 -22.334 72 -35.001zM344.998 332.002c-13.333 0 -24.001 -2.33301 -32.001 -7s-14.5 -11 -19.5 -19
s-8.33301 -17.333 -10 -28s-2.5 -21.667 -2.5 -33s0.666992 -23 2 -35s4 -23 8 -33s9.83301 -18.167 17.5 -24.5s18.167 -9.5 31.5 -9.5s24.333 3.66699 33 11s15.5 16.833 20.5 28.5s8.5 25 10.5 40s3 30.5 3 46.5v21.5c0 7 -0.333008 14.167 -1 21.5
c-9.33301 5.33301 -19.166 10 -29.499 14s-20.833 6 -31.5 6z" />
    <glyph glyph-name="ntilde" unicode="&#xf1;" horiz-adv-x="747" 
d="M477 508c122 0 183.003 -61.666 183.003 -184.999v-170h57v-139c-23.333 -9.33301 -47.833 -16.333 -73.5 -21s-50.167 -7 -73.5 -7c-28.667 0 -52.5 2.83301 -71.5 8.5s-34.167 14 -45.5 25s-19.333 24.5 -24 40.5s-7 34.333 -7 55v159c0 21.333 -4.5 36.333 -13.5 45
s-21.167 13 -36.5 13c-6.66699 0 -14.334 -1.83301 -23.001 -5.5s-16.667 -9.16699 -24 -16.5v-310h-239v354h-56v142h289v-43l6 -2c23.333 17.333 48.166 31.166 74.499 41.499s52.166 15.5 77.499 15.5zM443.003 572.001c-20 0 -40.334 2.00098 -61.001 6.00098
s-40.834 8.33301 -60.501 13l-55 13c-17 4 -31.5 6 -43.5 6l-54 -39l-62 45c16.667 46.667 35.834 78.334 57.501 95.001s45.5 25 71.5 25c18 0 36.333 -1.83301 55 -5.5s37.334 -7.83398 56.001 -12.501s37 -8.83398 55 -12.501s35.333 -5.5 52 -5.5l55 41l60 -45
c-14 -42.667 -31 -74 -51 -94s-45 -30 -75 -30z" />
    <glyph glyph-name="ograve" unicode="&#xf2;" horiz-adv-x="681" 
d="M641 249c0 -38.667 -6.33301 -73.834 -19 -105.501s-31.667 -59 -57 -82s-56.666 -40.833 -93.999 -53.5s-81 -19 -131 -19s-93.833 6.33301 -131.5 19s-69 30.5 -94 53.5s-43.667 50.333 -56 82s-18.5 66.834 -18.5 105.501c0 38 6.16699 72.833 18.5 104.5
s31 58.667 56 81s56.333 39.833 94 52.5s81.5 19 131.5 19s93.667 -6.33301 131 -19s68.666 -30.167 93.999 -52.5s44.333 -49.333 57 -81s19 -66.5 19 -104.5zM398 249c0 30 -4 54.166 -12 72.499s-23.333 27.5 -46 27.5c-11.333 0 -20.666 -2.66699 -27.999 -8
s-13.333 -12.666 -18 -21.999s-7.83398 -20 -9.50098 -32s-2.5 -24.667 -2.5 -38c0 -31.333 4 -56.833 12 -76.5s23.333 -29.5 46 -29.5s38 9.5 46 28.5s12 44.833 12 77.5zM125 687.999l96 120l190 -182l-65 -78z" />
    <glyph glyph-name="oacute" unicode="&#xf3;" horiz-adv-x="681" 
d="M641 249c0 -38.667 -6.33301 -73.834 -19 -105.501s-31.667 -59 -57 -82s-56.666 -40.833 -93.999 -53.5s-81 -19 -131 -19s-93.833 6.33301 -131.5 19s-69 30.5 -94 53.5s-43.667 50.333 -56 82s-18.5 66.834 -18.5 105.501c0 38 6.16699 72.833 18.5 104.5
s31 58.667 56 81s56.333 39.833 94 52.5s81.5 19 131.5 19s93.667 -6.33301 131 -19s68.666 -30.167 93.999 -52.5s44.333 -49.333 57 -81s19 -66.5 19 -104.5zM398 249c0 30 -4 54.166 -12 72.499s-23.333 27.5 -46 27.5c-11.333 0 -20.666 -2.66699 -27.999 -8
s-13.333 -12.666 -18 -21.999s-7.83398 -20 -9.50098 -32s-2.5 -24.667 -2.5 -38c0 -31.333 4 -56.833 12 -76.5s23.333 -29.5 46 -29.5s38 9.5 46 28.5s12 44.833 12 77.5zM341 547.999l-65 78l189 183l101 -120z" />
    <glyph glyph-name="ocircumflex" unicode="&#xf4;" horiz-adv-x="681" 
d="M641 249c0 -38.667 -6.33301 -73.834 -19 -105.501s-31.667 -59 -57 -82s-56.666 -40.833 -93.999 -53.5s-81 -19 -131 -19s-93.833 6.33301 -131.5 19s-69 30.5 -94 53.5s-43.667 50.333 -56 82s-18.5 66.834 -18.5 105.501c0 38 6.16699 72.833 18.5 104.5
s31 58.667 56 81s56.333 39.833 94 52.5s81.5 19 131.5 19s93.667 -6.33301 131 -19s68.666 -30.167 93.999 -52.5s44.333 -49.333 57 -81s19 -66.5 19 -104.5zM398 249c0 30 -4 54.166 -12 72.499s-23.333 27.5 -46 27.5c-11.333 0 -20.666 -2.66699 -27.999 -8
s-13.333 -12.666 -18 -21.999s-7.83398 -20 -9.50098 -32s-2.5 -24.667 -2.5 -38c0 -31.333 4 -56.833 12 -76.5s23.333 -29.5 46 -29.5s38 9.5 46 28.5s12 44.833 12 77.5zM519 535.999l-181 102l-178 -100l-51 60l159 162h142l163 -162z" />
    <glyph glyph-name="otilde" unicode="&#xf5;" horiz-adv-x="681" 
d="M641 249c0 -38.667 -6.33301 -73.834 -19 -105.501s-31.667 -59 -57 -82s-56.666 -40.833 -93.999 -53.5s-81 -19 -131 -19s-93.833 6.33301 -131.5 19s-69 30.5 -94 53.5s-43.667 50.333 -56 82s-18.5 66.834 -18.5 105.501c0 38 6.16699 72.833 18.5 104.5
s31 58.667 56 81s56.333 39.833 94 52.5s81.5 19 131.5 19s93.667 -6.33301 131 -19s68.666 -30.167 93.999 -52.5s44.333 -49.333 57 -81s19 -66.5 19 -104.5zM398 249c0 30 -4 54.166 -12 72.499s-23.333 27.5 -46 27.5c-11.333 0 -20.666 -2.66699 -27.999 -8
s-13.333 -12.666 -18 -21.999s-7.83398 -20 -9.50098 -32s-2.5 -24.667 -2.5 -38c0 -31.333 4 -56.833 12 -76.5s23.333 -29.5 46 -29.5s38 9.5 46 28.5s12 44.833 12 77.5zM446 555.999c-20 0 -40.334 2.00098 -61.001 6.00098s-40.834 8.33301 -60.501 13l-55 13
c-17 4 -31.5 6 -43.5 6l-54 -39l-62 45c16.667 46.667 35.834 78.334 57.501 95.001s45.5 25 71.5 25c18 0 36.333 -1.83301 55 -5.5s37.334 -7.83398 56.001 -12.501s37 -8.83398 55 -12.501s35.333 -5.5 52 -5.5l55 41l60 -45c-14 -42.667 -31 -74 -51 -94
s-45 -30 -75 -30z" />
    <glyph glyph-name="odieresis" unicode="&#xf6;" horiz-adv-x="681" 
d="M641 249c0 -38.667 -6.33301 -73.834 -19 -105.501s-31.667 -59 -57 -82s-56.666 -40.833 -93.999 -53.5s-81 -19 -131 -19s-93.833 6.33301 -131.5 19s-69 30.5 -94 53.5s-43.667 50.333 -56 82s-18.5 66.834 -18.5 105.501c0 38 6.16699 72.833 18.5 104.5
s31 58.667 56 81s56.333 39.833 94 52.5s81.5 19 131.5 19s93.667 -6.33301 131 -19s68.666 -30.167 93.999 -52.5s44.333 -49.333 57 -81s19 -66.5 19 -104.5zM398 249c0 30 -4 54.166 -12 72.499s-23.333 27.5 -46 27.5c-11.333 0 -20.666 -2.66699 -27.999 -8
s-13.333 -12.666 -18 -21.999s-7.83398 -20 -9.50098 -32s-2.5 -24.667 -2.5 -38c0 -31.333 4 -56.833 12 -76.5s23.333 -29.5 46 -29.5s38 9.5 46 28.5s12 44.833 12 77.5zM550 648.999c0 -27.333 -9.16699 -50.333 -27.5 -69s-41.166 -28 -68.499 -28
c-28 0 -51.333 9.33301 -70 28s-28 41.667 -28 69c0 14 2.5 27 7.5 39s12 22.333 21 31s19.333 15.5 31 20.5s24.5 7.5 38.5 7.5c27.333 0 50.166 -9.33301 68.499 -28s27.5 -42 27.5 -70zM322 648.999c0 -13.333 -2.5 -26 -7.5 -38s-12 -22.333 -21 -31
s-19.333 -15.5 -31 -20.5s-24.167 -7.5 -37.5 -7.5c-27.333 0 -50.333 9.33301 -69 28s-28 41.667 -28 69c0 14 2.5 27 7.5 39s11.833 22.333 20.5 31s19 15.5 31 20.5s24.667 7.5 38 7.5s25.833 -2.5 37.5 -7.5s22 -11.833 31 -20.5s16 -19 21 -31s7.5 -25 7.5 -39z" />
    <glyph glyph-name="divide" unicode="&#xf7;" horiz-adv-x="662" 
d="M421 503c0 -25.333 -8.83301 -46.833 -26.5 -64.5s-39.167 -26.5 -64.5 -26.5c-12.667 0 -24.667 2.33301 -36 7s-21.166 11.167 -29.499 19.5s-14.833 18 -19.5 29s-7 22.833 -7 35.5s2.33301 24.5 7 35.5s11.167 20.667 19.5 29s18.166 14.833 29.499 19.5
s23.333 7 36 7c25.333 0 46.833 -8.83301 64.5 -26.5s26.5 -39.167 26.5 -64.5zM97 248v124h466v-124h-466zM421 117c0 -25.333 -8.83301 -47 -26.5 -65s-39.167 -27 -64.5 -27c-12.667 0 -24.667 2.5 -36 7.5s-21.166 11.667 -29.499 20s-14.833 18 -19.5 29
s-7 22.833 -7 35.5s2.33301 24.5 7 35.5s11.167 20.667 19.5 29s18.166 14.833 29.499 19.5s23.333 7 36 7c25.333 0 46.833 -8.83301 64.5 -26.5s26.5 -39.167 26.5 -64.5z" />
    <glyph glyph-name="oslash" unicode="&#xf8;" horiz-adv-x="681" 
d="M641 249c0 -38.667 -6.33398 -73.833 -19.001 -105.5s-31.667 -59 -57 -82s-56.666 -40.833 -93.999 -53.5s-81 -19 -131 -19c-74 0 -134.667 13.667 -182 41l-38 -38h-82l73 72c-24 23.333 -41.833 50.5 -53.5 81.5s-17.5 65.5 -17.5 103.5s6.16699 72.833 18.5 104.5
s31 58.667 56 81s56.333 39.833 94 52.5s81.5 19 131.5 19c71.333 0 131 -13.333 179 -40l40 40h83l-75 -74c49.333 -45.333 74 -106.333 74 -183zM397.999 265.001l-100.999 -98c9.33301 -16 23.666 -24 42.999 -24c22.667 0 38 9.5 46 28.5s12 44.833 12 77.5v16z
M282 233.001l97.999 96.999c-9.33301 12.667 -22.666 19 -39.999 19c-11.333 0 -20.666 -2.66699 -27.999 -8s-13.333 -12.666 -18 -21.999s-7.83398 -20 -9.50098 -32s-2.5 -24.667 -2.5 -38v-16z" />
    <glyph glyph-name="ugrave" unicode="&#xf9;" horiz-adv-x="735" 
d="M369 496h279v-343h57v-140c-36 -12 -66.833 -19.5 -92.5 -22.5s-46.167 -4.5 -61.5 -4.5c-43.333 0 -74.166 7.16699 -92.499 21.5s-30.166 32.833 -35.499 55.5c-21.333 -21.333 -45.333 -39.5 -72 -54.5s-58 -22.5 -94 -22.5c-24.667 0 -47.334 3.33301 -68.001 10
s-38.5 17 -53.5 31s-26.833 32 -35.5 54s-13 48.333 -13 79v192h-57v143h295v-276c0 -19.333 3.16699 -32.833 9.5 -40.5s17.166 -11.5 32.499 -11.5c3.33301 0 9.5 1.66699 18.5 5s17.167 9.33301 24.5 18v163h-41v143zM148 688l96 120l190 -182l-65 -78z" />
    <glyph glyph-name="uacute" unicode="&#xfa;" horiz-adv-x="735" 
d="M369 496h279v-343h57v-140c-36 -12 -66.833 -19.5 -92.5 -22.5s-46.167 -4.5 -61.5 -4.5c-43.333 0 -74.166 7.16699 -92.499 21.5s-30.166 32.833 -35.499 55.5c-21.333 -21.333 -45.333 -39.5 -72 -54.5s-58 -22.5 -94 -22.5c-24.667 0 -47.334 3.33301 -68.001 10
s-38.5 17 -53.5 31s-26.833 32 -35.5 54s-13 48.333 -13 79v192h-57v143h295v-276c0 -19.333 3.16699 -32.833 9.5 -40.5s17.166 -11.5 32.499 -11.5c3.33301 0 9.5 1.66699 18.5 5s17.167 9.33301 24.5 18v163h-41v143zM361 548l-65 78l189 183l101 -120z" />
    <glyph glyph-name="ucircumflex" unicode="&#xfb;" horiz-adv-x="735" 
d="M369 496h279v-343h57v-140c-36 -12 -66.833 -19.5 -92.5 -22.5s-46.167 -4.5 -61.5 -4.5c-43.333 0 -74.166 7.16699 -92.499 21.5s-30.166 32.833 -35.499 55.5c-21.333 -21.333 -45.333 -39.5 -72 -54.5s-58 -22.5 -94 -22.5c-24.667 0 -47.334 3.33301 -68.001 10
s-38.5 17 -53.5 31s-26.833 32 -35.5 54s-13 48.333 -13 79v192h-57v143h295v-276c0 -19.333 3.16699 -32.833 9.5 -40.5s17.166 -11.5 32.499 -11.5c3.33301 0 9.5 1.66699 18.5 5s17.167 9.33301 24.5 18v163h-41v143zM545 536l-181 102l-178 -100l-51 60l159 162h142
l163 -162z" />
    <glyph glyph-name="udieresis" unicode="&#xfc;" horiz-adv-x="735" 
d="M369 496h279v-343h57v-140c-36 -12 -66.833 -19.5 -92.5 -22.5s-46.167 -4.5 -61.5 -4.5c-43.333 0 -74.166 7.16699 -92.499 21.5s-30.166 32.833 -35.499 55.5c-21.333 -21.333 -45.333 -39.5 -72 -54.5s-58 -22.5 -94 -22.5c-24.667 0 -47.334 3.33301 -68.001 10
s-38.5 17 -53.5 31s-26.833 32 -35.5 54s-13 48.333 -13 79v192h-57v143h295v-276c0 -19.333 3.16699 -32.833 9.5 -40.5s17.166 -11.5 32.499 -11.5c3.33301 0 9.5 1.66699 18.5 5s17.167 9.33301 24.5 18v163h-41v143zM565 649c0 -27.333 -9.16699 -50.333 -27.5 -69
s-41.166 -28 -68.499 -28c-28 0 -51.333 9.33301 -70 28s-28 41.667 -28 69c0 14 2.5 27 7.5 39s12 22.333 21 31s19.333 15.5 31 20.5s24.5 7.5 38.5 7.5c27.333 0 50.166 -9.33301 68.499 -28s27.5 -42 27.5 -70zM337 649c0 -13.333 -2.5 -26 -7.5 -38
s-12 -22.333 -21 -31s-19.333 -15.5 -31 -20.5s-24.167 -7.5 -37.5 -7.5c-27.333 0 -50.333 9.33301 -69 28s-28 41.667 -28 69c0 14 2.5 27 7.5 39s11.833 22.333 20.5 31s19 15.5 31 20.5s24.667 7.5 38 7.5s25.833 -2.5 37.5 -7.5s22 -11.833 31 -20.5s16 -19 21 -31
s7.5 -25 7.5 -39z" />
    <glyph glyph-name="yacute" unicode="&#xfd;" horiz-adv-x="705" 
d="M451 -126c-6 -14 -12.832 -27.167 -20.499 -39.5s-17.167 -23 -28.5 -32s-25 -16 -41 -21s-35 -7.5 -57 -7.5c-7.33301 0 -18.5 0.5 -33.5 1.5s-31.5 2.83301 -49.5 5.5s-36.833 6.16699 -56.5 10.5s-37.834 9.5 -54.501 15.5l25 147c14.667 -2 28 -3.66699 40 -5
s22.667 -2 32 -2c20 0 35.833 3.66699 47.5 11s21.167 21.333 28.5 42l9 26h-112l-116 311h-49v158h229l67 -230l32 -119h4l39 128l24 78h-40v143h315v-143h-42zM333.001 548l-65 78l189 183l101 -120z" />
    <glyph glyph-name="thorn" unicode="&#xfe;" horiz-adv-x="723" 
d="M86 550h-57.0029v142h287v-228l3 -1c12.667 8 25.834 14.833 39.501 20.5s26.834 10 39.501 13s24.334 5.16699 35.001 6.5s19.334 2 26.001 2c43.333 0 79.333 -6.33301 108 -19s51.667 -30 69 -52s29.5 -48 36.5 -78s10.5 -62.333 10.5 -97
c0 -39.333 -4 -75.5 -12 -108.5s-21 -61.333 -39 -85s-41.833 -42.167 -71.5 -55.5s-65.834 -20 -108.501 -20c-6.66699 0 -15.167 0.5 -25.5 1.5s-21.5 2.5 -33.5 4.5s-24.167 4.5 -36.5 7.5s-23.5 6.5 -33.5 10.5v-85h57v-142h-350v142h56v621zM386.997 151
c4.66699 0 10.499 0.999023 17.499 2.99902s13.833 6.5 20.5 13.5s12.167 17.333 16.5 31s6.5 32.167 6.5 55.5c0 22.667 -2 40.334 -6 53.001s-9.16699 22 -15.5 28s-13.166 9.5 -20.499 10.5s-14.333 1.5 -21 1.5c-7.33301 0 -16.5 -1.5 -27.5 -4.5
s-22.167 -7.5 -33.5 -13.5v-162c12.667 -6 24 -10.167 34 -12.5s19.667 -3.5 29 -3.5z" />
    <glyph glyph-name="ydieresis" unicode="&#xff;" horiz-adv-x="705" 
d="M451 -126c-6 -14 -12.832 -27.167 -20.499 -39.5s-17.167 -23 -28.5 -32s-25 -16 -41 -21s-35 -7.5 -57 -7.5c-7.33301 0 -18.5 0.5 -33.5 1.5s-31.5 2.83301 -49.5 5.5s-36.833 6.16699 -56.5 10.5s-37.834 9.5 -54.501 15.5l25 147c14.667 -2 28 -3.66699 40 -5
s22.667 -2 32 -2c20 0 35.833 3.66699 47.5 11s21.167 21.333 28.5 42l9 26h-112l-116 311h-49v158h229l67 -230l32 -119h4l39 128l24 78h-40v143h315v-143h-42zM539.001 649c0 -27.333 -9.16699 -50.333 -27.5 -69s-41.166 -28 -68.499 -28c-28 0 -51.333 9.33301 -70 28
s-28 41.667 -28 69c0 14 2.5 27 7.5 39s12 22.333 21 31s19.333 15.5 31 20.5s24.5 7.5 38.5 7.5c27.333 0 50.166 -9.33301 68.499 -28s27.5 -42 27.5 -70zM311.001 649c0 -13.333 -2.5 -26 -7.5 -38s-12 -22.333 -21 -31s-19.333 -15.5 -31 -20.5s-24.167 -7.5 -37.5 -7.5
c-27.333 0 -50.333 9.33301 -69 28s-28 41.667 -28 69c0 14 2.5 27 7.5 39s11.833 22.333 20.5 31s19 15.5 31 20.5s24.667 7.5 38 7.5s25.833 -2.5 37.5 -7.5s22 -11.833 31 -20.5s16 -19 21 -31s7.5 -25 7.5 -39z" />
    <glyph glyph-name="Amacron" unicode="&#x100;" horiz-adv-x="852" 
d="M522 194h-209l-15 -45h56v-149h-334v149h53l213 544h297l195 -544h54v-149h-349v149h53zM386 401l-24 -68h117l-21 66l-32 111h-4zM241 885h400v-136h-400v136z" />
    <glyph glyph-name="amacron" unicode="&#x101;" horiz-adv-x="650" 
d="M355 53c-14 -16 -29 -28.502 -45 -37.502s-31.333 -15.833 -46 -20.5s-28 -7.5 -40 -8.5s-21 -1.5 -27 -1.5c-34 0 -61.833 5 -83.5 15s-38.667 22.5 -51 37.5s-20.833 31 -25.5 48s-7 32.833 -7 47.5c0 10.667 1.33301 23.334 4 38.001s8.83398 28.834 18.501 42.501
s23.667 25.834 42 36.501s43.166 17.667 74.499 21l172 20v9c0 16 -4.5 28 -13.5 36s-26.167 12 -51.5 12c-12 0 -24.833 -0.5 -38.5 -1.5s-27.167 -2.33301 -40.5 -4s-26.166 -3.66699 -38.499 -6s-23.166 -4.83301 -32.499 -7.5l-33 137c15.333 6 32.666 11.667 51.999 17
s39.666 9.66602 60.999 12.999s43.166 6 65.499 8s43.833 3 64.5 3c34.667 0 66.167 -3 94.5 -9s52.333 -16.167 72 -30.5s34.834 -33.166 45.501 -56.499s16 -52 16 -86v-178h49l7 -132c-10 -5.33301 -21.667 -9.83301 -35 -13.5s-27.333 -6.83398 -42 -9.50098
s-29.167 -4.66699 -43.5 -6s-27.5 -2 -39.5 -2c-26 0 -48.833 4.5 -68.5 13.5s-31.167 27.167 -34.5 54.5zM298 195.998c-11.333 -2.66699 -18.5 -7.5 -21.5 -14.5s-4.5 -13.167 -4.5 -18.5c0 -12.667 2.33301 -23 7 -31s13.667 -12 27 -12c12.667 0 23.667 4.66699 33 14
v71zM130 684.998h400v-136h-400v136z" />
    <glyph glyph-name="Abreve" unicode="&#x102;" horiz-adv-x="852" 
d="M522 194h-209l-15 -45h56v-149h-334v149h53l213 544h297l195 -544h54v-149h-349v149h53zM386 401l-24 -68h117l-21 66l-32 111h-4zM430 747c-22.667 0 -44.3359 4 -65.0029 12s-40.167 19 -58.5 33s-35.5 30.5 -51.5 49.5s-30.667 39.833 -44 62.5l78 64
c12.667 -17.333 25.834 -32 39.501 -44s26.834 -21.833 39.501 -29.5s24.667 -13.167 36 -16.5s21.333 -5 30 -5c6 0 13.333 0.333008 22 1s19.667 3.66699 33 9s29 14 47 26s39.667 29.667 65 53l58 -59c-18 -30 -36.667 -55 -56 -75s-39 -36 -59 -48
s-39.667 -20.5 -59 -25.5s-37.666 -7.5 -54.999 -7.5z" />
    <glyph glyph-name="abreve" unicode="&#x103;" horiz-adv-x="650" 
d="M355 53c-14 -16 -29 -28.502 -45 -37.502s-31.333 -15.833 -46 -20.5s-28 -7.5 -40 -8.5s-21 -1.5 -27 -1.5c-34 0 -61.833 5 -83.5 15s-38.667 22.5 -51 37.5s-20.833 31 -25.5 48s-7 32.833 -7 47.5c0 10.667 1.33301 23.334 4 38.001s8.83398 28.834 18.501 42.501
s23.667 25.834 42 36.501s43.166 17.667 74.499 21l172 20v9c0 16 -4.5 28 -13.5 36s-26.167 12 -51.5 12c-12 0 -24.833 -0.5 -38.5 -1.5s-27.167 -2.33301 -40.5 -4s-26.166 -3.66699 -38.499 -6s-23.166 -4.83301 -32.499 -7.5l-33 137c15.333 6 32.666 11.667 51.999 17
s39.666 9.66602 60.999 12.999s43.166 6 65.499 8s43.833 3 64.5 3c34.667 0 66.167 -3 94.5 -9s52.333 -16.167 72 -30.5s34.834 -33.166 45.501 -56.499s16 -52 16 -86v-178h49l7 -132c-10 -5.33301 -21.667 -9.83301 -35 -13.5s-27.333 -6.83398 -42 -9.50098
s-29.167 -4.66699 -43.5 -6s-27.5 -2 -39.5 -2c-26 0 -48.833 4.5 -68.5 13.5s-31.167 27.167 -34.5 54.5zM298 195.998c-11.333 -2.66699 -18.5 -7.5 -21.5 -14.5s-4.5 -13.167 -4.5 -18.5c0 -12.667 2.33301 -23 7 -31s13.667 -12 27 -12c12.667 0 23.667 4.66699 33 14
v71zM320 547.998c-22.667 0 -44.3359 4 -65.0029 12s-40.167 19 -58.5 33s-35.5 30.5 -51.5 49.5s-30.667 39.833 -44 62.5l78 64c12.667 -17.333 25.834 -32 39.501 -44s26.834 -21.833 39.501 -29.5s24.667 -13.167 36 -16.5s21.333 -5 30 -5c6 0 13.333 0.333008 22 1
s19.667 3.66699 33 9s29 14 47 26s39.667 29.667 65 53l58 -59c-18 -30 -36.667 -55 -56 -75s-39 -36 -59 -48s-39.667 -20.5 -59 -25.5s-37.666 -7.5 -54.999 -7.5z" />
    <glyph glyph-name="Aogonek" unicode="&#x104;" horiz-adv-x="852" 
d="M522 194l-208.999 0.000976562l-15 -45h56v-149h-334v149h53l213 544h297l195 -544h54v-149h-128c-14.667 -20.667 -27.167 -42.334 -37.5 -65.001s-15.5 -43 -15.5 -61c0 -16 3.66699 -28 11 -36s16.833 -13.333 28.5 -16s25 -3 40 -1s30.5 4.66699 46.5 8l20 -63
c-22 -12 -45.333 -21.167 -70 -27.5s-48 -9.5 -70 -9.5c-40.667 0 -71.334 8.5 -92.001 25.5s-31 40.5 -31 70.5c0 10.667 1.33301 22.667 4 36s7.66699 27.5 15 42.5s17.333 30.667 30 47s28.667 32.833 48 49.5h-148v149h53zM386.001 401.001l-24 -68h117l-21 66l-32 111
h-4z" />
    <glyph glyph-name="aogonek" unicode="&#x105;" horiz-adv-x="650" 
d="M355 53c-14 -16 -28.999 -28.5059 -44.999 -37.5059s-31.333 -15.833 -46 -20.5s-28 -7.5 -40 -8.5s-21 -1.5 -27 -1.5c-34 0 -61.833 5 -83.5 15s-38.667 22.5 -51 37.5s-20.833 31 -25.5 48s-7 32.833 -7 47.5c0 10.667 1.33301 23.334 4 38.001
s8.83398 28.834 18.501 42.501s23.667 25.834 42 36.501s43.166 17.667 74.499 21l172 20v9c0 16 -4.5 28 -13.5 36s-26.167 12 -51.5 12c-12 0 -24.833 -0.5 -38.5 -1.5s-27.167 -2.33301 -40.5 -4s-26.166 -3.66699 -38.499 -6s-23.166 -4.83301 -32.499 -7.5l-33 137
c15.333 6 32.666 11.667 51.999 17s39.666 9.66602 60.999 12.999s43.166 6 65.499 8s43.833 3 64.5 3c34.667 0 66.167 -3 94.5 -9s52.333 -16.167 72 -30.5s34.834 -33.166 45.501 -56.499s16 -52 16 -86v-178h49l7 -132c-5.33301 -3.33301 -11 -6 -17 -8
s-12.667 -4 -20 -6c-13.333 -19.333 -24.333 -39.166 -33 -59.499s-13 -38.833 -13 -55.5c0 -16 3.66699 -28 11 -36s16.833 -13.333 28.5 -16s25 -3 40 -1s30.5 4.66699 46.5 8l20 -63c-22 -12 -45.333 -21.167 -70 -27.5s-48 -9.5 -70 -9.5
c-40.667 0 -71.334 8.5 -92.001 25.5s-31 40.5 -31 70.5c0 18.667 4.5 40.834 13.5 66.501s27.167 52.834 54.5 81.501c-5.33301 0 -10.333 -0.166992 -15 -0.5s-9 -0.5 -13 -0.5c-26 0 -48.833 4.5 -68.5 13.5s-31.167 27.167 -34.5 54.5zM298.001 195.994
c-11.333 -2.66699 -18.5 -7.5 -21.5 -14.5s-4.5 -13.167 -4.5 -18.5c0 -12.667 2.33301 -23 7 -31s13.667 -12 27 -12c12.667 0 23.667 4.66699 33 14v71z" />
    <glyph glyph-name="Cacute" unicode="&#x106;" horiz-adv-x="713" 
d="M307 355c0 -40 4.16406 -71.6709 12.4971 -95.0039s20.166 -41 35.499 -53s33.833 -19.5 55.5 -22.5s45.834 -4.5 72.501 -4.5c7.33301 0 17.333 0.5 30 1.5s26.5 2.33301 41.5 4s30 3.66699 45 6s28.167 4.5 39.5 6.5l34 -168c-36.667 -14 -77.5 -24.5 -122.5 -31.5
s-87.833 -10.5 -128.5 -10.5c-76.667 0 -139.167 10.333 -187.5 31s-86.166 47.834 -113.499 81.501s-46 72 -56 115s-15 86.833 -15 131.5c0 46.667 5.33301 91.834 16 135.501s30.167 82.334 58.5 116.001s67.666 60.667 117.999 81s115.5 30.5 195.5 30.5
c35.333 0 69.333 -2.33301 102 -7s65.334 -11.667 98.001 -21v-250h-165v94c-6 1.33301 -11.333 2.16602 -16 2.49902s-9.66699 0.5 -15 0.5c-26 0 -47.667 -4.16699 -65 -12.5s-31.166 -20.166 -41.499 -35.499s-17.666 -33.666 -21.999 -54.999s-6.5 -45 -6.5 -71z
M373.997 746.996l-65 78l189 183l101 -120z" />
    <glyph glyph-name="cacute" unicode="&#x107;" horiz-adv-x="563" 
d="M279 254c0 -22.667 2.33398 -40.6699 7.00098 -54.0029s11.334 -23.666 20.001 -30.999s18.667 -12.166 30 -14.499s24 -3.5 38 -3.5c9.33301 0 19.666 0.666992 30.999 2s22.666 2.83301 33.999 4.5s22 3.5 32 5.5s18.667 3.66699 26 5l36 -142
c-29.333 -13.333 -62.333 -23.166 -99 -29.499s-73 -9.5 -109 -9.5c-58.667 0 -106.5 7.33301 -143.5 22s-66 34.167 -87 58.5s-35.333 52 -43 83s-11.5 62.5 -11.5 94.5c0 33.333 4.16699 65.666 12.5 96.999s23.333 59.333 45 84s51.5 44.334 89.5 59.001
s86.667 22 146 22c28 0 57.167 -1.83301 87.5 -5.5s59.5 -10.167 87.5 -19.5l-1 -181h-148v49c-16 1.33301 -29.167 -0.166992 -39.5 -4.5s-18.5 -10.833 -24.5 -19.5s-10.167 -19.167 -12.5 -31.5s-3.5 -25.833 -3.5 -40.5zM291.001 547.997l-65 78l189 183l101 -120z" />
    <glyph glyph-name="Ccircumflex" unicode="&#x108;" horiz-adv-x="713" 
d="M307 355c0 -40 4.16406 -71.6709 12.4971 -95.0039s20.166 -41 35.499 -53s33.833 -19.5 55.5 -22.5s45.834 -4.5 72.501 -4.5c7.33301 0 17.333 0.5 30 1.5s26.5 2.33301 41.5 4s30 3.66699 45 6s28.167 4.5 39.5 6.5l34 -168c-36.667 -14 -77.5 -24.5 -122.5 -31.5
s-87.833 -10.5 -128.5 -10.5c-76.667 0 -139.167 10.333 -187.5 31s-86.166 47.834 -113.499 81.501s-46 72 -56 115s-15 86.833 -15 131.5c0 46.667 5.33301 91.834 16 135.501s30.167 82.334 58.5 116.001s67.666 60.667 117.999 81s115.5 30.5 195.5 30.5
c35.333 0 69.333 -2.33301 102 -7s65.334 -11.667 98.001 -21v-250h-165v94c-6 1.33301 -11.333 2.16602 -16 2.49902s-9.66699 0.5 -15 0.5c-26 0 -47.667 -4.16699 -65 -12.5s-31.166 -20.166 -41.499 -35.499s-17.666 -33.666 -21.999 -54.999s-6.5 -45 -6.5 -71z
M580.997 746.996l-181 102l-178 -100l-51 60l159 162h142l163 -162z" />
    <glyph glyph-name="ccircumflex" unicode="&#x109;" horiz-adv-x="563" 
d="M279 254c0 -22.667 2.33398 -40.6699 7.00098 -54.0029s11.334 -23.666 20.001 -30.999s18.667 -12.166 30 -14.499s24 -3.5 38 -3.5c9.33301 0 19.666 0.666992 30.999 2s22.666 2.83301 33.999 4.5s22 3.5 32 5.5s18.667 3.66699 26 5l36 -142
c-29.333 -13.333 -62.333 -23.166 -99 -29.499s-73 -9.5 -109 -9.5c-58.667 0 -106.5 7.33301 -143.5 22s-66 34.167 -87 58.5s-35.333 52 -43 83s-11.5 62.5 -11.5 94.5c0 33.333 4.16699 65.666 12.5 96.999s23.333 59.333 45 84s51.5 44.334 89.5 59.001
s86.667 22 146 22c28 0 57.167 -1.83301 87.5 -5.5s59.5 -10.167 87.5 -19.5l-1 -181h-148v49c-16 1.33301 -29.167 -0.166992 -39.5 -4.5s-18.5 -10.833 -24.5 -19.5s-10.167 -19.167 -12.5 -31.5s-3.5 -25.833 -3.5 -40.5zM477.001 535.997l-181 102l-178 -100l-51 60
l159 162h142l163 -162z" />
    <glyph glyph-name="Cdotaccent" unicode="&#x10a;" horiz-adv-x="713" 
d="M307 355c0 -40 4.16406 -71.6709 12.4971 -95.0039s20.166 -41 35.499 -53s33.833 -19.5 55.5 -22.5s45.834 -4.5 72.501 -4.5c7.33301 0 17.333 0.5 30 1.5s26.5 2.33301 41.5 4s30 3.66699 45 6s28.167 4.5 39.5 6.5l34 -168c-36.667 -14 -77.5 -24.5 -122.5 -31.5
s-87.833 -10.5 -128.5 -10.5c-76.667 0 -139.167 10.333 -187.5 31s-86.166 47.834 -113.499 81.501s-46 72 -56 115s-15 86.833 -15 131.5c0 46.667 5.33301 91.834 16 135.501s30.167 82.334 58.5 116.001s67.666 60.667 117.999 81s115.5 30.5 195.5 30.5
c35.333 0 69.333 -2.33301 102 -7s65.334 -11.667 98.001 -21v-250h-165v94c-6 1.33301 -11.333 2.16602 -16 2.49902s-9.66699 0.5 -15 0.5c-26 0 -47.667 -4.16699 -65 -12.5s-31.166 -20.166 -41.499 -35.499s-17.666 -33.666 -21.999 -54.999s-6.5 -45 -6.5 -71z
M501.997 869.996c0 -16 -3 -30.833 -9 -44.5s-14.167 -25.5 -24.5 -35.5s-22.5 -18 -36.5 -24s-28.667 -9 -44 -9c-16 0 -30.833 3 -44.5 9s-25.5 14 -35.5 24s-17.833 21.833 -23.5 35.5s-8.5 28.5 -8.5 44.5c0 15.333 2.83301 29.833 8.5 43.5s13.5 25.667 23.5 36
s21.833 18.5 35.5 24.5s28.5 9 44.5 9c15.333 0 30 -3 44 -9s26.167 -14.167 36.5 -24.5s18.5 -22.333 24.5 -36s9 -28.167 9 -43.5z" />
    <glyph glyph-name="cdotaccent" unicode="&#x10b;" horiz-adv-x="563" 
d="M279 254c0 -22.667 2.33398 -40.6699 7.00098 -54.0029s11.334 -23.666 20.001 -30.999s18.667 -12.166 30 -14.499s24 -3.5 38 -3.5c9.33301 0 19.666 0.666992 30.999 2s22.666 2.83301 33.999 4.5s22 3.5 32 5.5s18.667 3.66699 26 5l36 -142
c-29.333 -13.333 -62.333 -23.166 -99 -29.499s-73 -9.5 -109 -9.5c-58.667 0 -106.5 7.33301 -143.5 22s-66 34.167 -87 58.5s-35.333 52 -43 83s-11.5 62.5 -11.5 94.5c0 33.333 4.16699 65.666 12.5 96.999s23.333 59.333 45 84s51.5 44.334 89.5 59.001
s86.667 22 146 22c28 0 57.167 -1.83301 87.5 -5.5s59.5 -10.167 87.5 -19.5l-1 -181h-148v49c-16 1.33301 -29.167 -0.166992 -39.5 -4.5s-18.5 -10.833 -24.5 -19.5s-10.167 -19.167 -12.5 -31.5s-3.5 -25.833 -3.5 -40.5zM410.001 668.997
c0 -15.333 -2.66699 -29.5 -8 -42.5s-12.666 -24.5 -21.999 -34.5s-20.166 -17.833 -32.499 -23.5s-25.5 -8.5 -39.5 -8.5s-27.167 2.83301 -39.5 8.5s-23 13.5 -32 23.5s-16 21.5 -21 34.5s-7.5 27.167 -7.5 42.5c0 14.667 2.5 28.667 7.5 42s12 25 21 35
s19.667 17.833 32 23.5s25.5 8.5 39.5 8.5s27.167 -2.83301 39.5 -8.5s23.166 -13.5 32.499 -23.5s16.666 -21.667 21.999 -35s8 -27.333 8 -42z" />
    <glyph glyph-name="Ccaron" unicode="&#x10c;" horiz-adv-x="713" 
d="M307 355c0 -40 4.16406 -71.6709 12.4971 -95.0039s20.166 -41 35.499 -53s33.833 -19.5 55.5 -22.5s45.834 -4.5 72.501 -4.5c7.33301 0 17.333 0.5 30 1.5s26.5 2.33301 41.5 4s30 3.66699 45 6s28.167 4.5 39.5 6.5l34 -168c-36.667 -14 -77.5 -24.5 -122.5 -31.5
s-87.833 -10.5 -128.5 -10.5c-76.667 0 -139.167 10.333 -187.5 31s-86.166 47.834 -113.499 81.501s-46 72 -56 115s-15 86.833 -15 131.5c0 46.667 5.33301 91.834 16 135.501s30.167 82.334 58.5 116.001s67.666 60.667 117.999 81s115.5 30.5 195.5 30.5
c35.333 0 69.333 -2.33301 102 -7s65.334 -11.667 98.001 -21v-250h-165v94c-6 1.33301 -11.333 2.16602 -16 2.49902s-9.66699 0.5 -15 0.5c-26 0 -47.667 -4.16699 -65 -12.5s-31.166 -20.166 -41.499 -35.499s-17.666 -33.666 -21.999 -54.999s-6.5 -45 -6.5 -71z
M630.997 910.996l-163 -162h-142l-159 162l51 60l178 -100l181 102z" />
    <glyph glyph-name="ccaron" unicode="&#x10d;" horiz-adv-x="563" 
d="M279 254c0 -22.667 2.33398 -40.6699 7.00098 -54.0029s11.334 -23.666 20.001 -30.999s18.667 -12.166 30 -14.499s24 -3.5 38 -3.5c9.33301 0 19.666 0.666992 30.999 2s22.666 2.83301 33.999 4.5s22 3.5 32 5.5s18.667 3.66699 26 5l36 -142
c-29.333 -13.333 -62.333 -23.166 -99 -29.499s-73 -9.5 -109 -9.5c-58.667 0 -106.5 7.33301 -143.5 22s-66 34.167 -87 58.5s-35.333 52 -43 83s-11.5 62.5 -11.5 94.5c0 33.333 4.16699 65.666 12.5 96.999s23.333 59.333 45 84s51.5 44.334 89.5 59.001
s86.667 22 146 22c28 0 57.167 -1.83301 87.5 -5.5s59.5 -10.167 87.5 -19.5l-1 -181h-148v49c-16 1.33301 -29.167 -0.166992 -39.5 -4.5s-18.5 -10.833 -24.5 -19.5s-10.167 -19.167 -12.5 -31.5s-3.5 -25.833 -3.5 -40.5zM545.001 712.997l-163 -162h-142l-159 162l51 60
l178 -100l181 102z" />
    <glyph glyph-name="Dcaron" unicode="&#x10e;" horiz-adv-x="838" 
d="M45 0v148.999h78v396h-73v148h390c68.667 0 125.5 -9.16699 170.5 -27.5s80.667 -43.166 107 -74.499s44.666 -68 54.999 -110s15.5 -86.333 15.5 -133c0 -45.333 -6 -89 -18 -131s-31.667 -79 -59 -111s-63.166 -57.667 -107.499 -77s-98.833 -29 -163.5 -29h-395z
M366 544.999l-0.000976562 -396.002h50c23.333 0 42.333 5.66699 57 17s26.334 26.333 35.001 45s14.5 39.834 17.5 63.501s4.5 47.834 4.5 72.501c0 25.333 -1.66699 50 -5 74s-9.5 45.167 -18.5 63.5s-21.5 33 -37.5 44s-36.333 16.5 -61 16.5h-42zM616.999 910.997
l-163 -162h-142l-159 162l51 60l178 -100l181 102z" />
    <glyph glyph-name="dcaron" unicode="&#x10f;" horiz-adv-x="975" 
d="M750 671c0 23.333 9.16699 43.332 27.5 59.999s43.166 25 74.499 25c18.667 0 34.334 -3.16699 47.001 -9.5s23 -14.5 31 -24.5s13.833 -21.333 17.5 -34s5.5 -25.334 5.5 -38.001c0 -21.333 -4.5 -42.166 -13.5 -62.499s-20.667 -39.5 -35 -57.5
s-30.5 -34.167 -48.5 -48.5s-36.333 -25.833 -55 -34.5l-51 63c18 13.333 32.5 26.333 43.5 39s17.833 28.334 20.5 47.001c-22.667 3.33301 -39 11.5 -49 24.5s-15 29.833 -15 50.5zM411 38.999c-12 -10 -25.1641 -18.167 -39.4971 -24.5s-28.333 -11.5 -42 -15.5
s-26.334 -6.66699 -38.001 -8s-20.834 -2 -27.501 -2c-43.333 0 -79.333 6.33301 -108 19s-51.667 30 -69 52s-29.5 48 -36.5 78s-10.5 62.333 -10.5 97c0 39.333 4 75.833 12 109.5s21 62.667 39 87s41.667 43.333 71 57s65.666 20.5 108.999 20.5
c6.66699 0 15.167 -0.5 25.5 -1.5s21.5 -2.5 33.5 -4.5s24.167 -4.5 36.5 -7.5s23.5 -6.5 33.5 -10.5v97h-61v142h298v-580h55v-144h-278v38zM336.003 347.999c-5.33301 0 -11.3311 -0.664062 -17.998 -1.99707s-13.334 -5.33301 -20.001 -12s-12.167 -17.334 -16.5 -32.001
s-6.5 -35.334 -6.5 -62.001c0 -22.667 2 -40.334 6 -53.001s9.16699 -22 15.5 -28s13.166 -9.5 20.499 -10.5s14.333 -1.5 21 -1.5c7.33301 0 16.5 1.5 27.5 4.5s22.167 7.5 33.5 13.5v167c-12.667 6 -24 10.167 -34 12.5s-19.667 3.5 -29 3.5z" />
    <glyph glyph-name="Dcroat" unicode="&#x110;" horiz-adv-x="838" 
d="M45 0v148.999h78v159h-72v92h72v145h-73v148h390c68.667 0 125.5 -9.16699 170.5 -27.5s80.667 -43.166 107 -74.499s44.666 -68 54.999 -110s15.5 -86.333 15.5 -133c0 -45.333 -6 -89 -18 -131s-31.667 -79 -59 -111s-63.166 -57.667 -107.499 -77
s-98.833 -29 -163.5 -29h-395zM366 544.999l-0.000976562 -145.002h71v-92h-71v-159h50c23.333 0 42.333 5.66699 57 17s26.334 26.333 35.001 45s14.5 39.834 17.5 63.501s4.5 47.834 4.5 72.501c0 25.333 -1.66699 50 -5 74s-9.5 45.167 -18.5 63.5s-21.5 33 -37.5 44
s-36.333 16.5 -61 16.5h-42z" />
    <glyph glyph-name="dcroat" unicode="&#x111;" horiz-adv-x="722" 
d="M411 39c-12 -10 -25.1641 -18.1689 -39.4971 -24.502s-28.333 -11.5 -42 -15.5s-26.334 -6.66699 -38.001 -8s-20.834 -2 -27.501 -2c-43.333 0 -79.333 5.83301 -108 17.5s-51.667 27.834 -69 48.501s-29.5 45.5 -36.5 74.5s-10.5 60.833 -10.5 95.5
c0 36 4 69.167 12 99.5s21 56.5 39 78.5s41.667 39.167 71 51.5s65.666 18.5 108.999 18.5c6.66699 0 15.167 -0.666992 25.5 -2s21.5 -3.16602 33.5 -5.49902s24.167 -5.33301 36.5 -9s23.5 -7.5 33.5 -11.5v54h-104v63h104v30h-61v132h298v-162h52v-63h-52v-355h55v-144
h-278v38zM336.003 314.998c-5.33301 0 -11.666 -0.665039 -18.999 -1.99805s-14.166 -4.83301 -20.499 -10.5s-11.833 -14.167 -16.5 -25.5s-6.33398 -27 -5.00098 -47c1.33301 -22.667 4.16602 -39.834 8.49902 -51.501s9.5 -19.834 15.5 -24.501s12.333 -7 19 -7h20
c7.33301 0 16.5 1.5 27.5 4.5s22.167 7.5 33.5 13.5v134c-12.667 6 -24 10.167 -34 12.5s-19.667 3.5 -29 3.5z" />
    <glyph glyph-name="Emacron" unicode="&#x112;" horiz-adv-x="776" 
d="M45 0v149h74v396h-74v148h683v-271h-163v123h-203v-123l153 3v-144l-153 3v-135h211v135h163v-284h-691zM219 885h400v-136h-400v136z" />
    <glyph glyph-name="emacron" unicode="&#x113;" horiz-adv-x="612" 
d="M323 356c-16 0 -27.334 -6.16699 -34.001 -18.5s-10 -27.5 -10 -45.5h83c0 19.333 -2.66699 34.833 -8 46.5s-15.666 17.5 -30.999 17.5zM319.999 508c48 0 88.167 -6.66797 120.5 -20.001s58.333 -31.5 78 -54.5s33.5 -49.5 41.5 -79.5s12 -61.667 12 -95v-33h-296
c0 -15.333 2 -28 6 -38s10 -17.833 18 -23.5s18 -9.5 30 -11.5s25.667 -3 41 -3c22 0 46.5 2.5 73.5 7.5s51.5 10.833 73.5 17.5l43 -135c-18.667 -10 -38.334 -18.333 -59.001 -25s-41.5 -12 -62.5 -16s-41.5 -6.83301 -61.5 -8.5s-38.667 -2.5 -56 -2.5
c-58 0 -105.167 7.33301 -141.5 22s-65 34 -86 58s-35.333 51.5 -43 82.5s-11.5 62.833 -11.5 95.5c0 36 5 69.833 15 101.5s26.167 59.334 48.5 83.001s51.333 42.5 87 56.5s78.834 21 129.501 21zM113.999 684.999h400v-136h-400v136z" />
    <glyph glyph-name="Ebreve" unicode="&#x114;" horiz-adv-x="776" 
d="M45 0v149h74v396h-74v148h683v-271h-163v123h-203v-123l153 3v-144l-153 3v-135h211v135h163v-284h-691zM408 747c-22.667 0 -44.3359 4 -65.0029 12s-40.167 19 -58.5 33s-35.5 30.5 -51.5 49.5s-30.667 39.833 -44 62.5l78 64c12.667 -17.333 25.834 -32 39.501 -44
s26.834 -21.833 39.501 -29.5s24.667 -13.167 36 -16.5s21.333 -5 30 -5c6 0 13.333 0.333008 22 1s19.667 3.66699 33 9s29 14 47 26s39.667 29.667 65 53l58 -59c-18 -30 -36.667 -55 -56 -75s-39 -36 -59 -48s-39.667 -20.5 -59 -25.5s-37.666 -7.5 -54.999 -7.5z" />
    <glyph glyph-name="ebreve" unicode="&#x115;" horiz-adv-x="612" 
d="M323 356c-16 0 -27.334 -6.16699 -34.001 -18.5s-10 -27.5 -10 -45.5h83c0 19.333 -2.66699 34.833 -8 46.5s-15.666 17.5 -30.999 17.5zM319.999 508c48 0 88.167 -6.66797 120.5 -20.001s58.333 -31.5 78 -54.5s33.5 -49.5 41.5 -79.5s12 -61.667 12 -95v-33h-296
c0 -15.333 2 -28 6 -38s10 -17.833 18 -23.5s18 -9.5 30 -11.5s25.667 -3 41 -3c22 0 46.5 2.5 73.5 7.5s51.5 10.833 73.5 17.5l43 -135c-18.667 -10 -38.334 -18.333 -59.001 -25s-41.5 -12 -62.5 -16s-41.5 -6.83301 -61.5 -8.5s-38.667 -2.5 -56 -2.5
c-58 0 -105.167 7.33301 -141.5 22s-65 34 -86 58s-35.333 51.5 -43 82.5s-11.5 62.833 -11.5 95.5c0 36 5 69.833 15 101.5s26.167 59.334 48.5 83.001s51.333 42.5 87 56.5s78.834 21 129.501 21zM319.999 547.999c-22.667 0 -44.3359 4 -65.0029 12s-40.167 19 -58.5 33
s-35.5 30.5 -51.5 49.5s-30.667 39.833 -44 62.5l78 64c12.667 -17.333 25.834 -32 39.501 -44s26.834 -21.833 39.501 -29.5s24.667 -13.167 36 -16.5s21.333 -5 30 -5c6 0 13.333 0.333008 22 1s19.667 3.66699 33 9s29 14 47 26s39.667 29.667 65 53l58 -59
c-18 -30 -36.667 -55 -56 -75s-39 -36 -59 -48s-39.667 -20.5 -59 -25.5s-37.666 -7.5 -54.999 -7.5z" />
    <glyph glyph-name="Edotaccent" unicode="&#x116;" horiz-adv-x="776" 
d="M45 0v149h74v396h-74v148h683v-271h-163v123h-203v-123l153 3v-144l-153 3v-135h211v135h163v-284h-691zM485 864c0 -16 -3 -30.833 -9 -44.5s-14.167 -25.5 -24.5 -35.5s-22.5 -18 -36.5 -24s-28.667 -9 -44 -9c-16 0 -30.833 3 -44.5 9s-25.5 14 -35.5 24
s-17.833 21.833 -23.5 35.5s-8.5 28.5 -8.5 44.5c0 15.333 2.83301 29.833 8.5 43.5s13.5 25.667 23.5 36s21.833 18.5 35.5 24.5s28.5 9 44.5 9c15.333 0 30 -3 44 -9s26.167 -14.167 36.5 -24.5s18.5 -22.333 24.5 -36s9 -28.167 9 -43.5z" />
    <glyph glyph-name="edotaccent" unicode="&#x117;" horiz-adv-x="612" 
d="M323 356c-16 0 -27.334 -6.16699 -34.001 -18.5s-10 -27.5 -10 -45.5h83c0 19.333 -2.66699 34.833 -8 46.5s-15.666 17.5 -30.999 17.5zM319.999 508c48 0 88.167 -6.66797 120.5 -20.001s58.333 -31.5 78 -54.5s33.5 -49.5 41.5 -79.5s12 -61.667 12 -95v-33h-296
c0 -15.333 2 -28 6 -38s10 -17.833 18 -23.5s18 -9.5 30 -11.5s25.667 -3 41 -3c22 0 46.5 2.5 73.5 7.5s51.5 10.833 73.5 17.5l43 -135c-18.667 -10 -38.334 -18.333 -59.001 -25s-41.5 -12 -62.5 -16s-41.5 -6.83301 -61.5 -8.5s-38.667 -2.5 -56 -2.5
c-58 0 -105.167 7.33301 -141.5 22s-65 34 -86 58s-35.333 51.5 -43 82.5s-11.5 62.833 -11.5 95.5c0 36 5 69.833 15 101.5s26.167 59.334 48.5 83.001s51.333 42.5 87 56.5s78.834 21 129.501 21zM428.999 669.999c0 -16 -3 -30.833 -9 -44.5s-14.167 -25.5 -24.5 -35.5
s-22.5 -18 -36.5 -24s-28.667 -9 -44 -9c-16 0 -30.833 3 -44.5 9s-25.5 14 -35.5 24s-17.833 21.833 -23.5 35.5s-8.5 28.5 -8.5 44.5c0 15.333 2.83301 29.833 8.5 43.5s13.5 25.667 23.5 36s21.833 18.5 35.5 24.5s28.5 9 44.5 9c15.333 0 30 -3 44 -9
s26.167 -14.167 36.5 -24.5s18.5 -22.333 24.5 -36s9 -28.167 9 -43.5z" />
    <glyph glyph-name="Eogonek" unicode="&#x118;" horiz-adv-x="776" 
d="M712 0c-13.333 -20 -24.832 -40.501 -34.499 -61.501s-14.5 -40.167 -14.5 -57.5c0 -16 3.66699 -28 11 -36s16.833 -13.333 28.5 -16s25 -3 40 -1s30.5 4.66699 46.5 8l20 -63c-22 -12 -45.333 -21.167 -70 -27.5s-48 -9.5 -70 -9.5c-40.667 0 -71.334 8.5 -92.001 25.5
s-31 40.5 -31 70.5c0 20.667 5.83301 45.834 17.5 75.501s35.5 60.5 71.5 92.5h-590v149h74v396h-74v148h683v-271h-163v123h-203v-123l153 3v-144l-153 3v-135h211v135h163v-284h-24z" />
    <glyph glyph-name="eogonek" unicode="&#x119;" horiz-adv-x="612" 
d="M320 508c48 0 88.166 -6.66895 120.499 -20.002s58.333 -31.5 78 -54.5s33.5 -49.5 41.5 -79.5s12 -61.667 12 -95v-33h-296c0 -15.333 2 -28 6 -38s10 -17.833 18 -23.5s18 -9.5 30 -11.5s25.667 -3 41 -3c22 0 46.5 2.5 73.5 7.5s51.5 10.833 73.5 17.5l43 -135
c-3.33301 -2 -6.83301 -3.83301 -10.5 -5.5s-7.16699 -3.16699 -10.5 -4.5c-13.333 -19.333 -24.666 -39.5 -33.999 -60.5s-14 -40.167 -14 -57.5c0 -16 3.66699 -28 11 -36s16.833 -13.333 28.5 -16s25 -3 40 -1s30.5 4.66699 46.5 8l20 -63
c-22 -12 -45.333 -21.167 -70 -27.5s-48 -9.5 -70 -9.5c-40.667 0 -71.334 8.5 -92.001 25.5s-31 40.5 -31 70.5c0 17.333 3.83301 37.5 11.5 60.5s22.5 47.5 44.5 73.5c-19.333 -3.33301 -38.333 -5.66602 -57 -6.99902s-36 -2 -52 -2c-58 0 -105.167 7.33301 -141.5 22
s-65 34 -86 58s-35.333 51.5 -43 82.5s-11.5 62.833 -11.5 95.5c0 36 5 69.833 15 101.5s26.167 59.334 48.5 83.001s51.333 42.5 87 56.5s78.834 21 129.501 21zM322.999 355.998c-16 0 -27.334 -6.16699 -34.001 -18.5s-10 -27.5 -10 -45.5h83
c0 19.333 -2.66699 34.833 -8 46.5s-15.666 17.5 -30.999 17.5z" />
    <glyph glyph-name="Ecaron" unicode="&#x11a;" horiz-adv-x="776" 
d="M45 0v149h74v396h-74v148h683v-271h-163v123h-203v-123l153 3v-144l-153 3v-135h211v135h163v-284h-691zM648 911l-163 -162h-142l-159 162l51 60l178 -100l181 102z" />
    <glyph glyph-name="ecaron" unicode="&#x11b;" horiz-adv-x="612" 
d="M323 356c-16 0 -27.334 -6.16699 -34.001 -18.5s-10 -27.5 -10 -45.5h83c0 19.333 -2.66699 34.833 -8 46.5s-15.666 17.5 -30.999 17.5zM319.999 508c48 0 88.167 -6.66797 120.5 -20.001s58.333 -31.5 78 -54.5s33.5 -49.5 41.5 -79.5s12 -61.667 12 -95v-33h-296
c0 -15.333 2 -28 6 -38s10 -17.833 18 -23.5s18 -9.5 30 -11.5s25.667 -3 41 -3c22 0 46.5 2.5 73.5 7.5s51.5 10.833 73.5 17.5l43 -135c-18.667 -10 -38.334 -18.333 -59.001 -25s-41.5 -12 -62.5 -16s-41.5 -6.83301 -61.5 -8.5s-38.667 -2.5 -56 -2.5
c-58 0 -105.167 7.33301 -141.5 22s-65 34 -86 58s-35.333 51.5 -43 82.5s-11.5 62.833 -11.5 95.5c0 36 5 69.833 15 101.5s26.167 59.334 48.5 83.001s51.333 42.5 87 56.5s78.834 21 129.501 21zM537.999 712.999l-163 -162h-142l-159 162l51 60l178 -100l181 102z" />
    <glyph glyph-name="Gcircumflex" unicode="&#x11c;" horiz-adv-x="785" 
d="M446 710c35.333 0 71.999 -2.33203 109.999 -6.99902s73.333 -11.667 106 -21v-242h-166v91c-14 2 -27.667 3 -41 3c-54 0 -92.167 -16.333 -114.5 -49s-33.5 -76 -33.5 -130c0 -36.667 2.83301 -66.834 8.5 -90.501s13.834 -42.5 24.501 -56.5
s23.834 -23.667 39.501 -29s33.167 -8 52.5 -8c7.33301 0 15.166 0.333008 23.499 1s17.166 1.66699 26.499 3v70h-59v131h322v-131h-47v-212c-45.333 -16.667 -92.5 -28.334 -141.5 -35.001s-93.833 -10 -134.5 -10c-76.667 0 -139.167 10.667 -187.5 32
s-86.166 49 -113.499 83s-46 72.333 -56 115s-15 85.667 -15 129c0 44.667 5.33301 88.834 16 132.501s30.5 82.5 59.5 116.5s69.167 61.5 120.5 82.5s118 31.5 200 31.5zM607.999 747.001l-181 102l-178 -100l-51 60l159 162h142l163 -162z" />
    <glyph glyph-name="gcircumflex" unicode="&#x11d;" horiz-adv-x="685" 
d="M590 394c4.66699 -10 8.49902 -22.6719 11.499 -38.0049s4.5 -27 4.5 -35c0 -30.667 -7.16699 -57 -21.5 -79s-33.5 -40.333 -57.5 -55s-51.667 -25.5 -83 -32.5s-64 -10.833 -98 -11.5l-62 -1c-12 0 -21 -2.66699 -27 -8s-9 -11.333 -9 -18c0 -4 1.5 -7.5 4.5 -10.5
s9.16699 -4.5 18.5 -4.5h163c32 0 61.5 -2 88.5 -6s50.333 -11.333 70 -22s35 -24.834 46 -42.501s16.5 -40.167 16.5 -67.5c0 -20 -4.66699 -41 -14 -63s-27.166 -42 -53.499 -60s-62.833 -32.833 -109.5 -44.5s-107.334 -17.5 -182.001 -17.5
c-51.333 0 -93.833 3.33301 -127.5 10s-60.334 15.334 -80.001 26.001s-33.5 22.834 -41.5 36.501s-12 27.834 -12 42.501c0 49.333 20.667 87 62 113c-15.333 6 -27.333 15.833 -36 29.5s-13 28.834 -13 45.501c0 18.667 6.33301 37.334 19 56.001s33.334 34 62.001 46
c-22.667 9.33301 -40.334 25.333 -53.001 48s-19 50 -19 82c0 34 7.5 63.167 22.5 87.5s35.167 44.333 60.5 60s54.5 27.167 87.5 34.5s67.833 11 104.5 11c24.667 0 47.834 -1.16699 69.501 -3.5s38.834 -5.16602 51.501 -8.49902h200v-95h-57zM284.999 -23.0049
c-7.33301 -4 -12.333 -8.16895 -15 -12.502s-4 -8.16602 -4 -11.499c0 -18.667 21 -28 63 -28c22 0 40.833 2.83301 56.5 8.5s23.5 12.834 23.5 21.501c0 9.33301 -3.33301 15.333 -10 18s-14 4 -22 4h-92zM367.999 322.993c0 27.333 -12.665 41 -37.998 41
c-12.667 0 -21.834 -4.5 -27.501 -13.5s-8.5 -18.833 -8.5 -29.5c0 -25.333 12.667 -38 38 -38c9.33301 0 17.666 3 24.999 9s11 16.333 11 31zM501.001 535.993l-181 102l-178 -100l-51 60l159 162h142l163 -162z" />
    <glyph glyph-name="Gbreve" unicode="&#x11e;" horiz-adv-x="785" 
d="M446 710c35.333 0 71.999 -2.33203 109.999 -6.99902s73.333 -11.667 106 -21v-242h-166v91c-14 2 -27.667 3 -41 3c-54 0 -92.167 -16.333 -114.5 -49s-33.5 -76 -33.5 -130c0 -36.667 2.83301 -66.834 8.5 -90.501s13.834 -42.5 24.501 -56.5
s23.834 -23.667 39.501 -29s33.167 -8 52.5 -8c7.33301 0 15.166 0.333008 23.499 1s17.166 1.66699 26.499 3v70h-59v131h322v-131h-47v-212c-45.333 -16.667 -92.5 -28.334 -141.5 -35.001s-93.833 -10 -134.5 -10c-76.667 0 -139.167 10.667 -187.5 32
s-86.166 49 -113.499 83s-46 72.333 -56 115s-15 85.667 -15 129c0 44.667 5.33301 88.834 16 132.501s30.5 82.5 59.5 116.5s69.167 61.5 120.5 82.5s118 31.5 200 31.5zM406.999 747.001c-22.667 0 -44.3359 4 -65.0029 12s-40.167 19 -58.5 33s-35.5 30.5 -51.5 49.5
s-30.667 39.833 -44 62.5l78 64c12.667 -17.333 25.834 -32 39.501 -44s26.834 -21.833 39.501 -29.5s24.667 -13.167 36 -16.5s21.333 -5 30 -5c6 0 13.333 0.333008 22 1s19.667 3.66699 33 9s29 14 47 26s39.667 29.667 65 53l58 -59c-18 -30 -36.667 -55 -56 -75
s-39 -36 -59 -48s-39.667 -20.5 -59 -25.5s-37.666 -7.5 -54.999 -7.5z" />
    <glyph glyph-name="gbreve" unicode="&#x11f;" horiz-adv-x="685" 
d="M590 394c4.66699 -10 8.49902 -22.6719 11.499 -38.0049s4.5 -27 4.5 -35c0 -30.667 -7.16699 -57 -21.5 -79s-33.5 -40.333 -57.5 -55s-51.667 -25.5 -83 -32.5s-64 -10.833 -98 -11.5l-62 -1c-12 0 -21 -2.66699 -27 -8s-9 -11.333 -9 -18c0 -4 1.5 -7.5 4.5 -10.5
s9.16699 -4.5 18.5 -4.5h163c32 0 61.5 -2 88.5 -6s50.333 -11.333 70 -22s35 -24.834 46 -42.501s16.5 -40.167 16.5 -67.5c0 -20 -4.66699 -41 -14 -63s-27.166 -42 -53.499 -60s-62.833 -32.833 -109.5 -44.5s-107.334 -17.5 -182.001 -17.5
c-51.333 0 -93.833 3.33301 -127.5 10s-60.334 15.334 -80.001 26.001s-33.5 22.834 -41.5 36.501s-12 27.834 -12 42.501c0 49.333 20.667 87 62 113c-15.333 6 -27.333 15.833 -36 29.5s-13 28.834 -13 45.501c0 18.667 6.33301 37.334 19 56.001s33.334 34 62.001 46
c-22.667 9.33301 -40.334 25.333 -53.001 48s-19 50 -19 82c0 34 7.5 63.167 22.5 87.5s35.167 44.333 60.5 60s54.5 27.167 87.5 34.5s67.833 11 104.5 11c24.667 0 47.834 -1.16699 69.501 -3.5s38.834 -5.16602 51.501 -8.49902h200v-95h-57zM284.999 -23.0049
c-7.33301 -4 -12.333 -8.16895 -15 -12.502s-4 -8.16602 -4 -11.499c0 -18.667 21 -28 63 -28c22 0 40.833 2.83301 56.5 8.5s23.5 12.834 23.5 21.501c0 9.33301 -3.33301 15.333 -10 18s-14 4 -22 4h-92zM367.999 322.993c0 27.333 -12.665 41 -37.998 41
c-12.667 0 -21.834 -4.5 -27.501 -13.5s-8.5 -18.833 -8.5 -29.5c0 -25.333 12.667 -38 38 -38c9.33301 0 17.666 3 24.999 9s11 16.333 11 31zM328.001 547.993c-22.667 0 -44.3359 4 -65.0029 12s-40.167 19 -58.5 33s-35.5 30.5 -51.5 49.5s-30.667 39.833 -44 62.5
l78 64c12.667 -17.333 25.834 -32 39.501 -44s26.834 -21.833 39.501 -29.5s24.667 -13.167 36 -16.5s21.333 -5 30 -5c6 0 13.333 0.333008 22 1s19.667 3.66699 33 9s29 14 47 26s39.667 29.667 65 53l58 -59c-18 -30 -36.667 -55 -56 -75s-39 -36 -59 -48
s-39.667 -20.5 -59 -25.5s-37.666 -7.5 -54.999 -7.5z" />
    <glyph glyph-name="Gdotaccent" unicode="&#x120;" horiz-adv-x="785" 
d="M446 710c35.333 0 71.999 -2.33203 109.999 -6.99902s73.333 -11.667 106 -21v-242h-166v91c-14 2 -27.667 3 -41 3c-54 0 -92.167 -16.333 -114.5 -49s-33.5 -76 -33.5 -130c0 -36.667 2.83301 -66.834 8.5 -90.501s13.834 -42.5 24.501 -56.5
s23.834 -23.667 39.501 -29s33.167 -8 52.5 -8c7.33301 0 15.166 0.333008 23.499 1s17.166 1.66699 26.499 3v70h-59v131h322v-131h-47v-212c-45.333 -16.667 -92.5 -28.334 -141.5 -35.001s-93.833 -10 -134.5 -10c-76.667 0 -139.167 10.667 -187.5 32
s-86.166 49 -113.499 83s-46 72.333 -56 115s-15 85.667 -15 129c0 44.667 5.33301 88.834 16 132.501s30.5 82.5 59.5 116.5s69.167 61.5 120.5 82.5s118 31.5 200 31.5zM533.999 873.001c0 -16 -3 -30.833 -9 -44.5s-14.167 -25.5 -24.5 -35.5s-22.5 -18 -36.5 -24
s-28.667 -9 -44 -9c-16 0 -30.833 3 -44.5 9s-25.5 14 -35.5 24s-17.833 21.833 -23.5 35.5s-8.5 28.5 -8.5 44.5c0 15.333 2.83301 29.833 8.5 43.5s13.5 25.667 23.5 36s21.833 18.5 35.5 24.5s28.5 9 44.5 9c15.333 0 30 -3 44 -9s26.167 -14.167 36.5 -24.5
s18.5 -22.333 24.5 -36s9 -28.167 9 -43.5z" />
    <glyph glyph-name="gdotaccent" unicode="&#x121;" horiz-adv-x="685" 
d="M590 394c4.66699 -10 8.49902 -22.6719 11.499 -38.0049s4.5 -27 4.5 -35c0 -30.667 -7.16699 -57 -21.5 -79s-33.5 -40.333 -57.5 -55s-51.667 -25.5 -83 -32.5s-64 -10.833 -98 -11.5l-62 -1c-12 0 -21 -2.66699 -27 -8s-9 -11.333 -9 -18c0 -4 1.5 -7.5 4.5 -10.5
s9.16699 -4.5 18.5 -4.5h163c32 0 61.5 -2 88.5 -6s50.333 -11.333 70 -22s35 -24.834 46 -42.501s16.5 -40.167 16.5 -67.5c0 -20 -4.66699 -41 -14 -63s-27.166 -42 -53.499 -60s-62.833 -32.833 -109.5 -44.5s-107.334 -17.5 -182.001 -17.5
c-51.333 0 -93.833 3.33301 -127.5 10s-60.334 15.334 -80.001 26.001s-33.5 22.834 -41.5 36.501s-12 27.834 -12 42.501c0 49.333 20.667 87 62 113c-15.333 6 -27.333 15.833 -36 29.5s-13 28.834 -13 45.501c0 18.667 6.33301 37.334 19 56.001s33.334 34 62.001 46
c-22.667 9.33301 -40.334 25.333 -53.001 48s-19 50 -19 82c0 34 7.5 63.167 22.5 87.5s35.167 44.333 60.5 60s54.5 27.167 87.5 34.5s67.833 11 104.5 11c24.667 0 47.834 -1.16699 69.501 -3.5s38.834 -5.16602 51.501 -8.49902h200v-95h-57zM284.999 -23.0049
c-7.33301 -4 -12.333 -8.16895 -15 -12.502s-4 -8.16602 -4 -11.499c0 -18.667 21 -28 63 -28c22 0 40.833 2.83301 56.5 8.5s23.5 12.834 23.5 21.501c0 9.33301 -3.33301 15.333 -10 18s-14 4 -22 4h-92zM367.999 322.993c0 27.333 -12.665 41 -37.998 41
c-12.667 0 -21.834 -4.5 -27.501 -13.5s-8.5 -18.833 -8.5 -29.5c0 -25.333 12.667 -38 38 -38c9.33301 0 17.666 3 24.999 9s11 16.333 11 31zM445.001 669.993c0 -16 -3 -30.833 -9 -44.5s-14.167 -25.5 -24.5 -35.5s-22.5 -18 -36.5 -24s-28.667 -9 -44 -9
c-16 0 -30.833 3 -44.5 9s-25.5 14 -35.5 24s-17.833 21.833 -23.5 35.5s-8.5 28.5 -8.5 44.5c0 15.333 2.83301 29.833 8.5 43.5s13.5 25.667 23.5 36s21.833 18.5 35.5 24.5s28.5 9 44.5 9c15.333 0 30 -3 44 -9s26.167 -14.167 36.5 -24.5s18.5 -22.333 24.5 -36
s9 -28.167 9 -43.5z" />
    <glyph glyph-name="Gcommaaccent" unicode="&#x122;" horiz-adv-x="785" 
d="M446 710c35.333 0 71.999 -2.33203 109.999 -6.99902s73.333 -11.667 106 -21v-242h-166v91c-14 2 -27.667 3 -41 3c-54 0 -92.167 -16.333 -114.5 -49s-33.5 -76 -33.5 -130c0 -36.667 2.83301 -66.834 8.5 -90.501s13.834 -42.5 24.501 -56.5
s23.834 -23.667 39.501 -29s33.167 -8 52.5 -8c7.33301 0 15.166 0.333008 23.499 1s17.166 1.66699 26.499 3v70h-59v131h322v-131h-47v-212c-45.333 -16.667 -92.5 -28.334 -141.5 -35.001s-93.833 -10 -134.5 -10c-76.667 0 -139.167 10.667 -187.5 32
s-86.166 49 -113.499 83s-46 72.333 -56 115s-15 85.667 -15 129c0 44.667 5.33301 88.834 16 132.501s30.5 82.5 59.5 116.5s69.167 61.5 120.5 82.5s118 31.5 200 31.5zM327.999 -126.999c0 23.333 9.16699 43.332 27.5 59.999s43.166 25 74.499 25
c18.667 0 34.334 -3.16699 47.001 -9.5s23 -14.5 31 -24.5s13.833 -21.333 17.5 -34s5.5 -25.334 5.5 -38.001c0 -21.333 -4.5 -42.166 -13.5 -62.499s-20.667 -39.5 -35 -57.5s-30.5 -34.167 -48.5 -48.5s-36.333 -25.833 -55 -34.5l-51 63c18 13.333 32.5 26.333 43.5 39
s17.833 28.334 20.5 47.001c-22.667 3.33301 -39 11.5 -49 24.5s-15 29.833 -15 50.5z" />
    <glyph glyph-name="gcommaaccent" unicode="&#x123;" horiz-adv-x="685" 
d="M469 639c0 -25.333 -10.001 -47.167 -30.001 -65.5s-47 -27.5 -81 -27.5c-20 0 -37 3.33301 -51 10s-25.333 15.5 -34 26.5s-15 23.333 -19 37s-6 27.5 -6 41.5c0 22.667 4.83301 45.334 14.5 68.001s22.334 43.667 38.001 63s33.5 36.833 53.5 52.5s40 28.167 60 37.5
l55 -68c-19.333 -14.667 -35 -28.834 -47 -42.501s-19.667 -30.834 -23 -51.501c24.667 -3.33301 42.5 -12.166 53.5 -26.499s16.5 -32.5 16.5 -54.5zM589.999 393.999c4.66699 -10 8.49902 -22.6719 11.499 -38.0049s4.5 -27 4.5 -35c0 -30.667 -7.16699 -57 -21.5 -79
s-33.5 -40.333 -57.5 -55s-51.667 -25.5 -83 -32.5s-64 -10.833 -98 -11.5l-62 -1c-12 0 -21 -2.66699 -27 -8s-9 -11.333 -9 -18c0 -4 1.5 -7.5 4.5 -10.5s9.16699 -4.5 18.5 -4.5h163c32 0 61.5 -2 88.5 -6s50.333 -11.333 70 -22s35 -24.834 46 -42.501
s16.5 -40.167 16.5 -67.5c0 -20 -4.66699 -41 -14 -63s-27.166 -42 -53.499 -60s-62.833 -32.833 -109.5 -44.5s-107.334 -17.5 -182.001 -17.5c-51.333 0 -93.833 3.33301 -127.5 10s-60.334 15.334 -80.001 26.001s-33.5 22.834 -41.5 36.501s-12 27.834 -12 42.501
c0 49.333 20.667 87 62 113c-15.333 6 -27.333 15.833 -36 29.5s-13 28.834 -13 45.501c0 18.667 6.33301 37.334 19 56.001s33.334 34 62.001 46c-22.667 9.33301 -40.334 25.333 -53.001 48s-19 50 -19 82c0 34 7.5 63.167 22.5 87.5s35.167 44.333 60.5 60
s54.5 27.167 87.5 34.5s67.833 11 104.5 11c24.667 0 47.834 -1.16699 69.501 -3.5s38.834 -5.16602 51.501 -8.49902h200v-95h-57zM284.998 -23.0059c-7.33301 -4 -12.333 -8.16895 -15 -12.502s-4 -8.16602 -4 -11.499c0 -18.667 21 -28 63 -28
c22 0 40.833 2.83301 56.5 8.5s23.5 12.834 23.5 21.501c0 9.33301 -3.33301 15.333 -10 18s-14 4 -22 4h-92zM367.998 322.992c0 27.333 -12.665 41 -37.998 41c-12.667 0 -21.834 -4.5 -27.501 -13.5s-8.5 -18.833 -8.5 -29.5c0 -25.333 12.667 -38 38 -38
c9.33301 0 17.666 3 24.999 9s11 16.333 11 31z" />
    <glyph glyph-name="Hcircumflex" unicode="&#x124;" horiz-adv-x="926" 
d="M500 0v149h63v135h-198v-135h63v-149h-383v149h78v396h-78v148h383v-148h-63v-123h198v123h-63v148h381v-148h-76v-396h76v-149h-381zM644 747l-181 102l-178 -100l-51 60l159 162h142l163 -162z" />
    <glyph glyph-name="hcircumflex" unicode="&#x125;" horiz-adv-x="737" 
d="M650 153h57.001v-139c-23.333 -9.33301 -47.833 -16.333 -73.5 -21s-50.167 -7 -73.5 -7c-28.667 0 -52.5 2.83301 -71.5 8.5s-34.167 14 -45.5 25s-19.333 24.5 -24 40.5s-7 34.333 -7 55v159c0 21.333 -4.5 36.333 -13.5 45s-21.167 13 -36.5 13
c-6.66699 0 -14.334 -1.83301 -23.001 -5.5s-16.667 -9.16699 -24 -16.5v-310h-239v582h-56v142h295v-273c48 38 98.667 57 152 57c122 0 183 -61.667 183 -185v-170zM353.001 778l-181 102l-178 -100l-51 60l159 162h142l163 -162z" />
    <glyph glyph-name="Hbar" unicode="&#x126;" horiz-adv-x="926" 
d="M500 0v149h63v125h-198v-125h63v-149h-383v149h78v278h-78v74h78v44h-78v148h383v-148h-63v-44h198v44h-63v148h381v-148h-76v-44h76v-74h-76v-278h76v-149h-381zM563 383v44h-198v-44h198z" />
    <glyph glyph-name="hbar" unicode="&#x127;" horiz-adv-x="737" 
d="M28 489l0.000976562 74h48v33h-56v128h295v-161h139v-74h-139v-94c48 38 98.667 57 152 57c122 0 183 -61.667 183 -185v-114h57v-139c-23.333 -9.33301 -47.833 -16.333 -73.5 -21s-50.167 -7 -73.5 -7c-28.667 0 -52.5 2.83301 -71.5 8.5s-34.167 14 -45.5 25
s-19.333 24.5 -24 40.5s-7 34.333 -7 55v103c0 21.333 -4.5 36.333 -13.5 45s-21.167 13 -36.5 13c-6.66699 0 -14.334 -1.83301 -23.001 -5.5s-16.667 -9.16699 -24 -16.5v-254h-239v489h-48z" />
    <glyph glyph-name="Itilde" unicode="&#x128;" horiz-adv-x="531" 
d="M70 0v149h76v396h-76v148h391v-148h-73v-396h73v-149h-391zM365 758c-20 0 -40.334 2.00098 -61.001 6.00098s-40.834 8.33301 -60.501 13l-55 13c-17 4 -31.5 6 -43.5 6l-54 -39l-62 45c16.667 46.667 35.834 78.334 57.501 95.001s45.5 25 71.5 25
c18 0 36.333 -1.83301 55 -5.5s37.334 -7.83398 56.001 -12.501s37 -8.83398 55 -12.501s35.333 -5.5 52 -5.5l55 41l60 -45c-14 -42.667 -31 -74 -51 -94s-45 -30 -75 -30z" />
    <glyph glyph-name="itilde" unicode="&#x129;" horiz-adv-x="449" 
d="M40 352v143h287v-342h67v-139c-23.333 -9.33301 -49.5 -16.333 -78.5 -21s-55.167 -7 -78.5 -7c-28.667 0 -52.5 2.83301 -71.5 8.5s-34.167 14 -45.5 25s-19.333 24.5 -24 40.5s-7 34.333 -7 55v237h-49zM308 580c-20 0 -40.334 2.00098 -61.001 6.00098
s-40.834 8.33301 -60.501 13l-55 13c-17 4 -31.5 6 -43.5 6l-54 -39l-62 45c16.667 46.667 35.834 78.334 57.501 95.001s45.5 25 71.5 25c18 0 36.333 -1.83301 55 -5.5s37.334 -7.83398 56.001 -12.501s37 -8.83398 55 -12.501s35.333 -5.5 52 -5.5l55 41l60 -45
c-14 -42.667 -31 -74 -51 -94s-45 -30 -75 -30z" />
    <glyph glyph-name="Imacron" unicode="&#x12a;" horiz-adv-x="531" 
d="M70 0v149h76v396h-76v148h391v-148h-73v-396h73v-149h-391zM65 885h400v-136h-400v136z" />
    <glyph glyph-name="imacron" unicode="&#x12b;" horiz-adv-x="434" 
d="M40 352v143h287v-342h67v-139c-23.333 -9.33301 -49.5 -16.333 -78.5 -21s-55.167 -7 -78.5 -7c-28.667 0 -52.5 2.83301 -71.5 8.5s-34.167 14 -45.5 25s-19.333 24.5 -24 40.5s-7 34.333 -7 55v237h-49zM-13 685h400v-136h-400v136z" />
    <glyph glyph-name="Ibreve" unicode="&#x12c;" horiz-adv-x="531" 
d="M265 750c-22.667 0 -44.3359 4 -65.0029 12s-40.167 19 -58.5 33s-35.5 30.5 -51.5 49.5s-30.667 39.833 -44 62.5l78 64c12.667 -17.333 25.834 -32 39.501 -44s26.834 -21.833 39.501 -29.5s24.667 -13.167 36 -16.5s21.333 -5 30 -5c6 0 13.333 0.333008 22 1
s19.667 3.66699 33 9s29 14 47 26s39.667 29.667 65 53l58 -59c-18 -30 -36.667 -55 -56 -75s-39 -36 -59 -48s-39.667 -20.5 -59 -25.5s-37.666 -7.5 -54.999 -7.5zM69.998 0v149h76v396h-76v148h391v-148h-73v-396h73v-149h-391z" />
    <glyph glyph-name="ibreve" unicode="&#x12d;" horiz-adv-x="442" 
d="M40 352v143h287v-342h67v-139c-23.333 -9.33301 -49.5 -16.333 -78.5 -21s-55.167 -7 -78.5 -7c-28.667 0 -52.5 2.83301 -71.5 8.5s-34.167 14 -45.5 25s-19.333 24.5 -24 40.5s-7 34.333 -7 55v237h-49zM198 548c-22.667 0 -44.3359 4 -65.0029 12s-40.167 19 -58.5 33
s-35.5 30.5 -51.5 49.5s-30.667 39.833 -44 62.5l78 64c12.667 -17.333 25.834 -32 39.501 -44s26.834 -21.833 39.501 -29.5s24.667 -13.167 36 -16.5s21.333 -5 30 -5c6 0 13.333 0.333008 22 1s19.667 3.66699 33 9s29 14 47 26s39.667 29.667 65 53l58 -59
c-18 -30 -36.667 -55 -56 -75s-39 -36 -59 -48s-39.667 -20.5 -59 -25.5s-37.666 -7.5 -54.999 -7.5z" />
    <glyph glyph-name="Iogonek" unicode="&#x12e;" horiz-adv-x="531" 
d="M307 0c-13.333 -19.333 -24.499 -39.333 -33.499 -60s-13.5 -39.667 -13.5 -57c0 -16 3.66699 -28 11 -36s16.833 -13.333 28.5 -16s25 -3 40 -1s30.5 4.66699 46.5 8l20 -63c-22 -12 -45.333 -21.167 -70 -27.5s-48 -9.5 -70 -9.5c-40.667 0 -71.334 8.5 -92.001 25.5
s-31 40.5 -31 70.5c0 20.667 5.66699 45.5 17 74.5s34.333 59.5 69 91.5h-159v149h76v396h-76v148h391v-148h-73v-396h73v-149h-154z" />
    <glyph glyph-name="iogonek" unicode="&#x12f;" horiz-adv-x="434" 
d="M40 352l0.00195312 143.001h287v-342h67v-139c-15.333 -6.66699 -31 -11.334 -47 -14.001c-12 -18.667 -21.833 -37.5 -29.5 -56.5s-11.5 -36.167 -11.5 -51.5c0 -16 3.66699 -28 11 -36s16.833 -13.333 28.5 -16s25 -3 40 -1s30.5 4.66699 46.5 8l20 -63
c-22 -12 -45.333 -21.167 -70 -27.5s-48 -9.5 -70 -9.5c-40.667 0 -71.334 8.5 -92.001 25.5s-31 40.5 -31 70.5c0 18 4.16699 39.333 12.5 64s25.166 51 50.499 79h-15c-28.667 0 -52.5 2.83301 -71.5 8.5s-34.167 14 -45.5 25s-19.333 24.5 -24 40.5s-7 34.333 -7 55v237
h-49zM333.002 670.001c0 -18 -3.5 -34.833 -10.5 -50.5s-16.5 -29.334 -28.5 -41.001s-25.833 -20.834 -41.5 -27.501s-32.167 -10 -49.5 -10c-18 0 -34.833 3.33301 -50.5 10s-29.167 15.834 -40.5 27.501s-20.333 25.334 -27 41.001s-10 32.5 -10 50.5
s3.33301 34.833 10 50.5s15.667 29.334 27 41.001s24.833 20.834 40.5 27.501s32.5 10 50.5 10c17.333 0 33.833 -3.33301 49.5 -10s29.5 -15.834 41.5 -27.501s21.5 -25.334 28.5 -41.001s10.5 -32.5 10.5 -50.5z" />
    <glyph glyph-name="Idotaccent" unicode="&#x130;" horiz-adv-x="531" 
d="M70 0v149h76v396h-76v148h391v-148h-73v-396h73v-149h-391zM386 862c0 -16 -3 -30.833 -9 -44.5s-14.167 -25.5 -24.5 -35.5s-22.5 -18 -36.5 -24s-28.667 -9 -44 -9c-16 0 -30.833 3 -44.5 9s-25.5 14 -35.5 24s-17.833 21.833 -23.5 35.5s-8.5 28.5 -8.5 44.5
c0 15.333 2.83301 29.833 8.5 43.5s13.5 25.667 23.5 36s21.833 18.5 35.5 24.5s28.5 9 44.5 9c15.333 0 30 -3 44 -9s26.167 -14.167 36.5 -24.5s18.5 -22.333 24.5 -36s9 -28.167 9 -43.5z" />
    <glyph glyph-name="dotlessi" unicode="&#x131;" horiz-adv-x="434" 
d="M40 352v143h287v-342h67v-139c-23.333 -9.33301 -49.5 -16.333 -78.5 -21s-55.167 -7 -78.5 -7c-28.667 0 -52.5 2.83301 -71.5 8.5s-34.167 14 -45.5 25s-19.333 24.5 -24 40.5s-7 34.333 -7 55v237h-49z" />
    <glyph glyph-name="IJ" unicode="&#x132;" horiz-adv-x="1052" 
d="M70 0v149h76v396h-76v148h391v-148h-73v-396h73v-149h-391zM558 694l424 0.000976562v-149h-83v-351c0 -111.333 -32.667 -200.833 -98 -268.5s-161 -109.834 -287 -126.501l-53 172c44.667 17.333 80 33.5 106 48.5s45.667 31 59 48s22 36.333 26 58s6 48.167 6 79.5
v340l-100 1v148z" />
    <glyph glyph-name="ij" unicode="&#x133;" horiz-adv-x="871" 
d="M41 352v143h287v-342h67v-139c-23.333 -9.33301 -49.5 -16.333 -78.5 -21s-55.167 -7 -78.5 -7c-28.667 0 -52.5 2.83301 -71.5 8.5s-34.167 14 -45.5 25s-19.333 24.5 -24 40.5s-7 34.333 -7 55v237h-49zM334 670c0 -18 -3.5 -34.833 -10.5 -50.5
s-16.5 -29.334 -28.5 -41.001s-25.833 -20.834 -41.5 -27.501s-32.167 -10 -49.5 -10c-18 0 -34.833 3.33301 -50.5 10s-29.167 15.834 -40.5 27.501s-20.333 25.334 -27 41.001s-10 32.5 -10 50.5s3.33301 34.833 10 50.5s15.667 29.334 27 41.001
s24.833 20.834 40.5 27.501s32.5 10 50.5 10c17.333 0 33.833 -3.33301 49.5 -10s29.5 -15.834 41.5 -27.501s21.5 -25.334 28.5 -41.001s10.5 -32.5 10.5 -50.5zM503 495l288 -0.00195312v-385c0 -54.667 -6 -102 -18 -142s-30.667 -74 -56 -102s-57.5 -50.5 -96.5 -67.5
s-85.5 -29.833 -139.5 -38.5l-54 139c28.667 16.667 51.334 31.167 68.001 43.5s29.167 25.833 37.5 40.5s13.666 31.834 15.999 51.501s3.5 44.834 3.5 75.501v242h-49v143zM797 669.998c0 -18 -3.5 -34.833 -10.5 -50.5s-16.5 -29.334 -28.5 -41.001
s-25.833 -20.834 -41.5 -27.501s-32.167 -10 -49.5 -10c-18 0 -34.833 3.33301 -50.5 10s-29.167 15.834 -40.5 27.501s-20.333 25.334 -27 41.001s-10 32.5 -10 50.5s3.33301 34.833 10 50.5s15.667 29.334 27 41.001s24.833 20.834 40.5 27.501s32.5 10 50.5 10
c17.333 0 33.833 -3.33301 49.5 -10s29.5 -15.834 41.5 -27.501s21.5 -25.334 28.5 -41.001s10.5 -32.5 10.5 -50.5z" />
    <glyph glyph-name="Jcircumflex" unicode="&#x134;" horiz-adv-x="571" 
d="M87 695l424 0.000976562v-149h-83v-351c0 -111.333 -32.667 -200.833 -98 -268.5s-161 -109.834 -287 -126.501l-53 172c44.667 17.333 80 33.5 106 48.5s45.667 31 59 48s22 36.333 26 58s6 48.167 6 79.5v340l-100 1v148zM484 747.001l-181 102l-178 -100l-51 60
l159 162h142l163 -162z" />
    <glyph glyph-name="jcircumflex" unicode="&#x135;" horiz-adv-x="442" 
d="M44 495l288 -0.00195312v-385c0 -54.667 -6 -102 -18 -142s-30.667 -74 -56 -102s-57.5 -50.5 -96.5 -67.5s-85.5 -29.833 -139.5 -38.5l-54 139c28.667 16.667 51.334 31.167 68.001 43.5s29.167 25.833 37.5 40.5s13.666 31.834 15.999 51.501s3.5 44.834 3.5 75.501
v242h-49v143zM373 535.998l-181 102l-178 -100l-51 60l159 162h142l163 -162z" />
    <glyph glyph-name="Kcommaaccent" unicode="&#x136;" horiz-adv-x="845" 
d="M590 423l187 -273h55v-150h-372v150h47l-91 136l-60 -47v-90h60v-149h-371v149h77v396h-77v146h379v-146h-68v-122l151 122h-47v146h353l-1 -146h-68zM362 -127c0 23.333 9.16699 43.332 27.5 59.999s43.166 25 74.499 25c18.667 0 34.334 -3.16699 47.001 -9.5
s23 -14.5 31 -24.5s13.833 -21.333 17.5 -34s5.5 -25.334 5.5 -38.001c0 -21.333 -4.5 -42.166 -13.5 -62.499s-20.667 -39.5 -35 -57.5s-30.5 -34.167 -48.5 -48.5s-36.333 -25.833 -55 -34.5l-51 63c18 13.333 32.5 26.333 43.5 39s17.833 28.334 20.5 47.001
c-22.667 3.33301 -39 11.5 -49 24.5s-15 29.833 -15 50.5z" />
    <glyph glyph-name="kcommaaccent" unicode="&#x137;" horiz-adv-x="722" 
d="M544 306l90 -162.001l57 -12v-124c-10 -3.33301 -21 -6.16602 -33 -8.49902s-24 -4.33301 -36 -6s-23.333 -3 -34 -4s-19.667 -1.5 -27 -1.5c-17.333 -0.666992 -32.5 -0.166992 -45.5 1.5s-24.5 5 -34.5 10s-18.833 12 -26.5 21s-14.5 20.167 -20.5 33.5l-64 139
l-41 -27v-23h34v-143h-327v143h53v437h-54v142h294v-384l60 44v112h277v-141h-48zM283 -127.001c0 23.333 9.16699 43.332 27.5 59.999s43.166 25 74.499 25c18.667 0 34.334 -3.16699 47.001 -9.5s23 -14.5 31 -24.5s13.833 -21.333 17.5 -34s5.5 -25.334 5.5 -38.001
c0 -21.333 -4.5 -42.166 -13.5 -62.499s-20.667 -39.5 -35 -57.5s-30.5 -34.167 -48.5 -48.5s-36.333 -25.833 -55 -34.5l-51 63c18 13.333 32.5 26.333 43.5 39s17.833 28.334 20.5 47.001c-22.667 3.33301 -39 11.5 -49 24.5s-15 29.833 -15 50.5z" />
    <glyph glyph-name="kgreenlandic" unicode="&#x138;" horiz-adv-x="706" 
d="M541 303l90 -159.001l57 -12v-124c-10 -3.33301 -20.833 -6.16602 -32.5 -8.49902s-23.334 -4.33301 -35.001 -6s-22.667 -3 -33 -4s-19.166 -1.5 -26.499 -1.5c-17.333 -0.666992 -32.5 -0.166992 -45.5 1.5s-24.5 5 -34.5 10s-18.833 12 -26.5 21
s-14.5 20.167 -20.5 33.5l-64 139l-41 -27v-23h34v-143h-327v143h53v209h-54v142h294v-156l60 44v112h277v-141h-48z" />
    <glyph glyph-name="Lacute" unicode="&#x139;" horiz-adv-x="744" 
d="M45 0v149h77v396h-77v148h392v-148h-72v-396h195v135h164v-284h-679zM256 747l-65 78l189 183l101 -120z" />
    <glyph glyph-name="lacute" unicode="&#x13a;" horiz-adv-x="435" 
d="M336 143h59v-143h-355v143h58v439h-58v142h296v-581zM201 757l-65 78l189 183l101 -120z" />
    <glyph glyph-name="Lcommaaccent" unicode="&#x13b;" horiz-adv-x="744" 
d="M45 0v149h77v396h-77v148h392v-148h-72v-396h195v135h164v-284h-679zM267 -127c0 23.333 9.16699 43.332 27.5 59.999s43.166 25 74.499 25c18.667 0 34.334 -3.16699 47.001 -9.5s23 -14.5 31 -24.5s13.833 -21.333 17.5 -34s5.5 -25.334 5.5 -38.001
c0 -21.333 -4.5 -42.166 -13.5 -62.499s-20.667 -39.5 -35 -57.5s-30.5 -34.167 -48.5 -48.5s-36.333 -25.833 -55 -34.5l-51 63c18 13.333 32.5 26.333 43.5 39s17.833 28.334 20.5 47.001c-22.667 3.33301 -39 11.5 -49 24.5s-15 29.833 -15 50.5z" />
    <glyph glyph-name="lcommaaccent" unicode="&#x13c;" horiz-adv-x="435" 
d="M336 143h59v-143h-355v143h58v439h-58v142h296v-581zM137 -127c0 23.333 9.16699 43.332 27.5 59.999s43.166 25 74.499 25c18.667 0 34.334 -3.16699 47.001 -9.5s23 -14.5 31 -24.5s13.833 -21.333 17.5 -34s5.5 -25.334 5.5 -38.001
c0 -21.333 -4.5 -42.166 -13.5 -62.499s-20.667 -39.5 -35 -57.5s-30.5 -34.167 -48.5 -48.5s-36.333 -25.833 -55 -34.5l-51 63c18 13.333 32.5 26.333 43.5 39s17.833 28.334 20.5 47.001c-22.667 3.33301 -39 11.5 -49 24.5s-15 29.833 -15 50.5z" />
    <glyph glyph-name="Lcaron" unicode="&#x13d;" horiz-adv-x="792" 
d="M45 0v149h77v396h-77v148h392v-148h-72v-396h195v135h164v-284h-679zM546 632c0 23.333 9.16699 43.332 27.5 59.999s43.166 25 74.499 25c18.667 0 34.334 -3.16699 47.001 -9.5s23 -14.5 31 -24.5s13.833 -21.333 17.5 -34s5.5 -25.334 5.5 -38.001
c0 -21.333 -4.5 -42.166 -13.5 -62.499s-20.667 -39.5 -35 -57.5s-30.5 -34.167 -48.5 -48.5s-36.333 -25.833 -55 -34.5l-51 63c18 13.333 32.5 26.333 43.5 39s17.833 28.334 20.5 47.001c-22.667 3.33301 -39 11.5 -49 24.5s-15 29.833 -15 50.5z" />
    <glyph glyph-name="lcaron" unicode="&#x13e;" horiz-adv-x="623" 
d="M386 659c0 23.333 9.16699 43.332 27.5 59.999s43.166 25 74.499 25c18.667 0 34.334 -3.16699 47.001 -9.5s23 -14.5 31 -24.5s13.833 -21.333 17.5 -34s5.5 -25.334 5.5 -38.001c0 -21.333 -4.5 -42.166 -13.5 -62.499s-20.667 -39.5 -35 -57.5
s-30.5 -34.167 -48.5 -48.5s-36.333 -25.833 -55 -34.5l-51 63c18 13.333 32.5 26.333 43.5 39s17.833 28.334 20.5 47.001c-22.667 3.33301 -39 11.5 -49 24.5s-15 29.833 -15 50.5zM336 142.999h59v-143h-355v143h58v439h-58v142h296v-581z" />
    <glyph glyph-name="Ldot" unicode="&#x13f;" horiz-adv-x="744" 
d="M45 0v149h77v396h-77v148h392v-148h-72v-396h195v135h164v-284h-679zM711 464c0 -16 -3 -30.833 -9 -44.5s-14.167 -25.5 -24.5 -35.5s-22.5 -18 -36.5 -24s-28.667 -9 -44 -9c-16 0 -30.833 3 -44.5 9s-25.5 14 -35.5 24s-17.833 21.833 -23.5 35.5s-8.5 28.5 -8.5 44.5
c0 15.333 2.83301 29.833 8.5 43.5s13.5 25.667 23.5 36s21.833 18.5 35.5 24.5s28.5 9 44.5 9c15.333 0 30 -3 44 -9s26.167 -14.167 36.5 -24.5s18.5 -22.333 24.5 -36s9 -28.167 9 -43.5z" />
    <glyph glyph-name="ldot" unicode="&#x140;" horiz-adv-x="652" 
d="M629 404c0 -16 -3 -30.833 -9 -44.5s-14.167 -25.5 -24.5 -35.5s-22.5 -18 -36.5 -24s-28.667 -9 -44 -9c-16 0 -30.833 3 -44.5 9s-25.5 14 -35.5 24s-17.833 21.833 -23.5 35.5s-8.5 28.5 -8.5 44.5c0 15.333 2.83301 29.833 8.5 43.5s13.5 25.667 23.5 36
s21.833 18.5 35.5 24.5s28.5 9 44.5 9c15.333 0 30 -3 44 -9s26.167 -14.167 36.5 -24.5s18.5 -22.333 24.5 -36s9 -28.167 9 -43.5zM336 143h59v-143h-355v143h58v439h-58v142h296v-581z" />
    <glyph glyph-name="Lslash" unicode="&#x141;" horiz-adv-x="744" 
d="M45 0v149h77v63l-36 -20l-46 73l82 47v233h-77v148h392v-148h-72v-94l68 40l45 -72l-113 -66v-204h195v135h164v-284h-679z" />
    <glyph glyph-name="lslash" unicode="&#x142;" horiz-adv-x="435" 
d="M336 143h59v-143h-355v143h58v107l-49 -28l-46 73l95 54v233h-58v142h296v-238l60 35l45 -72l-105 -61v-245z" />
    <glyph glyph-name="Nacute" unicode="&#x143;" horiz-adv-x="946" 
d="M608 322v223h-66v148h359v-148h-68v-545h-239l-150 232l-105 170h-2v-253h67v-149h-359v149h70v396h-70v148h329l117 -184l113 -187h4zM453 747l-65 78l189 183l101 -120z" />
    <glyph glyph-name="nacute" unicode="&#x144;" horiz-adv-x="747" 
d="M477 508c122 0 183.003 -61.666 183.003 -184.999v-170h57v-139c-23.333 -9.33301 -47.833 -16.333 -73.5 -21s-50.167 -7 -73.5 -7c-28.667 0 -52.5 2.83301 -71.5 8.5s-34.167 14 -45.5 25s-19.333 24.5 -24 40.5s-7 34.333 -7 55v159c0 21.333 -4.5 36.333 -13.5 45
s-21.167 13 -36.5 13c-6.66699 0 -14.334 -1.83301 -23.001 -5.5s-16.667 -9.16699 -24 -16.5v-310h-239v354h-56v142h289v-43l6 -2c23.333 17.333 48.166 31.166 74.499 41.499s52.166 15.5 77.499 15.5zM326.003 548.001l-65 78l189 183l101 -120z" />
    <glyph glyph-name="Ncommaaccent" unicode="&#x145;" horiz-adv-x="946" 
d="M608 322v223h-66v148h359v-148h-68v-545h-239l-150 232l-105 170h-2v-253h67v-149h-359v149h70v396h-70v148h329l117 -184l113 -187h4zM400 -127c0 23.333 9.16699 43.332 27.5 59.999s43.166 25 74.499 25c18.667 0 34.334 -3.16699 47.001 -9.5s23 -14.5 31 -24.5
s13.833 -21.333 17.5 -34s5.5 -25.334 5.5 -38.001c0 -21.333 -4.5 -42.166 -13.5 -62.499s-20.667 -39.5 -35 -57.5s-30.5 -34.167 -48.5 -48.5s-36.333 -25.833 -55 -34.5l-51 63c18 13.333 32.5 26.333 43.5 39s17.833 28.334 20.5 47.001
c-22.667 3.33301 -39 11.5 -49 24.5s-15 29.833 -15 50.5z" />
    <glyph glyph-name="ncommaaccent" unicode="&#x146;" horiz-adv-x="747" 
d="M477 508c122 0 183.003 -61.666 183.003 -184.999v-170h57v-139c-23.333 -9.33301 -47.833 -16.333 -73.5 -21s-50.167 -7 -73.5 -7c-28.667 0 -52.5 2.83301 -71.5 8.5s-34.167 14 -45.5 25s-19.333 24.5 -24 40.5s-7 34.333 -7 55v159c0 21.333 -4.5 36.333 -13.5 45
s-21.167 13 -36.5 13c-6.66699 0 -14.334 -1.83301 -23.001 -5.5s-16.667 -9.16699 -24 -16.5v-310h-239v354h-56v142h289v-43l6 -2c23.333 17.333 48.166 31.166 74.499 41.499s52.166 15.5 77.499 15.5zM302.003 -126.999c0 23.333 9.16699 43.332 27.5 59.999
s43.166 25 74.499 25c18.667 0 34.334 -3.16699 47.001 -9.5s23 -14.5 31 -24.5s13.833 -21.333 17.5 -34s5.5 -25.334 5.5 -38.001c0 -21.333 -4.5 -42.166 -13.5 -62.499s-20.667 -39.5 -35 -57.5s-30.5 -34.167 -48.5 -48.5s-36.333 -25.833 -55 -34.5l-51 63
c18 13.333 32.5 26.333 43.5 39s17.833 28.334 20.5 47.001c-22.667 3.33301 -39 11.5 -49 24.5s-15 29.833 -15 50.5z" />
    <glyph glyph-name="Ncaron" unicode="&#x147;" horiz-adv-x="946" 
d="M608 322v223h-66v148h359v-148h-68v-545h-239l-150 232l-105 170h-2v-253h67v-149h-359v149h70v396h-70v148h329l117 -184l113 -187h4zM702 911l-163 -162h-142l-159 162l51 60l178 -100l181 102z" />
    <glyph glyph-name="ncaron" unicode="&#x148;" horiz-adv-x="747" 
d="M477 508c122 0 183.003 -61.666 183.003 -184.999v-170h57v-139c-23.333 -9.33301 -47.833 -16.333 -73.5 -21s-50.167 -7 -73.5 -7c-28.667 0 -52.5 2.83301 -71.5 8.5s-34.167 14 -45.5 25s-19.333 24.5 -24 40.5s-7 34.333 -7 55v159c0 21.333 -4.5 36.333 -13.5 45
s-21.167 13 -36.5 13c-6.66699 0 -14.334 -1.83301 -23.001 -5.5s-16.667 -9.16699 -24 -16.5v-310h-239v354h-56v142h289v-43l6 -2c23.333 17.333 48.166 31.166 74.499 41.499s52.166 15.5 77.499 15.5zM594.003 713.001l-163 -162h-142l-159 162l51 60l178 -100l181 102z
" />
    <glyph glyph-name="napostrophe" unicode="&#x149;" horiz-adv-x="964" 
d="M694 508c122 0 183.003 -61.666 183.003 -184.999v-170h57v-139c-23.333 -9.33301 -47.833 -16.333 -73.5 -21s-50.167 -7 -73.5 -7c-28.667 0 -52.5 2.83301 -71.5 8.5s-34.167 14 -45.5 25s-19.333 24.5 -24 40.5s-7 34.333 -7 55v159c0 21.333 -4.5 36.333 -13.5 45
s-21.167 13 -36.5 13c-6.66699 0 -14.334 -1.83301 -23.001 -5.5s-16.667 -9.16699 -24 -16.5v-310h-239v354h-56v142h289v-43l6 -2c23.333 17.333 48.166 31.166 74.499 41.499s52.166 15.5 77.499 15.5zM42.0029 665.001c0 23.333 9.16699 43.332 27.5 59.999
s43.166 25 74.499 25c18.667 0 34.334 -3.16699 47.001 -9.5s23 -14.5 31 -24.5s13.833 -21.333 17.5 -34s5.5 -25.334 5.5 -38.001c0 -21.333 -4.5 -42.166 -13.5 -62.499s-20.667 -39.5 -35 -57.5s-30.5 -34.167 -48.5 -48.5s-36.333 -25.833 -55 -34.5l-51 63
c18 13.333 32.5 26.333 43.5 39s17.833 28.334 20.5 47.001c-22.667 3.33301 -39 11.5 -49 24.5s-15 29.833 -15 50.5z" />
    <glyph glyph-name="Eng" unicode="&#x14a;" horiz-adv-x="946" 
d="M608 336l-0.000976562 209h-66v148h359v-148h-68v-543c0 -18.667 -0.333008 -38.167 -1 -58.5s-3.33398 -40 -8.00098 -59s-12 -37 -22 -54s-24.167 -32 -42.5 -45s-41.666 -23.167 -69.999 -30.5s-62.833 -11 -103.5 -11c-8 0 -17.167 0.333008 -27.5 1
s-21 1.66699 -32 3s-21.5 2.83301 -31.5 4.5s-18.667 3.5 -26 5.5l16 158l25 -2c8.66699 -0.666992 17.334 -1 26.001 -1c10 0 19.667 0.833008 29 2.5s17.5 4.66699 24.5 9s12.667 10.5 17 18.5s6.5 18.333 6.5 31v26l-209 306l-65 99h-2v-256h67v-149h-359v149h70v396h-70
v148h316l181 -261l62 -96h4z" />
    <glyph glyph-name="eng" unicode="&#x14b;" horiz-adv-x="721" 
d="M661 29c0 -18.667 -0.330078 -38.165 -0.99707 -58.498s-3.33398 -40 -8.00098 -59s-12 -37 -22 -54s-24.167 -32 -42.5 -45s-41.666 -23.167 -69.999 -30.5s-62.833 -11 -103.5 -11c-8 0 -17.333 0.333008 -28 1s-21.667 1.66699 -33 3s-22.333 2.83301 -33 4.5
s-19.667 3.5 -27 5.5l16 158c8 -0.666992 15.5 -1.16699 22.5 -1.5s13.5 -0.5 19.5 -0.5c22.667 0 40.167 3.66699 52.5 11s18.5 23.666 18.5 48.999v273c0 21.333 -4.5 36.333 -13.5 45s-21.167 13 -36.5 13c-6.66699 0 -14.334 -1.83301 -23.001 -5.5
s-16.667 -9.16699 -24 -16.5v-310h-239v354h-56v142h289v-43l6 -2c23.333 17.333 48.166 31.166 74.499 41.499s52.166 15.5 77.499 15.5c122 0 183 -61.667 183 -185z" />
    <glyph glyph-name="Omacron" unicode="&#x14c;" horiz-adv-x="845" 
d="M795 350c0 -52 -7.83301 -100.167 -23.5 -144.5s-39.167 -82.666 -70.5 -114.999s-70.166 -57.5 -116.499 -75.5s-100.5 -27 -162.5 -27s-116.167 9 -162.5 27s-85 43.167 -116 75.5s-54.333 70.666 -70 114.999s-23.5 92.5 -23.5 144.5s7.83301 100 23.5 144
s39 81.833 70 113.5s69.667 56.5 116 74.5s100.5 27 162.5 27s116.167 -9 162.5 -27s85.166 -42.833 116.499 -74.5s54.833 -69.5 70.5 -113.5s23.5 -92 23.5 -144zM536 350c0 28.667 -1.83301 55.0029 -5.5 79.0029s-10 44.667 -19 62s-20.667 30.666 -35 39.999
s-32.5 14 -54.5 14s-40.333 -5.16699 -55 -15.5s-26.5 -24.333 -35.5 -42s-15.333 -38.334 -19 -62.001s-5.5 -48.834 -5.5 -75.501c0 -30 1.83301 -57.333 5.5 -82s10 -45.667 19 -63s20.833 -30.833 35.5 -40.5s33 -14.5 55 -14.5s40.167 4.66699 54.5 14
s26 22.666 35 39.999s15.333 38.333 19 63s5.5 52.334 5.5 83.001zM226 885.003h400v-136h-400v136z" />
    <glyph glyph-name="omacron" unicode="&#x14d;" horiz-adv-x="681" 
d="M641 249c0 -38.667 -6.33301 -73.834 -19 -105.501s-31.667 -59 -57 -82s-56.666 -40.833 -93.999 -53.5s-81 -19 -131 -19s-93.833 6.33301 -131.5 19s-69 30.5 -94 53.5s-43.667 50.333 -56 82s-18.5 66.834 -18.5 105.501c0 38 6.16699 72.833 18.5 104.5
s31 58.667 56 81s56.333 39.833 94 52.5s81.5 19 131.5 19s93.667 -6.33301 131 -19s68.666 -30.167 93.999 -52.5s44.333 -49.333 57 -81s19 -66.5 19 -104.5zM398 249c0 30 -4 54.166 -12 72.499s-23.333 27.5 -46 27.5c-11.333 0 -20.666 -2.66699 -27.999 -8
s-13.333 -12.666 -18 -21.999s-7.83398 -20 -9.50098 -32s-2.5 -24.667 -2.5 -38c0 -31.333 4 -56.833 12 -76.5s23.333 -29.5 46 -29.5s38 9.5 46 28.5s12 44.833 12 77.5zM143 684.999h400v-136h-400v136z" />
    <glyph glyph-name="Obreve" unicode="&#x14e;" horiz-adv-x="845" 
d="M795 350c0 -52 -7.83301 -100.167 -23.5 -144.5s-39.167 -82.666 -70.5 -114.999s-70.166 -57.5 -116.499 -75.5s-100.5 -27 -162.5 -27s-116.167 9 -162.5 27s-85 43.167 -116 75.5s-54.333 70.666 -70 114.999s-23.5 92.5 -23.5 144.5s7.83301 100 23.5 144
s39 81.833 70 113.5s69.667 56.5 116 74.5s100.5 27 162.5 27s116.167 -9 162.5 -27s85.166 -42.833 116.499 -74.5s54.833 -69.5 70.5 -113.5s23.5 -92 23.5 -144zM536 350c0 28.667 -1.83301 55.0029 -5.5 79.0029s-10 44.667 -19 62s-20.667 30.666 -35 39.999
s-32.5 14 -54.5 14s-40.333 -5.16699 -55 -15.5s-26.5 -24.333 -35.5 -42s-15.333 -38.334 -19 -62.001s-5.5 -48.834 -5.5 -75.501c0 -30 1.83301 -57.333 5.5 -82s10 -45.667 19 -63s20.833 -30.833 35.5 -40.5s33 -14.5 55 -14.5s40.167 4.66699 54.5 14
s26 22.666 35 39.999s15.333 38.333 19 63s5.5 52.334 5.5 83.001zM429 747.003c-22.667 0 -44.3359 4 -65.0029 12s-40.167 19 -58.5 33s-35.5 30.5 -51.5 49.5s-30.667 39.833 -44 62.5l78 64c12.667 -17.333 25.834 -32 39.501 -44s26.834 -21.833 39.501 -29.5
s24.667 -13.167 36 -16.5s21.333 -5 30 -5c6 0 13.333 0.333008 22 1s19.667 3.66699 33 9s29 14 47 26s39.667 29.667 65 53l58 -59c-18 -30 -36.667 -55 -56 -75s-39 -36 -59 -48s-39.667 -20.5 -59 -25.5s-37.666 -7.5 -54.999 -7.5z" />
    <glyph glyph-name="obreve" unicode="&#x14f;" horiz-adv-x="681" 
d="M641 249c0 -38.667 -6.33301 -73.834 -19 -105.501s-31.667 -59 -57 -82s-56.666 -40.833 -93.999 -53.5s-81 -19 -131 -19s-93.833 6.33301 -131.5 19s-69 30.5 -94 53.5s-43.667 50.333 -56 82s-18.5 66.834 -18.5 105.501c0 38 6.16699 72.833 18.5 104.5
s31 58.667 56 81s56.333 39.833 94 52.5s81.5 19 131.5 19s93.667 -6.33301 131 -19s68.666 -30.167 93.999 -52.5s44.333 -49.333 57 -81s19 -66.5 19 -104.5zM398 249c0 30 -4 54.166 -12 72.499s-23.333 27.5 -46 27.5c-11.333 0 -20.666 -2.66699 -27.999 -8
s-13.333 -12.666 -18 -21.999s-7.83398 -20 -9.50098 -32s-2.5 -24.667 -2.5 -38c0 -31.333 4 -56.833 12 -76.5s23.333 -29.5 46 -29.5s38 9.5 46 28.5s12 44.833 12 77.5zM335 547.999c-22.667 0 -44.3359 4 -65.0029 12s-40.167 19 -58.5 33s-35.5 30.5 -51.5 49.5
s-30.667 39.833 -44 62.5l78 64c12.667 -17.333 25.834 -32 39.501 -44s26.834 -21.833 39.501 -29.5s24.667 -13.167 36 -16.5s21.333 -5 30 -5c6 0 13.333 0.333008 22 1s19.667 3.66699 33 9s29 14 47 26s39.667 29.667 65 53l58 -59c-18 -30 -36.667 -55 -56 -75
s-39 -36 -59 -48s-39.667 -20.5 -59 -25.5s-37.666 -7.5 -54.999 -7.5z" />
    <glyph glyph-name="Ohungarumlaut" unicode="&#x150;" horiz-adv-x="845" 
d="M795 350c0 -52 -7.83301 -100.167 -23.5 -144.5s-39.167 -82.666 -70.5 -114.999s-70.166 -57.5 -116.499 -75.5s-100.5 -27 -162.5 -27s-116.167 9 -162.5 27s-85 43.167 -116 75.5s-54.333 70.666 -70 114.999s-23.5 92.5 -23.5 144.5s7.83301 100 23.5 144
s39 81.833 70 113.5s69.667 56.5 116 74.5s100.5 27 162.5 27s116.167 -9 162.5 -27s85.166 -42.833 116.499 -74.5s54.833 -69.5 70.5 -113.5s23.5 -92 23.5 -144zM536 350c0 28.667 -1.83301 55.0029 -5.5 79.0029s-10 44.667 -19 62s-20.667 30.666 -35 39.999
s-32.5 14 -54.5 14s-40.333 -5.16699 -55 -15.5s-26.5 -24.333 -35.5 -42s-15.333 -38.334 -19 -62.001s-5.5 -48.834 -5.5 -75.501c0 -30 1.83301 -57.333 5.5 -82s10 -45.667 19 -63s20.833 -30.833 35.5 -40.5s33 -14.5 55 -14.5s40.167 4.66699 54.5 14
s26 22.666 35 39.999s15.333 38.333 19 63s5.5 52.334 5.5 83.001zM347 749.003l-78 64l150 216l122 -98zM558 749.003l-78 64l150 216l122 -98z" />
    <glyph glyph-name="ohungarumlaut" unicode="&#x151;" horiz-adv-x="681" 
d="M641 249c0 -38.667 -6.33301 -73.834 -19 -105.501s-31.667 -59 -57 -82s-56.666 -40.833 -93.999 -53.5s-81 -19 -131 -19s-93.833 6.33301 -131.5 19s-69 30.5 -94 53.5s-43.667 50.333 -56 82s-18.5 66.834 -18.5 105.501c0 38 6.16699 72.833 18.5 104.5
s31 58.667 56 81s56.333 39.833 94 52.5s81.5 19 131.5 19s93.667 -6.33301 131 -19s68.666 -30.167 93.999 -52.5s44.333 -49.333 57 -81s19 -66.5 19 -104.5zM398 249c0 30 -4 54.166 -12 72.499s-23.333 27.5 -46 27.5c-11.333 0 -20.666 -2.66699 -27.999 -8
s-13.333 -12.666 -18 -21.999s-7.83398 -20 -9.50098 -32s-2.5 -24.667 -2.5 -38c0 -31.333 4 -56.833 12 -76.5s23.333 -29.5 46 -29.5s38 9.5 46 28.5s12 44.833 12 77.5zM228 544.999l-78 64l150 216l122 -98zM439 544.999l-78 64l150 216l122 -98z" />
    <glyph glyph-name="OE" unicode="&#x152;" horiz-adv-x="1038" 
d="M523 0c-34 -8 -71 -11.999 -111 -11.999c-62 0 -116.167 9 -162.5 27s-85 43.167 -116 75.5s-54.333 70.666 -70 114.999s-23.5 92.5 -23.5 144.5s7.83301 100 23.5 144s39 81.833 70 113.5s69.667 56.5 116 74.5s100.5 27 162.5 27c23.333 0 45.833 -1.33301 67.5 -4
s42.167 -6.66699 61.5 -12h459v-271h-163v123h-163v-123h113v-138h-113v-135h171v135h163v-284h-485zM412 150.001l9.49902 0.000976562c3 0 6.16699 0.333008 9.5 1v392c-5.33301 1.33301 -9.33301 2 -12 2h-14c-20.667 -1.33301 -38 -7.33301 -52 -18
s-25.167 -24.834 -33.5 -42.501s-14.166 -38 -17.499 -61s-5 -47.5 -5 -73.5c0 -30 1.83301 -57.333 5.5 -82s10 -45.667 19 -63s20.833 -30.833 35.5 -40.5s33 -14.5 55 -14.5z" />
    <glyph glyph-name="oe" unicode="&#x153;" horiz-adv-x="961" 
d="M923 46c-18.667 -10 -38.5 -18.335 -59.5 -25.002s-42 -12.167 -63 -16.5s-41.5 -7.33301 -61.5 -9s-38.667 -2.5 -56 -2.5c-72.667 0 -129.667 14.667 -171 44c-23.333 -15.333 -49.833 -27.166 -79.5 -35.499s-62.5 -12.5 -98.5 -12.5c-50 0 -93.833 6.33301 -131.5 19
s-69 30.5 -94 53.5s-43.833 50.333 -56.5 82s-19 66.834 -19 105.501c0 38 6.33301 72.833 19 104.5s31.5 58.667 56.5 81s56.333 39.833 94 52.5s81.5 19 131.5 19c34.667 0 66.5 -3.66699 95.5 -11s54.5 -19 76.5 -35c20 18 44.667 31.333 74 40s63 13 101 13
c48 0 88.167 -6.66699 120.5 -20s58.333 -31.333 78 -54s33.5 -49 41.5 -79s12 -61.667 12 -95v-33h-296c0 -31.333 8.16699 -52 24.5 -62s39.833 -15 70.5 -15c22 0 46.5 2.5 73.5 7.5s51.5 10.833 73.5 17.5zM392 248.998c0 30 -4 54.166 -12 72.499
s-23.333 27.5 -46 27.5c-11.333 0 -20.666 -2.66699 -27.999 -8s-13.333 -12.666 -18 -21.999s-7.83398 -20 -9.50098 -32s-2.5 -24.667 -2.5 -38c0 -31.333 4 -56.833 12 -76.5s23.333 -29.5 46 -29.5s38 9.5 46 28.5s12 44.833 12 77.5zM724 297.997
c-0.666992 19.333 -3.66797 34.833 -9.00098 46.5s-15.666 17.5 -30.999 17.5c-16 0 -27.333 -6.16699 -34 -18.5s-10 -27.5 -10 -45.5h84z" />
    <glyph glyph-name="Racute" unicode="&#x154;" horiz-adv-x="808" 
d="M473 478c0 22 -6 38.667 -18 50s-29 17 -51 17h-46v-146h36c24 0 43.167 6 57.5 18s21.5 32.333 21.5 61zM358 259v-109.999h60v-149h-368v149h69v396h-69v148h423c52 0 94.667 -6.5 128 -19.5s59.666 -30 78.999 -51s32.666 -44.667 39.999 -71s11 -52.5 11 -78.5
c0 -15.333 -2 -31.333 -6 -48s-10.167 -32.834 -18.5 -48.501s-19 -30 -32 -43s-28.833 -23.833 -47.5 -32.5l84 -157l82 -13v-129c-12 -4 -25.333 -7.33301 -40 -10s-29 -5 -43 -7s-27.167 -3.33301 -39.5 -4s-22.166 -1 -29.499 -1c-21.333 0 -39.666 2.16699 -54.999 6.5
s-28.833 10.833 -40.5 19.5s-22 19.667 -31 33s-17.5 29 -25.5 47l-75 173h-56zM348 747.001l-65 78l189 183l101 -120z" />
    <glyph glyph-name="racute" unicode="&#x155;" horiz-adv-x="584" 
d="M331 414c12 10 25.667 20.167 41 30.5s31.5 20 48.5 29s34.5 16.333 52.5 22s35.667 8.5 53 8.5c19.333 0 32.166 -5 38.499 -15s9.5 -26 9.5 -48c0 -12.667 -1.16699 -26.667 -3.5 -42s-6.16602 -31 -11.499 -47s-12.333 -31.5 -21 -46.5s-19 -28.167 -31 -39.5l-179 42
v-165h52v-143h-340v143h52v210h-48v143h281v-79zM249 548l-65 78l189 183l101 -120z" />
    <glyph glyph-name="Rcommaaccent" unicode="&#x156;" horiz-adv-x="808" 
d="M473 478c0 22 -6 38.667 -18 50s-29 17 -51 17h-46v-146h36c24 0 43.167 6 57.5 18s21.5 32.333 21.5 61zM358 259v-109.999h60v-149h-368v149h69v396h-69v148h423c52 0 94.667 -6.5 128 -19.5s59.666 -30 78.999 -51s32.666 -44.667 39.999 -71s11 -52.5 11 -78.5
c0 -15.333 -2 -31.333 -6 -48s-10.167 -32.834 -18.5 -48.501s-19 -30 -32 -43s-28.833 -23.833 -47.5 -32.5l84 -157l82 -13v-129c-12 -4 -25.333 -7.33301 -40 -10s-29 -5 -43 -7s-27.167 -3.33301 -39.5 -4s-22.166 -1 -29.499 -1c-21.333 0 -39.666 2.16699 -54.999 6.5
s-28.833 10.833 -40.5 19.5s-22 19.667 -31 33s-17.5 29 -25.5 47l-75 173h-56zM292 -126.999c0 23.333 9.16699 43.332 27.5 59.999s43.166 25 74.499 25c18.667 0 34.334 -3.16699 47.001 -9.5s23 -14.5 31 -24.5s13.833 -21.333 17.5 -34s5.5 -25.334 5.5 -38.001
c0 -21.333 -4.5 -42.166 -13.5 -62.499s-20.667 -39.5 -35 -57.5s-30.5 -34.167 -48.5 -48.5s-36.333 -25.833 -55 -34.5l-51 63c18 13.333 32.5 26.333 43.5 39s17.833 28.334 20.5 47.001c-22.667 3.33301 -39 11.5 -49 24.5s-15 29.833 -15 50.5z" />
    <glyph glyph-name="rcommaaccent" unicode="&#x157;" horiz-adv-x="584" 
d="M331 414c12 10 25.667 20.167 41 30.5s31.5 20 48.5 29s34.5 16.333 52.5 22s35.667 8.5 53 8.5c19.333 0 32.166 -5 38.499 -15s9.5 -26 9.5 -48c0 -12.667 -1.16699 -26.667 -3.5 -42s-6.16602 -31 -11.499 -47s-12.333 -31.5 -21 -46.5s-19 -28.167 -31 -39.5l-179 42
v-165h52v-143h-340v143h52v210h-48v143h281v-79zM127 -127c0 23.333 9.16699 43.332 27.5 59.999s43.166 25 74.499 25c18.667 0 34.334 -3.16699 47.001 -9.5s23 -14.5 31 -24.5s13.833 -21.333 17.5 -34s5.5 -25.334 5.5 -38.001c0 -21.333 -4.5 -42.166 -13.5 -62.499
s-20.667 -39.5 -35 -57.5s-30.5 -34.167 -48.5 -48.5s-36.333 -25.833 -55 -34.5l-51 63c18 13.333 32.5 26.333 43.5 39s17.833 28.334 20.5 47.001c-22.667 3.33301 -39 11.5 -49 24.5s-15 29.833 -15 50.5z" />
    <glyph glyph-name="Rcaron" unicode="&#x158;" horiz-adv-x="808" 
d="M473 478c0 22 -6 38.667 -18 50s-29 17 -51 17h-46v-146h36c24 0 43.167 6 57.5 18s21.5 32.333 21.5 61zM358 259v-109.999h60v-149h-368v149h69v396h-69v148h423c52 0 94.667 -6.5 128 -19.5s59.666 -30 78.999 -51s32.666 -44.667 39.999 -71s11 -52.5 11 -78.5
c0 -15.333 -2 -31.333 -6 -48s-10.167 -32.834 -18.5 -48.501s-19 -30 -32 -43s-28.833 -23.833 -47.5 -32.5l84 -157l82 -13v-129c-12 -4 -25.333 -7.33301 -40 -10s-29 -5 -43 -7s-27.167 -3.33301 -39.5 -4s-22.166 -1 -29.499 -1c-21.333 0 -39.666 2.16699 -54.999 6.5
s-28.833 10.833 -40.5 19.5s-22 19.667 -31 33s-17.5 29 -25.5 47l-75 173h-56zM621 911.001l-163 -162h-142l-159 162l51 60l178 -100l181 102z" />
    <glyph glyph-name="rcaron" unicode="&#x159;" horiz-adv-x="584" 
d="M331 414c12 10 25.667 20.167 41 30.5s31.5 20 48.5 29s34.5 16.333 52.5 22s35.667 8.5 53 8.5c19.333 0 32.166 -5 38.499 -15s9.5 -26 9.5 -48c0 -12.667 -1.16699 -26.667 -3.5 -42s-6.16602 -31 -11.499 -47s-12.333 -31.5 -21 -46.5s-19 -28.167 -31 -39.5l-179 42
v-165h52v-143h-340v143h52v210h-48v143h281v-79zM491 713l-163 -162h-142l-159 162l51 60l178 -100l181 102z" />
    <glyph glyph-name="Sacute" unicode="&#x15a;" horiz-adv-x="730" 
d="M378 541c-27.333 0 -47.0029 -4.49512 -59.0029 -13.4951s-18 -20.167 -18 -33.5c0 -9.33301 4.83301 -17.333 14.5 -24s21.5 -12.667 35.5 -18s28.833 -10 44.5 -14s29.5 -7.33301 41.5 -10c33.333 -7.33301 65 -16.333 95 -27s56.333 -24.334 79 -41.001
s40.667 -36.834 54 -60.501s20 -52.167 20 -85.5c0 -35.333 -6.5 -67.166 -19.5 -95.499s-33.167 -52.333 -60.5 -72s-62.5 -34.834 -105.5 -45.501s-94.833 -16 -155.5 -16c-46 0 -94 3.66699 -144 11s-98 19.333 -144 36v205h162v-70
c8 -2.66699 17.333 -4.83398 28 -6.50098s21.334 -3 32.001 -4s20.334 -1.83301 29.001 -2.5s15.667 -1 21 -1c18.667 0 33.667 1.66699 45 5s20 7.16602 26 11.499s9.83301 9 11.5 14s2.5 9.5 2.5 13.5c0 11.333 -3.16699 20.166 -9.5 26.499s-14.833 11.166 -25.5 14.499
c-18.667 5.33301 -41.334 10.833 -68.001 16.5s-54 12.167 -82 19.5c-58.667 15.333 -103.834 39.5 -135.501 72.5s-47.5 74.5 -47.5 124.5c0 34 5.83301 65.333 17.5 94s30.334 53.334 56.001 74.001s58.5 36.667 98.5 48s88.333 17 145 17c20 0 41.667 -1 65 -3
s46.5 -5 69.5 -9s45.667 -9 68 -15s42.5 -13 60.5 -21v-193h-164v64c-13.333 5.33301 -28.166 9 -44.499 11s-29.166 3 -38.499 3zM326.997 745.005l-65 78l189 183l101 -120z" />
    <glyph glyph-name="sacute" unicode="&#x15b;" horiz-adv-x="604" 
d="M298 509c18 0 36.8291 -0.835938 56.4961 -2.50293s39.334 -4.16699 59.001 -7.5s38.834 -7.66602 57.501 -12.999s36 -11.333 52 -18v-143h-156v39c-13.333 3.33301 -29 5 -47 5c-12.667 0 -23.667 -1.83301 -33 -5.5s-14 -10.167 -14 -19.5
c0 -8.66699 7.33301 -15.5 22 -20.5s32.834 -10 54.501 -15s45.334 -10.833 71.001 -17.5s49.334 -16 71.001 -28s39.834 -27.5 54.501 -46.5s22 -43.167 22 -72.5c0 -24 -4.83301 -45.667 -14.5 -65s-25.5 -35.666 -47.5 -48.999s-50.667 -23.666 -86 -30.999
s-78.333 -11 -129 -11c-37.333 0 -78.333 2.83301 -123 8.5s-88.334 17.167 -131.001 34.5v149h160v-39c5.33301 -3.33301 15.166 -6 29.499 -8s28.833 -3 43.5 -3c14 0 26.167 1.33301 36.5 4s15.5 7.66699 15.5 15c0 8.66699 -3 14.5 -9 17.5s-17 6.5 -33 10.5
c-31.333 8 -61.833 16.5 -91.5 25.5s-56 19.833 -79 32.5s-41.5 27.667 -55.5 45s-21 38.333 -21 63c0 24 4.83301 46.167 14.5 66.5s25.167 37.833 46.5 52.5s48.833 26.167 82.5 34.5s74.167 12.5 121.5 12.5zM264.996 547.997l-65 78l189 183l101 -120z" />
    <glyph glyph-name="Scircumflex" unicode="&#x15c;" horiz-adv-x="730" 
d="M378 541c-27.333 0 -47.0029 -4.49512 -59.0029 -13.4951s-18 -20.167 -18 -33.5c0 -9.33301 4.83301 -17.333 14.5 -24s21.5 -12.667 35.5 -18s28.833 -10 44.5 -14s29.5 -7.33301 41.5 -10c33.333 -7.33301 65 -16.333 95 -27s56.333 -24.334 79 -41.001
s40.667 -36.834 54 -60.501s20 -52.167 20 -85.5c0 -35.333 -6.5 -67.166 -19.5 -95.499s-33.167 -52.333 -60.5 -72s-62.5 -34.834 -105.5 -45.501s-94.833 -16 -155.5 -16c-46 0 -94 3.66699 -144 11s-98 19.333 -144 36v205h162v-70
c8 -2.66699 17.333 -4.83398 28 -6.50098s21.334 -3 32.001 -4s20.334 -1.83301 29.001 -2.5s15.667 -1 21 -1c18.667 0 33.667 1.66699 45 5s20 7.16602 26 11.499s9.83301 9 11.5 14s2.5 9.5 2.5 13.5c0 11.333 -3.16699 20.166 -9.5 26.499s-14.833 11.166 -25.5 14.499
c-18.667 5.33301 -41.334 10.833 -68.001 16.5s-54 12.167 -82 19.5c-58.667 15.333 -103.834 39.5 -135.501 72.5s-47.5 74.5 -47.5 124.5c0 34 5.83301 65.333 17.5 94s30.334 53.334 56.001 74.001s58.5 36.667 98.5 48s88.333 17 145 17c20 0 41.667 -1 65 -3
s46.5 -5 69.5 -9s45.667 -9 68 -15s42.5 -13 60.5 -21v-193h-164v64c-13.333 5.33301 -28.166 9 -44.499 11s-29.166 3 -38.499 3zM547.997 747.005l-181 102l-178 -100l-51 60l159 162h142l163 -162z" />
    <glyph glyph-name="scircumflex" unicode="&#x15d;" horiz-adv-x="604" 
d="M298 509c18 0 36.8291 -0.835938 56.4961 -2.50293s39.334 -4.16699 59.001 -7.5s38.834 -7.66602 57.501 -12.999s36 -11.333 52 -18v-143h-156v39c-13.333 3.33301 -29 5 -47 5c-12.667 0 -23.667 -1.83301 -33 -5.5s-14 -10.167 -14 -19.5
c0 -8.66699 7.33301 -15.5 22 -20.5s32.834 -10 54.501 -15s45.334 -10.833 71.001 -17.5s49.334 -16 71.001 -28s39.834 -27.5 54.501 -46.5s22 -43.167 22 -72.5c0 -24 -4.83301 -45.667 -14.5 -65s-25.5 -35.666 -47.5 -48.999s-50.667 -23.666 -86 -30.999
s-78.333 -11 -129 -11c-37.333 0 -78.333 2.83301 -123 8.5s-88.334 17.167 -131.001 34.5v149h160v-39c5.33301 -3.33301 15.166 -6 29.499 -8s28.833 -3 43.5 -3c14 0 26.167 1.33301 36.5 4s15.5 7.66699 15.5 15c0 8.66699 -3 14.5 -9 17.5s-17 6.5 -33 10.5
c-31.333 8 -61.833 16.5 -91.5 25.5s-56 19.833 -79 32.5s-41.5 27.667 -55.5 45s-21 38.333 -21 63c0 24 4.83301 46.167 14.5 66.5s25.167 37.833 46.5 52.5s48.833 26.167 82.5 34.5s74.167 12.5 121.5 12.5zM465.996 535.997l-181 102l-178 -100l-51 60l159 162h142
l163 -162z" />
    <glyph glyph-name="Scedilla" unicode="&#x15e;" horiz-adv-x="730" 
d="M378 541c-27.333 0 -47.0029 -4.49121 -59.0029 -13.4912s-18 -20.167 -18 -33.5c0 -9.33301 4.83301 -17.333 14.5 -24s21.5 -12.667 35.5 -18s28.833 -10 44.5 -14s29.5 -7.33301 41.5 -10c33.333 -7.33301 65 -16.333 95 -27s56.333 -24.334 79 -41.001
s40.667 -36.834 54 -60.501s20 -52.167 20 -85.5c0 -64.667 -22.167 -117 -66.5 -157s-116.5 -63.333 -216.5 -70l-28 -39c34.667 -7.33301 60.667 -19.833 78 -37.5s26 -40.167 26 -67.5c0 -11.333 -3.16699 -23.833 -9.5 -37.5s-17.833 -26.5 -34.5 -38.5s-39 -22 -67 -30
s-63.333 -12.333 -106 -13l-4 78c36.667 3.33301 63.834 9.16602 81.501 17.499s26.5 18.166 26.5 29.499c0 10 -4.83301 16.5 -14.5 19.5s-20.167 4.5 -31.5 4.5c-6.66699 0 -12.834 -0.166992 -18.501 -0.5s-10.834 -0.833008 -15.501 -1.5l-23 35l58 79
c-43.333 1.33301 -87.666 5.66602 -132.999 12.999s-89 18.666 -131 33.999v205h162v-70c8 -2.66699 17.333 -4.83398 28 -6.50098s21.334 -3 32.001 -4s20.334 -1.83301 29.001 -2.5s15.667 -1 21 -1c18.667 0 33.667 1.66699 45 5s20 7.16602 26 11.499s9.83301 9 11.5 14
s2.5 9.5 2.5 13.5c0 11.333 -3.16699 20.166 -9.5 26.499s-14.833 11.166 -25.5 14.499c-18.667 5.33301 -41.334 10.833 -68.001 16.5s-54 12.167 -82 19.5c-58.667 15.333 -103.834 39.5 -135.501 72.5s-47.5 74.5 -47.5 124.5c0 34 5.83301 65.333 17.5 94
s30.334 53.334 56.001 74.001s58.5 36.667 98.5 48s88.333 17 145 17c20 0 41.667 -1 65 -3s46.5 -5 69.5 -9s45.667 -9 68 -15s42.5 -13 60.5 -21v-193h-164v64c-13.333 5.33301 -28.166 9 -44.499 11s-29.166 3 -38.499 3z" />
    <glyph glyph-name="scedilla" unicode="&#x15f;" horiz-adv-x="604" 
d="M298 509c18 0 36.8291 -0.833008 56.4961 -2.5s39.334 -4.16699 59.001 -7.5s38.834 -7.66602 57.501 -12.999s36 -11.333 52 -18v-143h-156v39c-13.333 3.33301 -29 5 -47 5c-12.667 0 -23.667 -1.83301 -33 -5.5s-14 -10.167 -14 -19.5
c0 -8.66699 7.33301 -15.5 22 -20.5s32.834 -10 54.501 -15s45.334 -10.833 71.001 -17.5s49.334 -16 71.001 -28s39.834 -27.5 54.501 -46.5s22 -43.167 22 -72.5c0 -22.667 -4.33301 -43.167 -13 -61.5s-22.667 -34.166 -42 -47.499s-44.5 -24 -75.5 -32
s-68.5 -12.667 -112.5 -14l-25 -35c34.667 -7.33301 60.667 -19.833 78 -37.5s26 -40.167 26 -67.5c0 -11.333 -3.16699 -23.833 -9.5 -37.5s-17.833 -26.5 -34.5 -38.5s-39 -22 -67 -30s-63.333 -12.333 -106 -13l-4 78c36.667 3.33301 63.834 9.16602 81.501 17.499
s26.5 18.166 26.5 29.499c0 10 -4.83301 16.5 -14.5 19.5s-20.167 4.5 -31.5 4.5c-6.66699 0 -12.834 -0.166992 -18.501 -0.5s-10.834 -0.833008 -15.501 -1.5l-23 35l57 77c-32.667 2 -67 6 -103 12s-71 16 -105 30v149h160v-39c5.33301 -3.33301 15.166 -6 29.499 -8
s28.833 -3 43.5 -3c14 0 26.167 1.33301 36.5 4s15.5 7.66699 15.5 15c0 8.66699 -3 14.5 -9 17.5s-17 6.5 -33 10.5c-31.333 8 -61.833 16.5 -91.5 25.5s-56 19.833 -79 32.5s-41.5 27.667 -55.5 45s-21 38.333 -21 63c0 24 4.83301 46.167 14.5 66.5
s25.167 37.833 46.5 52.5s48.833 26.167 82.5 34.5s74.167 12.5 121.5 12.5z" />
    <glyph glyph-name="Scaron" unicode="&#x160;" horiz-adv-x="730" 
d="M378 541c-27.333 0 -47.0029 -4.49512 -59.0029 -13.4951s-18 -20.167 -18 -33.5c0 -9.33301 4.83301 -17.333 14.5 -24s21.5 -12.667 35.5 -18s28.833 -10 44.5 -14s29.5 -7.33301 41.5 -10c33.333 -7.33301 65 -16.333 95 -27s56.333 -24.334 79 -41.001
s40.667 -36.834 54 -60.501s20 -52.167 20 -85.5c0 -35.333 -6.5 -67.166 -19.5 -95.499s-33.167 -52.333 -60.5 -72s-62.5 -34.834 -105.5 -45.501s-94.833 -16 -155.5 -16c-46 0 -94 3.66699 -144 11s-98 19.333 -144 36v205h162v-70
c8 -2.66699 17.333 -4.83398 28 -6.50098s21.334 -3 32.001 -4s20.334 -1.83301 29.001 -2.5s15.667 -1 21 -1c18.667 0 33.667 1.66699 45 5s20 7.16602 26 11.499s9.83301 9 11.5 14s2.5 9.5 2.5 13.5c0 11.333 -3.16699 20.166 -9.5 26.499s-14.833 11.166 -25.5 14.499
c-18.667 5.33301 -41.334 10.833 -68.001 16.5s-54 12.167 -82 19.5c-58.667 15.333 -103.834 39.5 -135.501 72.5s-47.5 74.5 -47.5 124.5c0 34 5.83301 65.333 17.5 94s30.334 53.334 56.001 74.001s58.5 36.667 98.5 48s88.333 17 145 17c20 0 41.667 -1 65 -3
s46.5 -5 69.5 -9s45.667 -9 68 -15s42.5 -13 60.5 -21v-193h-164v64c-13.333 5.33301 -28.166 9 -44.499 11s-29.166 3 -38.499 3zM594.997 911.005l-163 -162h-142l-159 162l51 60l178 -100l181 102z" />
    <glyph glyph-name="scaron" unicode="&#x161;" horiz-adv-x="604" 
d="M298 509c18 0 36.8291 -0.835938 56.4961 -2.50293s39.334 -4.16699 59.001 -7.5s38.834 -7.66602 57.501 -12.999s36 -11.333 52 -18v-143h-156v39c-13.333 3.33301 -29 5 -47 5c-12.667 0 -23.667 -1.83301 -33 -5.5s-14 -10.167 -14 -19.5
c0 -8.66699 7.33301 -15.5 22 -20.5s32.834 -10 54.501 -15s45.334 -10.833 71.001 -17.5s49.334 -16 71.001 -28s39.834 -27.5 54.501 -46.5s22 -43.167 22 -72.5c0 -24 -4.83301 -45.667 -14.5 -65s-25.5 -35.666 -47.5 -48.999s-50.667 -23.666 -86 -30.999
s-78.333 -11 -129 -11c-37.333 0 -78.333 2.83301 -123 8.5s-88.334 17.167 -131.001 34.5v149h160v-39c5.33301 -3.33301 15.166 -6 29.499 -8s28.833 -3 43.5 -3c14 0 26.167 1.33301 36.5 4s15.5 7.66699 15.5 15c0 8.66699 -3 14.5 -9 17.5s-17 6.5 -33 10.5
c-31.333 8 -61.833 16.5 -91.5 25.5s-56 19.833 -79 32.5s-41.5 27.667 -55.5 45s-21 38.333 -21 63c0 24 4.83301 46.167 14.5 66.5s25.167 37.833 46.5 52.5s48.833 26.167 82.5 34.5s74.167 12.5 121.5 12.5zM525.996 712.997l-163 -162h-142l-159 162l51 60l178 -100
l181 102z" />
    <glyph glyph-name="Tcommaaccent" unicode="&#x162;" horiz-adv-x="759" 
d="M176 0v149h83v396h-78v-123h-161v271h719v-271h-161v123h-79v-396h81v-149h-404zM296 -127c0 23.333 9.16699 43.332 27.5 59.999s43.166 25 74.499 25c18.667 0 34.334 -3.16699 47.001 -9.5s23 -14.5 31 -24.5s13.833 -21.333 17.5 -34s5.5 -25.334 5.5 -38.001
c0 -21.333 -4.5 -42.166 -13.5 -62.499s-20.667 -39.5 -35 -57.5s-30.5 -34.167 -48.5 -48.5s-36.333 -25.833 -55 -34.5l-51 63c18 13.333 32.5 26.333 43.5 39s17.833 28.334 20.5 47.001c-22.667 3.33301 -39 11.5 -49 24.5s-15 29.833 -15 50.5z" />
    <glyph glyph-name="tcommaaccent" unicode="&#x163;" horiz-adv-x="509" 
d="M312 651l-0.000976562 -156.005h136v-142h-136v-120c0 -17.333 1.16699 -30.833 3.5 -40.5s6.33301 -17.167 12 -22.5s12.834 -8.66602 21.501 -9.99902s19.334 -2 32.001 -2c5.33301 0 14.833 0.666992 28.5 2s27.834 3 42.501 5l24 -149
c-12.667 -5.33301 -26.334 -9.66602 -41.001 -12.999s-29.334 -6.33301 -44.001 -9s-29 -4.5 -43 -5.5s-26.333 -1.5 -37 -1.5c-54 0 -96.5 6.33301 -127.5 19s-54.333 28.334 -70 47.001s-25.5 38.834 -29.5 60.501s-6 41.834 -6 60.501v179h-67v126l84 25l52 135z
M152.999 -127.005c0 23.333 9.16699 43.332 27.5 59.999s43.166 25 74.499 25c18.667 0 34.334 -3.16699 47.001 -9.5s23 -14.5 31 -24.5s13.833 -21.333 17.5 -34s5.5 -25.334 5.5 -38.001c0 -21.333 -4.5 -42.166 -13.5 -62.499s-20.667 -39.5 -35 -57.5
s-30.5 -34.167 -48.5 -48.5s-36.333 -25.833 -55 -34.5l-51 63c18 13.333 32.5 26.333 43.5 39s17.833 28.334 20.5 47.001c-22.667 3.33301 -39 11.5 -49 24.5s-15 29.833 -15 50.5z" />
    <glyph glyph-name="Tcaron" unicode="&#x164;" horiz-adv-x="759" 
d="M176 0v149h83v396h-78v-123h-161v271h719v-271h-161v123h-79v-396h81v-149h-404zM616 911l-163 -162h-142l-159 162l51 60l178 -100l181 102z" />
    <glyph glyph-name="tcaron" unicode="&#x165;" horiz-adv-x="690" 
d="M485 670c0 23.333 9.16699 43.332 27.5 59.999s43.166 25 74.499 25c18.667 0 34.334 -3.16699 47.001 -9.5s23 -14.5 31 -24.5s13.833 -21.333 17.5 -34s5.5 -25.334 5.5 -38.001c0 -21.333 -4.5 -42.166 -13.5 -62.499s-20.667 -39.5 -35 -57.5
s-30.5 -34.167 -48.5 -48.5s-36.333 -25.833 -55 -34.5l-51 63c18 13.333 32.5 26.333 43.5 39s17.833 28.334 20.5 47.001c-22.667 3.33301 -39 11.5 -49 24.5s-15 29.833 -15 50.5zM312 650.999l-0.000976562 -156.005h136v-142h-136v-120
c0 -17.333 1.16699 -30.833 3.5 -40.5s6.33301 -17.167 12 -22.5s12.834 -8.66602 21.501 -9.99902s19.334 -2 32.001 -2c5.33301 0 14.833 0.666992 28.5 2s27.834 3 42.501 5l24 -149c-12.667 -5.33301 -26.334 -9.66602 -41.001 -12.999s-29.334 -6.33301 -44.001 -9
s-29 -4.5 -43 -5.5s-26.333 -1.5 -37 -1.5c-54 0 -96.5 6.33301 -127.5 19s-54.333 28.334 -70 47.001s-25.5 38.834 -29.5 60.501s-6 41.834 -6 60.501v179h-67v126l84 25l52 135z" />
    <glyph glyph-name="Tbar" unicode="&#x166;" horiz-adv-x="759" 
d="M176 0v149h83v126h-120v92h120v178h-79l1 -123h-161v271h719v-271h-161v123h-79v-178h113v-92h-113v-126h81v-149h-404z" />
    <glyph glyph-name="tbar" unicode="&#x167;" horiz-adv-x="509" 
d="M312 651l0.000976562 -156.005h136v-142h-136v-42h122v-87h-122c0 -15.333 1.5 -27.333 4.5 -36s7.16699 -15.167 12.5 -19.5s12.333 -7.16602 21 -8.49902s19 -2 31 -2c5.33301 0 14.833 0.666992 28.5 2s27.834 3 42.501 5l24 -149
c-12.667 -5.33301 -26.334 -9.66602 -41.001 -12.999s-29.334 -6.33301 -44.001 -9s-29 -4.5 -43 -5.5s-26.333 -1.5 -37 -1.5c-54 0 -96.5 6.33301 -127.5 19s-54.333 28.334 -70 47.001s-25.5 38.834 -29.5 60.501s-6 41.834 -6 60.501v50h-57v87h57v42h-67v126l84 25
l52 135z" />
    <glyph glyph-name="Utilde" unicode="&#x168;" horiz-adv-x="843" 
d="M750 264c0 -89.333 -25.666 -157.5 -76.999 -204.5s-134.666 -70.5 -249.999 -70.5c-61.333 0 -113 6.16699 -155 18.5s-76.333 30.333 -103 54s-45.834 52.5 -57.501 86.5s-17.5 72.667 -17.5 116v281h-55v148h346v-148h-53v-295c0 -36.667 8 -62.5 24 -77.5
s40.333 -22.5 73 -22.5c11.333 0 22.5 1.5 33.5 4.5s20.667 8.16699 29 15.5s15.166 17.5 20.499 30.5s8 29.5 8 49.5v295h-53v148h345v-148h-58v-281zM533.001 759c-20 0 -40.334 2.00098 -61.001 6.00098s-40.834 8.33301 -60.501 13l-55 13c-17 4 -31.5 6 -43.5 6
l-54 -39l-62 45c16.667 46.667 35.834 78.334 57.501 95.001s45.5 25 71.5 25c18 0 36.333 -1.83301 55 -5.5s37.334 -7.83398 56.001 -12.501s37 -8.83398 55 -12.501s35.333 -5.5 52 -5.5l55 41l60 -45c-14 -42.667 -31 -74 -51 -94s-45 -30 -75 -30z" />
    </font>
</defs>
</svg>
